G04*
G04 #@! TF.GenerationSoftware,Altium Limited,Altium Designer,23.1.1 (15)*
G04*
G04 Layer_Color=7058166*
%FSLAX44Y44*%
%MOMM*%
G71*
G04*
G04 #@! TF.SameCoordinates,4BF497F3-78CA-41F9-8CC1-BB5D37DA9F24*
G04*
G04*
G04 #@! TF.FilePolarity,Negative*
G04*
G01*
G75*
%ADD13C,4.0132*%
%ADD14C,1.4732*%
%ADD15C,1.1000*%
%ADD16C,1.2000*%
%ADD17R,1.2000X1.2000*%
G36*
X102694Y170696D02*
X102581Y170634D01*
X102556Y170534D01*
X102544Y146867D01*
X102619Y146767D01*
X102718Y146742D01*
X102893Y146718D01*
X109573Y146693D01*
X109635Y146630D01*
X109660Y146531D01*
X109635Y146207D01*
X109648Y140661D01*
X109598Y140536D01*
X109523Y140461D01*
X109399Y140411D01*
X109149Y140386D01*
X109074Y140411D01*
X88748Y140399D01*
X88586Y140461D01*
X88411Y140436D01*
X88349Y140374D01*
X88324Y140274D01*
X88349Y140125D01*
X88486Y139988D01*
X88536Y139963D01*
X88623Y139875D01*
X88648Y139826D01*
X88710Y139763D01*
X88760Y139738D01*
X88847Y139651D01*
X88972Y139427D01*
X89096Y139302D01*
X89184Y139140D01*
X89234Y139115D01*
X89296Y139053D01*
X89321Y139003D01*
X89445Y138828D01*
X89533Y138766D01*
X89570Y138729D01*
X89595Y138679D01*
X89707Y138542D01*
X89819Y138430D01*
X89919Y138255D01*
X90019Y138156D01*
X90044Y138106D01*
X90168Y137931D01*
X90206Y137894D01*
X90255Y137869D01*
X90318Y137807D01*
X90343Y137757D01*
X90467Y137632D01*
X90492Y137582D01*
X90629Y137370D01*
X90679Y137345D01*
X90742Y137283D01*
X90866Y137059D01*
X90991Y136934D01*
X91016Y136884D01*
X91128Y136722D01*
X91178Y136697D01*
X91290Y136585D01*
X91315Y136535D01*
X91440Y136361D01*
X91464Y136311D01*
X91552Y136199D01*
X91601Y136174D01*
X91714Y136062D01*
X91813Y135887D01*
X92137Y135563D01*
X92162Y135513D01*
X92212Y135464D01*
X92312Y135289D01*
X92349Y135252D01*
X92387Y135239D01*
X92412Y135189D01*
X92511Y135015D01*
X92574Y134953D01*
X92624Y134928D01*
X92686Y134840D01*
X92798Y134728D01*
X92848Y134703D01*
X92885Y134666D01*
X92910Y134616D01*
X93010Y134442D01*
X93134Y134317D01*
X93159Y134267D01*
X93284Y134093D01*
X93321Y134055D01*
X93359Y134043D01*
X93384Y133993D01*
X93508Y133819D01*
X93546Y133781D01*
X93596Y133756D01*
X93633Y133719D01*
X93708Y133594D01*
X93857Y133445D01*
X93957Y133270D01*
X93994Y133208D01*
X94032Y133195D01*
X94057Y133146D01*
X94107Y133096D01*
X94131Y133046D01*
X94244Y132909D01*
X94331Y132821D01*
X94455Y132597D01*
X94605Y132448D01*
X94705Y132273D01*
X95029Y131949D01*
X95054Y131899D01*
X95178Y131725D01*
X95303Y131600D01*
X95378Y131475D01*
X95577Y131276D01*
X95602Y131226D01*
X95664Y131139D01*
X95714Y131114D01*
X95777Y131052D01*
X95901Y130827D01*
X96026Y130703D01*
X96125Y130528D01*
X96163Y130491D01*
X96213Y130466D01*
X96350Y130254D01*
X96412Y130192D01*
X96462Y130167D01*
X96499Y130129D01*
X96524Y130080D01*
X96636Y129943D01*
X96749Y129830D01*
X96848Y129656D01*
X96948Y129556D01*
X96973Y129506D01*
X97098Y129332D01*
X97160Y129270D01*
X97210Y129245D01*
X97247Y129207D01*
X97272Y129157D01*
X97397Y128983D01*
X97472Y128858D01*
X97609Y128721D01*
X97659Y128696D01*
X97771Y128509D01*
X97796Y128459D01*
X97945Y128310D01*
X98045Y128135D01*
X98394Y127786D01*
X98493Y127612D01*
X98643Y127462D01*
X98668Y127413D01*
X98830Y127176D01*
X98917Y127113D01*
X98942Y127064D01*
X99142Y126864D01*
X99241Y126690D01*
X99366Y126565D01*
X99466Y126390D01*
X99777Y126079D01*
X99815Y126067D01*
X99839Y126017D01*
X99939Y125842D01*
X100064Y125718D01*
X100089Y125668D01*
X100213Y125493D01*
X100288Y125418D01*
X100313Y125369D01*
X100450Y125157D01*
X100500Y125132D01*
X100562Y125070D01*
X100687Y124845D01*
X101036Y124496D01*
X101061Y124446D01*
X101186Y124272D01*
X101260Y124197D01*
X101360Y124023D01*
X101559Y123823D01*
X101584Y123773D01*
X101672Y123711D01*
X101759Y123624D01*
X101784Y123574D01*
X101908Y123399D01*
X101958Y123350D01*
X101983Y123300D01*
X102158Y123075D01*
X102232Y123001D01*
X102332Y122826D01*
X102419Y122764D01*
X102507Y122677D01*
X102531Y122627D01*
X102619Y122515D01*
X102669Y122490D01*
X102706Y122452D01*
X102831Y122228D01*
X102955Y122103D01*
X103055Y121929D01*
X103404Y121580D01*
X103429Y121480D01*
X103366Y121393D01*
X103317Y121368D01*
X103229Y121281D01*
X103130Y121106D01*
X103005Y121006D01*
X102980Y120957D01*
X102893Y120870D01*
X102843Y120844D01*
X102644Y120545D01*
X102556Y120458D01*
X102457Y120284D01*
X102282Y120109D01*
X102183Y119935D01*
X102083Y119835D01*
X102058Y119785D01*
X101921Y119648D01*
X101871Y119623D01*
X101834Y119586D01*
X101734Y119411D01*
X101609Y119287D01*
X101485Y119062D01*
X101422Y119000D01*
X101372Y118975D01*
X101198Y118701D01*
X101086Y118589D01*
X101061Y118539D01*
X100999Y118477D01*
X100949Y118452D01*
X100861Y118364D01*
X100762Y118190D01*
X100637Y118065D01*
X100537Y117891D01*
X100139Y117492D01*
X100039Y117317D01*
X99939Y117218D01*
X99914Y117168D01*
X99790Y116994D01*
X99740Y116944D01*
X99715Y116894D01*
X99665Y116844D01*
X99565Y116670D01*
X99503Y116607D01*
X99453Y116582D01*
X99391Y116520D01*
X99366Y116470D01*
X99166Y116271D01*
X99067Y116096D01*
X98967Y115997D01*
X98942Y115947D01*
X98818Y115772D01*
X98493Y115448D01*
X98419Y115249D01*
X98307Y115136D01*
X98257Y115112D01*
X98120Y114900D01*
X97970Y114750D01*
X97870Y114576D01*
X97521Y114227D01*
X97422Y114052D01*
X97247Y113878D01*
X97148Y113703D01*
X96998Y113554D01*
X96898Y113379D01*
X96848Y113329D01*
X96824Y113279D01*
X96761Y113217D01*
X96711Y113192D01*
X96599Y113080D01*
X96574Y113030D01*
X96475Y112856D01*
X96387Y112769D01*
X96350Y112756D01*
X96325Y112706D01*
X96275Y112656D01*
X96250Y112582D01*
X96138Y112444D01*
X95851Y112158D01*
X95826Y112108D01*
X95702Y111934D01*
X95627Y111859D01*
X95602Y111809D01*
X95478Y111634D01*
X95378Y111535D01*
X95353Y111485D01*
X95241Y111348D01*
X95104Y111236D01*
X94979Y111061D01*
X94904Y110986D01*
X94804Y110812D01*
X94705Y110712D01*
X94680Y110662D01*
X94580Y110513D01*
X94555Y110463D01*
X94468Y110376D01*
X94418Y110351D01*
X94331Y110264D01*
X94231Y110089D01*
X94181Y110039D01*
X94156Y109989D01*
X93932Y109765D01*
X93832Y109591D01*
X93708Y109466D01*
X93583Y109242D01*
X93546Y109204D01*
X93496Y109179D01*
X93359Y109042D01*
X93334Y108992D01*
X93247Y108930D01*
X93209Y108893D01*
X93110Y108718D01*
X93035Y108643D01*
X93010Y108594D01*
X92960Y108544D01*
X92885Y108419D01*
X92773Y108282D01*
X92736Y108244D01*
X92636Y108070D01*
X92524Y107958D01*
X92486Y107945D01*
X92462Y107895D01*
X92237Y107671D01*
X92137Y107497D01*
X92013Y107372D01*
X91913Y107198D01*
X91813Y107098D01*
X91788Y107048D01*
X91689Y106874D01*
X91514Y106699D01*
X91489Y106649D01*
X91452Y106587D01*
X91402Y106562D01*
X91352Y106512D01*
X91302Y106487D01*
X91265Y106450D01*
X91165Y106275D01*
X91041Y106151D01*
X91016Y106101D01*
X90953Y106039D01*
X90904Y106014D01*
X90816Y105926D01*
X90717Y105752D01*
X90592Y105627D01*
X90492Y105453D01*
X90318Y105278D01*
X90218Y105104D01*
X90118Y105004D01*
X90093Y104954D01*
X90044Y104904D01*
X90031Y104867D01*
X89981Y104842D01*
X89931Y104792D01*
X89894Y104780D01*
X89869Y104730D01*
X89732Y104518D01*
X89682Y104493D01*
X89570Y104306D01*
X89545Y104256D01*
X89346Y104057D01*
X89246Y103883D01*
X89146Y103783D01*
X89121Y103733D01*
X89009Y103621D01*
X88959Y103596D01*
X88897Y103533D01*
X88797Y103359D01*
X88673Y103234D01*
X88561Y103023D01*
X88511Y102998D01*
X88374Y102885D01*
X88324Y102761D01*
X88349Y102661D01*
X88411Y102599D01*
X88511Y102574D01*
X109511Y102586D01*
X109610Y102512D01*
X109635Y102412D01*
X109660Y83144D01*
X109835Y82920D01*
X113000Y79754D01*
X113100Y79580D01*
X113162Y79517D01*
X113212Y79493D01*
X113324Y79380D01*
X113349Y79331D01*
X113387Y79293D01*
X113437Y79268D01*
X113549Y79156D01*
X113574Y79106D01*
X113636Y79044D01*
X113686Y79019D01*
X113798Y78907D01*
X113823Y78857D01*
X113860Y78820D01*
X113910Y78795D01*
X114135Y78620D01*
X114197Y78558D01*
X114222Y78508D01*
X114346Y78334D01*
X114546Y78209D01*
X114670Y78084D01*
X114695Y78034D01*
X114820Y77860D01*
X115019Y77735D01*
X115169Y77586D01*
X115269Y77411D01*
X115306Y77374D01*
X115356Y77349D01*
X115530Y77224D01*
X115618Y77137D01*
X115642Y77087D01*
X115780Y76900D01*
X115829Y76875D01*
X116004Y76751D01*
X116116Y76638D01*
X116216Y76464D01*
X116253Y76427D01*
X116303Y76402D01*
X116415Y76290D01*
X116440Y76240D01*
X116502Y76177D01*
X116552Y76153D01*
X116664Y76040D01*
X116689Y75990D01*
X116752Y75928D01*
X116802Y75903D01*
X116914Y75791D01*
X116939Y75741D01*
X117450Y75230D01*
X117500Y75205D01*
X117612Y75093D01*
X117637Y75043D01*
X117699Y74981D01*
X117749Y74956D01*
X117861Y74844D01*
X117886Y74794D01*
X117948Y74732D01*
X117998Y74707D01*
X118110Y74595D01*
X118135Y74545D01*
X118173Y74507D01*
X118222Y74482D01*
X118335Y74370D01*
X118359Y74320D01*
X118422Y74258D01*
X118472Y74233D01*
X118584Y74121D01*
X118609Y74071D01*
X118646Y74034D01*
X118696Y74009D01*
X118808Y73897D01*
X118833Y73847D01*
X118895Y73784D01*
X118945Y73760D01*
X119057Y73647D01*
X119082Y73598D01*
X119145Y73535D01*
X119194Y73510D01*
X119307Y73398D01*
X119332Y73348D01*
X119369Y73311D01*
X119419Y73286D01*
X119531Y73174D01*
X119556Y73124D01*
X119618Y73062D01*
X119668Y73037D01*
X119780Y72925D01*
X119805Y72875D01*
X119843Y72837D01*
X119892Y72812D01*
X120005Y72700D01*
X120029Y72650D01*
X120877Y71803D01*
X120902Y71753D01*
X121014Y71616D01*
X121188Y71516D01*
X121251Y71429D01*
X121538Y71142D01*
X121587Y71118D01*
X121712Y70918D01*
X121886Y70793D01*
X122011Y70669D01*
X122048Y70656D01*
X122073Y70606D01*
X122211Y70420D01*
X122260Y70395D01*
X122397Y70258D01*
X122422Y70208D01*
X122460Y70170D01*
X122634Y70071D01*
X122759Y69921D01*
X122958Y69722D01*
X123008Y69697D01*
X123145Y69485D01*
X123183Y69447D01*
X123232Y69422D01*
X123345Y69310D01*
X123370Y69261D01*
X123407Y69223D01*
X123457Y69198D01*
X123594Y69061D01*
X123619Y69011D01*
X123706Y68924D01*
X123756Y68899D01*
X123881Y68749D01*
X123930Y68700D01*
X123980Y68675D01*
X124018Y68637D01*
X124043Y68587D01*
X124180Y68450D01*
X124229Y68425D01*
X124267Y68388D01*
X124292Y68338D01*
X124404Y68226D01*
X124454Y68201D01*
X124491Y68164D01*
X124516Y68114D01*
X124653Y67977D01*
X124703Y67952D01*
X124740Y67915D01*
X124765Y67865D01*
X124878Y67752D01*
X124927Y67727D01*
X124990Y67665D01*
X125015Y67615D01*
X125127Y67503D01*
X125177Y67478D01*
X125214Y67441D01*
X125239Y67391D01*
X125376Y67254D01*
X125426Y67229D01*
X125463Y67192D01*
X125488Y67142D01*
X125600Y67030D01*
X125650Y67005D01*
X125688Y66967D01*
X125713Y66917D01*
X125850Y66780D01*
X125899Y66755D01*
X125937Y66718D01*
X125962Y66668D01*
X126099Y66531D01*
X126149Y66506D01*
X126186Y66469D01*
X126211Y66419D01*
X126323Y66307D01*
X126373Y66282D01*
X126410Y66244D01*
X126435Y66195D01*
X126547Y66082D01*
X164298Y66070D01*
X164398Y66095D01*
X164547Y66220D01*
X166367Y68039D01*
X166392Y68089D01*
X166504Y68226D01*
X166554Y68251D01*
X166691Y68363D01*
X169956Y71628D01*
X169981Y71678D01*
X170093Y71815D01*
X170143Y71840D01*
X170280Y71953D01*
X173545Y75218D01*
X173570Y75268D01*
X173682Y75405D01*
X173732Y75430D01*
X173869Y75542D01*
X177135Y78807D01*
X177160Y78857D01*
X177272Y78994D01*
X177321Y79019D01*
X177459Y79131D01*
X180724Y82396D01*
X180749Y82446D01*
X180861Y82583D01*
X180911Y82608D01*
X181048Y82720D01*
X181185Y82858D01*
X181235Y82882D01*
X181322Y83045D01*
X181372Y83219D01*
X181384Y102050D01*
X181335Y102175D01*
X181297Y102287D01*
X181322Y102437D01*
X181384Y102499D01*
X181509Y102549D01*
X181684Y102574D01*
X202547Y102549D01*
X202596Y102524D01*
X202684Y102586D01*
X202659Y102686D01*
X202484Y103010D01*
X202310Y103185D01*
X202210Y103359D01*
X201861Y103708D01*
X201761Y103883D01*
X201562Y104082D01*
X201549Y104119D01*
X201500Y104144D01*
X201362Y104281D01*
X201263Y104456D01*
X201163Y104556D01*
X201138Y104605D01*
X201014Y104780D01*
X200889Y104904D01*
X200789Y105079D01*
X200702Y105141D01*
X200615Y105229D01*
X200590Y105278D01*
X200503Y105391D01*
X200453Y105415D01*
X200340Y105602D01*
X200316Y105652D01*
X200166Y105802D01*
X200066Y105976D01*
X200004Y106039D01*
X199967Y106051D01*
X199942Y106101D01*
X199817Y106275D01*
X199780Y106313D01*
X199730Y106338D01*
X199692Y106375D01*
X199667Y106425D01*
X199555Y106562D01*
X199443Y106674D01*
X199319Y106898D01*
X199219Y106998D01*
X199194Y107048D01*
X199082Y107185D01*
X198995Y107272D01*
X198970Y107322D01*
X198857Y107484D01*
X198808Y107509D01*
X198720Y107596D01*
X198696Y107646D01*
X198583Y107783D01*
X198471Y107895D01*
X198371Y108070D01*
X198272Y108170D01*
X198247Y108220D01*
X198122Y108394D01*
X198085Y108432D01*
X198035Y108456D01*
X197973Y108519D01*
X197948Y108569D01*
X197823Y108693D01*
X197798Y108743D01*
X197661Y108955D01*
X197611Y108980D01*
X197549Y109042D01*
X197424Y109267D01*
X197300Y109391D01*
X197200Y109566D01*
X197162Y109603D01*
X197113Y109628D01*
X196976Y109765D01*
X196951Y109815D01*
X196826Y109939D01*
X196726Y110114D01*
X196577Y110264D01*
X196477Y110438D01*
X196128Y110787D01*
X196103Y110837D01*
X195966Y111049D01*
X195929Y111061D01*
X195904Y111111D01*
X195804Y111261D01*
X195779Y111310D01*
X195717Y111373D01*
X195667Y111398D01*
X195492Y111672D01*
X195156Y112008D01*
X195056Y112183D01*
X194994Y112245D01*
X194944Y112270D01*
X194882Y112382D01*
X194807Y112507D01*
X194632Y112681D01*
X194608Y112731D01*
X194570Y112769D01*
X194520Y112794D01*
X194433Y112881D01*
X194333Y113055D01*
X194221Y113192D01*
X194184Y113230D01*
X194159Y113279D01*
X194047Y113417D01*
X193960Y113504D01*
X193860Y113678D01*
X193822Y113716D01*
X193773Y113741D01*
X193685Y113828D01*
X193660Y113878D01*
X193548Y114015D01*
X193461Y114102D01*
X193361Y114277D01*
X193262Y114376D01*
X193237Y114426D01*
X193112Y114601D01*
X193037Y114675D01*
X193012Y114725D01*
X192875Y114937D01*
X192825Y114962D01*
X192763Y115024D01*
X192738Y115074D01*
X192626Y115186D01*
X192576Y115211D01*
X192514Y115274D01*
X192389Y115498D01*
X192265Y115623D01*
X192165Y115797D01*
X192065Y115897D01*
X192040Y115947D01*
X191916Y116121D01*
X191542Y116495D01*
X191442Y116670D01*
X191342Y116769D01*
X191317Y116819D01*
X191193Y116994D01*
X191131Y117056D01*
X191081Y117081D01*
X191043Y117118D01*
X191018Y117168D01*
X190968Y117218D01*
X190944Y117268D01*
X190844Y117367D01*
X190744Y117542D01*
X190707Y117579D01*
X190657Y117604D01*
X190620Y117642D01*
X190595Y117691D01*
X190495Y117866D01*
X190370Y117991D01*
X190345Y118040D01*
X190221Y118215D01*
X189897Y118539D01*
X189797Y118713D01*
X189647Y118863D01*
X189622Y118913D01*
X189460Y119150D01*
X189373Y119237D01*
X189273Y119411D01*
X189236Y119449D01*
X189186Y119474D01*
X189149Y119511D01*
X189124Y119561D01*
X188925Y119760D01*
X188825Y119935D01*
X188675Y120084D01*
X188650Y120134D01*
X188526Y120309D01*
X188276Y120558D01*
X188251Y120608D01*
X188127Y120782D01*
X187952Y120957D01*
X187878Y121081D01*
X187790Y121169D01*
X187753Y121181D01*
X187728Y121231D01*
X187628Y121380D01*
X187603Y121480D01*
X187628Y121580D01*
X187728Y121754D01*
X187840Y121891D01*
X188127Y122178D01*
X188152Y122228D01*
X188276Y122402D01*
X188351Y122477D01*
X188376Y122527D01*
X188476Y122702D01*
X188538Y122764D01*
X188588Y122789D01*
X188688Y122938D01*
X188900Y123150D01*
X188974Y123275D01*
X189099Y123399D01*
X189124Y123449D01*
X189249Y123624D01*
X189348Y123723D01*
X189448Y123898D01*
X189573Y124023D01*
X189597Y124072D01*
X189710Y124209D01*
X189822Y124297D01*
X189847Y124347D01*
X189971Y124521D01*
X190071Y124621D01*
X190096Y124671D01*
X190208Y124808D01*
X190246Y124845D01*
X190271Y124895D01*
X190432Y125132D01*
X190545Y125244D01*
X190570Y125294D01*
X190657Y125406D01*
X190707Y125431D01*
X190794Y125493D01*
X190819Y125543D01*
X190944Y125718D01*
X191018Y125792D01*
X191118Y125967D01*
X191467Y126316D01*
X191492Y126366D01*
X191592Y126540D01*
X191716Y126640D01*
X191841Y126864D01*
X191990Y127014D01*
X192090Y127188D01*
X192215Y127313D01*
X192314Y127487D01*
X192402Y127575D01*
X192451Y127599D01*
X192514Y127687D01*
X192713Y127886D01*
X192813Y128061D01*
X192913Y128160D01*
X192938Y128210D01*
X193062Y128385D01*
X193361Y128684D01*
X193386Y128734D01*
X193548Y128970D01*
X193636Y129033D01*
X193660Y129082D01*
X193760Y129257D01*
X194134Y129631D01*
X194234Y129805D01*
X194358Y129930D01*
X194458Y130105D01*
X194707Y130354D01*
X194782Y130478D01*
X194944Y130690D01*
X194994Y130715D01*
X195056Y130778D01*
X195081Y130827D01*
X195206Y131002D01*
X195281Y131077D01*
X195306Y131126D01*
X195405Y131301D01*
X195580Y131475D01*
X195605Y131525D01*
X195667Y131613D01*
X195717Y131637D01*
X195829Y131750D01*
X195916Y131912D01*
X195966Y131937D01*
X196053Y132024D01*
X196153Y132198D01*
X196253Y132298D01*
X196278Y132348D01*
X196377Y132522D01*
X196415Y132560D01*
X196465Y132585D01*
X196602Y132722D01*
X196627Y132772D01*
X196664Y132809D01*
X196714Y132834D01*
X196751Y132871D01*
X196776Y132921D01*
X196901Y133096D01*
X196951Y133146D01*
X196976Y133195D01*
X197100Y133370D01*
X197125Y133420D01*
X197474Y133769D01*
X197574Y133943D01*
X197723Y134093D01*
X197748Y134143D01*
X197873Y134317D01*
X197973Y134417D01*
X197997Y134466D01*
X198234Y134778D01*
X198284Y134803D01*
X198396Y134915D01*
X198421Y134965D01*
X198521Y135140D01*
X198583Y135202D01*
X198633Y135227D01*
X198671Y135264D01*
X198795Y135489D01*
X198920Y135613D01*
X199020Y135788D01*
X199368Y136137D01*
X199393Y136186D01*
X199518Y136361D01*
X199643Y136486D01*
X199742Y136660D01*
X199917Y136834D01*
X199942Y136884D01*
X200029Y136947D01*
X200091Y137009D01*
X200191Y137183D01*
X200291Y137283D01*
X200316Y137333D01*
X200478Y137570D01*
X200615Y137707D01*
X200714Y137881D01*
X201063Y138230D01*
X201163Y138405D01*
X201288Y138529D01*
X201412Y138754D01*
X201500Y138816D01*
X201637Y138953D01*
X201662Y139003D01*
X201749Y139065D01*
X201786Y139103D01*
X201886Y139277D01*
X201961Y139352D01*
X201986Y139402D01*
X202036Y139452D01*
X202135Y139626D01*
X202260Y139751D01*
X202360Y139925D01*
X202447Y140013D01*
X202497Y140037D01*
X202559Y140100D01*
X202584Y140150D01*
X202684Y140374D01*
X202621Y140436D01*
X202522Y140461D01*
X202272Y140436D01*
X202197Y140411D01*
X202098Y140386D01*
X201699Y140411D01*
X181621Y140399D01*
X181521Y140424D01*
X181434Y140486D01*
X181397Y140524D01*
X181372Y140623D01*
X181360Y146568D01*
X181397Y146655D01*
X181534Y146718D01*
X181783Y146742D01*
X181858Y146718D01*
X188264Y146742D01*
X188376Y146830D01*
X188401Y146929D01*
X188426Y147303D01*
X188401Y147378D01*
X188414Y150432D01*
X188389Y150581D01*
X188376Y150743D01*
X188401Y150818D01*
X188426Y151067D01*
X188401Y151541D01*
X188376Y151615D01*
X188414Y151852D01*
X188426Y152363D01*
X188401Y152438D01*
X188376Y152612D01*
X188401Y152787D01*
X188426Y152887D01*
X188401Y153435D01*
X188376Y153510D01*
X188401Y153759D01*
X188426Y153834D01*
Y154008D01*
Y154033D01*
X188401Y154582D01*
X188414Y157610D01*
X188389Y157760D01*
X188376Y157922D01*
X188401Y157997D01*
X188426Y158246D01*
X188401Y158719D01*
X188376Y158794D01*
X188414Y159031D01*
X188426Y159542D01*
X188401Y159617D01*
X188376Y159791D01*
X188401Y159966D01*
X188426Y160065D01*
X188401Y160614D01*
X188376Y160688D01*
X188401Y160938D01*
X188426Y161013D01*
X188401Y162159D01*
X188414Y165287D01*
X188389Y165412D01*
X188376Y165599D01*
X188401Y165674D01*
X188426Y165848D01*
X188401Y166372D01*
X188376Y166446D01*
X188414Y166683D01*
X188426Y167194D01*
X188401Y167269D01*
X188376Y167444D01*
X188401Y167618D01*
X188426Y167718D01*
X188401Y168291D01*
X188376Y168366D01*
X188414Y168627D01*
X188426Y168839D01*
X188401Y168914D01*
X188414Y170023D01*
X188401Y170285D01*
X188426Y170360D01*
X188401Y170634D01*
X188339Y170696D01*
X188164Y170721D01*
X187990Y170696D01*
X187379Y170709D01*
X187229Y170684D01*
X186968Y170671D01*
X186893Y170696D01*
X186756Y170709D01*
X186519Y170696D01*
X186444Y170721D01*
X186370Y170696D01*
X186120Y170671D01*
X185859Y170709D01*
X185796Y170721D01*
X185721Y170696D01*
X185485Y170709D01*
X185148Y170671D01*
X184812Y170709D01*
X180313Y170696D01*
X180238Y170721D01*
X180138Y170696D01*
X179889Y170671D01*
X179627Y170709D01*
X179590Y170721D01*
X179515Y170696D01*
X179253Y170709D01*
X179104Y170684D01*
X178842Y170671D01*
X178767Y170696D01*
X178605Y170709D01*
X178368Y170696D01*
X178319Y170721D01*
X178244Y170696D01*
X177920Y170671D01*
X177820Y170696D01*
X177633Y170709D01*
X173134Y170696D01*
X173059Y170721D01*
X172959Y170696D01*
X172710Y170671D01*
X172449Y170709D01*
X172411Y170721D01*
X172336Y170696D01*
X172075Y170709D01*
X171925Y170684D01*
X171663Y170671D01*
X171589Y170696D01*
X171427Y170709D01*
X171190Y170696D01*
X171140Y170721D01*
X171065Y170696D01*
X170741Y170671D01*
X170641Y170696D01*
X170455Y170709D01*
X165955Y170696D01*
X165881Y170721D01*
X165781Y170696D01*
X165532Y170671D01*
X165270Y170709D01*
X165233Y170721D01*
X165158Y170696D01*
X164896Y170709D01*
X164746Y170684D01*
X164485Y170671D01*
X164410Y170696D01*
X164248Y170709D01*
X164011Y170696D01*
X163961Y170721D01*
X163887Y170696D01*
X163563Y170671D01*
X163463Y170696D01*
X163276Y170709D01*
X158777Y170696D01*
X158702Y170721D01*
X158602Y170696D01*
X158353Y170671D01*
X158091Y170709D01*
X158054Y170721D01*
X157979Y170696D01*
X157717Y170709D01*
X157568Y170684D01*
X157306Y170671D01*
X157231Y170696D01*
X157069Y170709D01*
X156833Y170696D01*
X156783Y170721D01*
X156708Y170696D01*
X156384Y170671D01*
X156284Y170696D01*
X156097Y170709D01*
X153929Y170684D01*
X153854Y170634D01*
X153829Y170534D01*
X153804Y147229D01*
X153754Y147104D01*
X153779Y146905D01*
X153916Y146767D01*
X154115Y146718D01*
X155250Y146730D01*
X155374Y146705D01*
X155499Y146630D01*
X155524Y146456D01*
X155499Y146381D01*
X155474Y140524D01*
X155387Y140436D01*
X155187Y140386D01*
X154863Y140411D01*
X135658Y140399D01*
X135571Y140461D01*
X135434Y140598D01*
X135409Y140698D01*
X135434Y140897D01*
X135484Y141022D01*
X135508Y141271D01*
X135484Y141346D01*
X135508Y141521D01*
X135434Y141795D01*
X135459Y141969D01*
X135484Y142044D01*
X135508Y142144D01*
X135496Y142356D01*
X135508Y142518D01*
X135484Y142592D01*
X135434Y142767D01*
X135459Y142916D01*
X135484Y142991D01*
X135508Y143091D01*
X135484Y143490D01*
X135496Y146319D01*
X135484Y146605D01*
X135546Y146693D01*
X135720Y146742D01*
X135895Y146718D01*
X137091Y146742D01*
X137154Y146805D01*
X137178Y146905D01*
X137166Y147191D01*
X137178Y170160D01*
X137154Y170235D01*
X137178Y170335D01*
X137154Y170584D01*
X137091Y170646D01*
X136892Y170696D01*
X136181Y170709D01*
X136032Y170684D01*
X135770Y170671D01*
X135695Y170696D01*
X135533Y170709D01*
X135296Y170696D01*
X135247Y170721D01*
X135172Y170696D01*
X134848Y170671D01*
X134748Y170696D01*
X134561Y170709D01*
X130062Y170696D01*
X129987Y170721D01*
X129888Y170696D01*
X129638Y170671D01*
X129377Y170709D01*
X129339Y170721D01*
X129264Y170696D01*
X129003Y170709D01*
X128853Y170684D01*
X128591Y170671D01*
X128517Y170696D01*
X128355Y170709D01*
X128118Y170696D01*
X128068Y170721D01*
X127993Y170696D01*
X127669Y170671D01*
X127570Y170696D01*
X127382Y170709D01*
X122883Y170696D01*
X122809Y170721D01*
X122709Y170696D01*
X122460Y170671D01*
X122198Y170709D01*
X122161Y170721D01*
X122086Y170696D01*
X121824Y170709D01*
X121674Y170684D01*
X121413Y170671D01*
X121338Y170696D01*
X121176Y170709D01*
X120939Y170696D01*
X120889Y170721D01*
X120815Y170696D01*
X120491Y170671D01*
X120391Y170696D01*
X120204Y170709D01*
X115705Y170696D01*
X115630Y170721D01*
X115530Y170696D01*
X115281Y170671D01*
X115019Y170709D01*
X114982Y170721D01*
X114907Y170696D01*
X114646Y170709D01*
X114496Y170684D01*
X114234Y170671D01*
X114159Y170696D01*
X113997Y170709D01*
X113761Y170696D01*
X113711Y170721D01*
X113636Y170696D01*
X113312Y170671D01*
X113212Y170696D01*
X113025Y170709D01*
X108526Y170696D01*
X108451Y170721D01*
X108352Y170696D01*
X108102Y170671D01*
X107841Y170709D01*
X107803Y170721D01*
X107729Y170696D01*
X107467Y170709D01*
X107317Y170684D01*
X107056Y170671D01*
X106981Y170696D01*
X106819Y170709D01*
X106582Y170696D01*
X106532Y170721D01*
X106457Y170696D01*
X106133Y170671D01*
X106034Y170696D01*
X105847Y170709D01*
X102793Y170696D01*
X102768Y170721D01*
X102694Y170696D01*
D02*
G37*
G36*
X150329Y7030D02*
X148317D01*
Y9054D01*
X150329D01*
Y7030D01*
D02*
G37*
G36*
X45389Y-1846D02*
X43612D01*
X39069Y6363D01*
X41390D01*
X44501Y672D01*
X47587Y6363D01*
X49908D01*
X45389Y-1846D01*
D02*
G37*
G36*
X94520Y142D02*
X94508Y-56D01*
X94483Y-241D01*
X94434Y-402D01*
X94384Y-562D01*
X94347Y-685D01*
X94298Y-772D01*
X94273Y-834D01*
X94261Y-858D01*
X94150Y-1019D01*
X94026Y-1167D01*
X93915Y-1290D01*
X93792Y-1389D01*
X93693Y-1475D01*
X93607Y-1537D01*
X93557Y-1574D01*
X93533Y-1586D01*
X93348Y-1673D01*
X93175Y-1735D01*
X93002Y-1784D01*
X92841Y-1809D01*
X92706Y-1833D01*
X92607Y-1846D01*
X88188D01*
Y-2722D01*
X88200Y-2772D01*
X88212Y-2784D01*
X88249Y-2809D01*
X93187D01*
X93175Y-4845D01*
X88175Y-4833D01*
X87978Y-4821D01*
X87780Y-4796D01*
X87607Y-4747D01*
X87459Y-4697D01*
X87336Y-4648D01*
X87237Y-4599D01*
X87188Y-4574D01*
X87163Y-4561D01*
X87002Y-4450D01*
X86854Y-4339D01*
X86731Y-4216D01*
X86632Y-4105D01*
X86546Y-4006D01*
X86484Y-3920D01*
X86447Y-3870D01*
X86435Y-3846D01*
X86348Y-3673D01*
X86274Y-3500D01*
X86237Y-3327D01*
X86200Y-3167D01*
X86188Y-3031D01*
X86175Y-2932D01*
Y-2858D01*
Y-2833D01*
Y6339D01*
X88188D01*
Y240D01*
X88200Y191D01*
X88212Y179D01*
X88249Y166D01*
X92422D01*
X92471Y179D01*
X92496D01*
X92508Y216D01*
Y240D01*
Y6339D01*
X94520D01*
Y142D01*
D02*
G37*
G36*
X59314D02*
X59302Y-56D01*
X59277Y-241D01*
X59228Y-402D01*
X59178Y-550D01*
X59129Y-673D01*
X59079Y-772D01*
X59055Y-821D01*
X59043Y-846D01*
X58931Y-1006D01*
X58820Y-1155D01*
X58697Y-1278D01*
X58586Y-1377D01*
X58487Y-1463D01*
X58401Y-1525D01*
X58351Y-1562D01*
X58327Y-1574D01*
X58154Y-1661D01*
X57981Y-1735D01*
X57808Y-1784D01*
X57648Y-1809D01*
X57512Y-1833D01*
X57413Y-1846D01*
X52969D01*
X52772Y-1833D01*
X52574Y-1809D01*
X52414Y-1759D01*
X52265Y-1710D01*
X52142Y-1661D01*
X52043Y-1611D01*
X51994Y-1586D01*
X51969Y-1574D01*
X51809Y-1463D01*
X51660Y-1340D01*
X51537Y-1229D01*
X51438Y-1105D01*
X51352Y-1006D01*
X51290Y-920D01*
X51253Y-871D01*
X51241Y-846D01*
X51142Y-673D01*
X51080Y-500D01*
X51031Y-327D01*
X51006Y-179D01*
X50994Y-56D01*
X50982Y55D01*
Y117D01*
Y142D01*
X50957Y6363D01*
X52994D01*
Y240D01*
X53006Y191D01*
X53018Y179D01*
X53031Y166D01*
X57215D01*
X57265Y179D01*
X57277D01*
X57302Y216D01*
Y240D01*
Y6363D01*
X59314D01*
Y142D01*
D02*
G37*
G36*
X181610Y-1846D02*
X173463D01*
X173253Y-1833D01*
X173068Y-1809D01*
X172882Y-1759D01*
X172734Y-1710D01*
X172611Y-1661D01*
X172512Y-1611D01*
X172463Y-1586D01*
X172438Y-1574D01*
X172265Y-1463D01*
X172117Y-1340D01*
X171994Y-1229D01*
X171883Y-1105D01*
X171796Y-1006D01*
X171735Y-920D01*
X171697Y-871D01*
X171685Y-846D01*
X171586Y-661D01*
X171525Y-488D01*
X171475Y-315D01*
X171438Y-155D01*
X171413Y-19D01*
X171401Y92D01*
Y166D01*
Y191D01*
Y6314D01*
X171413Y6524D01*
X171451Y6709D01*
X171488Y6894D01*
X171537Y7042D01*
X171599Y7166D01*
X171636Y7264D01*
X171673Y7314D01*
X171685Y7339D01*
X171796Y7499D01*
X171920Y7647D01*
X172043Y7771D01*
X172167Y7869D01*
X172278Y7956D01*
X172364Y8017D01*
X172413Y8054D01*
X172438Y8067D01*
X172611Y8166D01*
X172796Y8227D01*
X172957Y8277D01*
X173117Y8314D01*
X173253Y8338D01*
X173364Y8351D01*
X181610D01*
Y-1846D01*
D02*
G37*
G36*
X168081Y6351D02*
X168266Y6326D01*
X168438Y6277D01*
X168587Y6227D01*
X168710Y6178D01*
X168797Y6129D01*
X168858Y6104D01*
X168883Y6092D01*
X169043Y5981D01*
X169179Y5870D01*
X169303Y5746D01*
X169414Y5623D01*
X169500Y5524D01*
X169562Y5437D01*
X169599Y5388D01*
X169611Y5363D01*
X169698Y5191D01*
X169772Y5018D01*
X169821Y4845D01*
X169846Y4697D01*
X169870Y4561D01*
X169883Y4450D01*
Y4388D01*
Y4376D01*
Y4363D01*
Y142D01*
X169870Y-56D01*
X169846Y-241D01*
X169796Y-402D01*
X169747Y-550D01*
X169698Y-673D01*
X169648Y-772D01*
X169624Y-821D01*
X169611Y-846D01*
X169500Y-1006D01*
X169377Y-1155D01*
X169253Y-1278D01*
X169142Y-1377D01*
X169043Y-1463D01*
X168957Y-1525D01*
X168908Y-1562D01*
X168883Y-1574D01*
X168710Y-1661D01*
X168537Y-1735D01*
X168365Y-1784D01*
X168216Y-1809D01*
X168081Y-1833D01*
X167969Y-1846D01*
X161550D01*
X161538Y166D01*
X167784D01*
X167834Y179D01*
X167846D01*
X167871Y216D01*
Y240D01*
Y1240D01*
X161538Y1253D01*
X161550Y4363D01*
X161563Y4561D01*
X161587Y4746D01*
X161637Y4919D01*
X161674Y5067D01*
X161723Y5191D01*
X161772Y5289D01*
X161797Y5339D01*
X161810Y5363D01*
X161908Y5524D01*
X162032Y5672D01*
X162155Y5795D01*
X162266Y5907D01*
X162365Y5981D01*
X162451Y6042D01*
X162501Y6079D01*
X162526Y6092D01*
X162698Y6178D01*
X162883Y6252D01*
X163044Y6302D01*
X163204Y6326D01*
X163340Y6351D01*
X163451Y6363D01*
X167883D01*
X168081Y6351D01*
D02*
G37*
G36*
X158316D02*
X158501Y6326D01*
X158662Y6277D01*
X158810Y6227D01*
X158933Y6178D01*
X159032Y6129D01*
X159081Y6104D01*
X159106Y6092D01*
X159267Y5981D01*
X159415Y5870D01*
X159538Y5746D01*
X159637Y5623D01*
X159723Y5524D01*
X159785Y5437D01*
X159822Y5388D01*
X159834Y5363D01*
X159921Y5191D01*
X159995Y5018D01*
X160044Y4845D01*
X160069Y4697D01*
X160094Y4561D01*
X160106Y4450D01*
Y4388D01*
Y4376D01*
Y4363D01*
Y3252D01*
X160094Y3055D01*
X160069Y2870D01*
X160020Y2697D01*
X159970Y2549D01*
X159921Y2425D01*
X159872Y2339D01*
X159847Y2277D01*
X159834Y2253D01*
X159723Y2092D01*
X159600Y1944D01*
X159489Y1821D01*
X159365Y1722D01*
X159267Y1635D01*
X159180Y1574D01*
X159131Y1537D01*
X159106Y1524D01*
X158933Y1438D01*
X158760Y1364D01*
X158588Y1314D01*
X158440Y1277D01*
X158316Y1265D01*
X158205Y1253D01*
X158143Y1240D01*
X153847D01*
X153823Y1228D01*
X153810Y1216D01*
X153786Y1179D01*
Y1166D01*
Y240D01*
X153798Y191D01*
X153810Y179D01*
X153847Y166D01*
X158007D01*
X158057Y179D01*
X158082D01*
X158094Y216D01*
Y240D01*
Y512D01*
X160106D01*
Y142D01*
X160094Y-56D01*
X160069Y-241D01*
X160020Y-402D01*
X159970Y-550D01*
X159921Y-673D01*
X159872Y-772D01*
X159847Y-821D01*
X159834Y-846D01*
X159723Y-1006D01*
X159600Y-1155D01*
X159489Y-1278D01*
X159365Y-1377D01*
X159267Y-1463D01*
X159180Y-1525D01*
X159131Y-1562D01*
X159106Y-1574D01*
X158933Y-1661D01*
X158760Y-1735D01*
X158588Y-1784D01*
X158440Y-1809D01*
X158316Y-1833D01*
X158205Y-1846D01*
X153773D01*
X153563Y-1833D01*
X153378Y-1809D01*
X153205Y-1759D01*
X153057Y-1710D01*
X152934Y-1661D01*
X152835Y-1611D01*
X152786Y-1586D01*
X152761Y-1574D01*
X152601Y-1463D01*
X152465Y-1340D01*
X152329Y-1229D01*
X152230Y-1105D01*
X152144Y-1006D01*
X152082Y-920D01*
X152045Y-871D01*
X152033Y-846D01*
X151934Y-673D01*
X151872Y-500D01*
X151823Y-327D01*
X151786Y-179D01*
X151774Y-56D01*
X151761Y55D01*
Y117D01*
Y142D01*
Y1265D01*
X151774Y1462D01*
X151798Y1648D01*
X151835Y1821D01*
X151897Y1969D01*
X151946Y2092D01*
X151983Y2191D01*
X152021Y2240D01*
X152033Y2265D01*
X152144Y2425D01*
X152267Y2573D01*
X152391Y2697D01*
X152502Y2796D01*
X152601Y2882D01*
X152687Y2944D01*
X152736Y2981D01*
X152761Y2993D01*
X152934Y3080D01*
X153107Y3154D01*
X153280Y3203D01*
X153428Y3240D01*
X153576Y3265D01*
X153675Y3277D01*
X158057D01*
X158082Y3289D01*
X158094Y3339D01*
Y3351D01*
Y4265D01*
Y4302D01*
X158082Y4314D01*
Y4326D01*
X158032Y4351D01*
X153872D01*
X153823Y4339D01*
X153810Y4326D01*
X153798Y4314D01*
X153786Y4289D01*
Y4277D01*
Y4265D01*
Y4006D01*
X151749D01*
X151761Y4363D01*
X151774Y4561D01*
X151798Y4746D01*
X151835Y4919D01*
X151897Y5067D01*
X151946Y5191D01*
X151983Y5289D01*
X152021Y5339D01*
X152033Y5363D01*
X152144Y5524D01*
X152267Y5672D01*
X152391Y5795D01*
X152502Y5894D01*
X152601Y5981D01*
X152687Y6042D01*
X152736Y6079D01*
X152761Y6092D01*
X152934Y6178D01*
X153107Y6252D01*
X153280Y6302D01*
X153428Y6326D01*
X153576Y6351D01*
X153675Y6363D01*
X158119D01*
X158316Y6351D01*
D02*
G37*
G36*
X150329Y-1846D02*
X148317D01*
Y6363D01*
X150329D01*
Y-1846D01*
D02*
G37*
G36*
X137417D02*
X135393D01*
Y4265D01*
Y4302D01*
X135380Y4314D01*
X135368Y4326D01*
X135331Y4351D01*
X131171D01*
X131121Y4339D01*
X131109Y4326D01*
X131097Y4314D01*
X131084Y4289D01*
Y4277D01*
Y4265D01*
Y-1846D01*
X129060D01*
X129072Y4363D01*
X129085Y4561D01*
X129109Y4746D01*
X129146Y4919D01*
X129208Y5067D01*
X129257Y5191D01*
X129294Y5289D01*
X129332Y5339D01*
X129344Y5363D01*
X129455Y5524D01*
X129566Y5672D01*
X129690Y5795D01*
X129813Y5894D01*
X129912Y5981D01*
X129998Y6042D01*
X130047Y6079D01*
X130072Y6092D01*
X130245Y6178D01*
X130418Y6252D01*
X130591Y6302D01*
X130739Y6326D01*
X130875Y6351D01*
X130986Y6363D01*
X137417D01*
Y-1846D01*
D02*
G37*
G36*
X125789Y6351D02*
X125974Y6326D01*
X126147Y6277D01*
X126295Y6227D01*
X126418Y6178D01*
X126505Y6129D01*
X126566Y6104D01*
X126591Y6092D01*
X126751Y5981D01*
X126887Y5870D01*
X127011Y5746D01*
X127122Y5623D01*
X127208Y5524D01*
X127270Y5437D01*
X127307Y5388D01*
X127319Y5363D01*
X127406Y5191D01*
X127480Y5018D01*
X127529Y4845D01*
X127554Y4697D01*
X127579Y4561D01*
X127591Y4450D01*
Y4388D01*
Y4376D01*
Y4363D01*
Y142D01*
X127579Y-56D01*
X127554Y-241D01*
X127505Y-402D01*
X127455Y-550D01*
X127406Y-673D01*
X127356Y-772D01*
X127332Y-821D01*
X127319Y-846D01*
X127208Y-1006D01*
X127085Y-1155D01*
X126961Y-1278D01*
X126850Y-1377D01*
X126751Y-1463D01*
X126665Y-1525D01*
X126616Y-1562D01*
X126591Y-1574D01*
X126418Y-1661D01*
X126245Y-1735D01*
X126073Y-1784D01*
X125924Y-1809D01*
X125789Y-1833D01*
X125677Y-1846D01*
X119258D01*
X119246Y166D01*
X125492D01*
X125542Y179D01*
X125554D01*
X125579Y216D01*
Y240D01*
Y1240D01*
X119246Y1253D01*
X119258Y4363D01*
X119271Y4561D01*
X119296Y4746D01*
X119345Y4919D01*
X119382Y5067D01*
X119431Y5191D01*
X119481Y5289D01*
X119505Y5339D01*
X119518Y5363D01*
X119616Y5524D01*
X119740Y5672D01*
X119863Y5795D01*
X119974Y5907D01*
X120073Y5981D01*
X120160Y6042D01*
X120209Y6079D01*
X120234Y6092D01*
X120407Y6178D01*
X120592Y6252D01*
X120752Y6302D01*
X120913Y6326D01*
X121048Y6351D01*
X121159Y6363D01*
X125591D01*
X125789Y6351D01*
D02*
G37*
G36*
X111840Y6363D02*
X116160D01*
X116370Y6351D01*
X116555Y6326D01*
X116728Y6277D01*
X116888Y6227D01*
X117012Y6178D01*
X117098Y6129D01*
X117160Y6104D01*
X117185Y6092D01*
X117345Y5981D01*
X117481Y5870D01*
X117604Y5746D01*
X117703Y5623D01*
X117789Y5524D01*
X117851Y5437D01*
X117888Y5388D01*
X117901Y5363D01*
X117987Y5191D01*
X118061Y5018D01*
X118110Y4845D01*
X118135Y4697D01*
X118160Y4561D01*
X118172Y4450D01*
Y4388D01*
Y4376D01*
Y4363D01*
Y142D01*
X118160Y-56D01*
X118135Y-241D01*
X118086Y-402D01*
X118036Y-562D01*
X117987Y-685D01*
X117938Y-772D01*
X117913Y-834D01*
X117901Y-858D01*
X117789Y-1019D01*
X117678Y-1167D01*
X117555Y-1290D01*
X117444Y-1389D01*
X117345Y-1475D01*
X117259Y-1537D01*
X117209Y-1574D01*
X117185Y-1586D01*
X117012Y-1673D01*
X116827Y-1735D01*
X116654Y-1784D01*
X116506Y-1809D01*
X116357Y-1833D01*
X116259Y-1846D01*
X109827D01*
X109815Y9054D01*
X111840D01*
Y6363D01*
D02*
G37*
G36*
X103816Y-1846D02*
X97471D01*
X97273Y-1833D01*
X97088Y-1809D01*
X96915Y-1759D01*
X96767Y-1710D01*
X96643Y-1661D01*
X96545Y-1611D01*
X96495Y-1586D01*
X96471Y-1574D01*
X96310Y-1463D01*
X96162Y-1340D01*
X96039Y-1229D01*
X95940Y-1105D01*
X95854Y-1006D01*
X95792Y-920D01*
X95755Y-871D01*
X95742Y-846D01*
X95644Y-673D01*
X95582Y-500D01*
X95533Y-327D01*
X95496Y-179D01*
X95483Y-56D01*
X95471Y55D01*
Y117D01*
Y142D01*
Y4363D01*
X95483Y4561D01*
X95508Y4746D01*
X95545Y4919D01*
X95607Y5067D01*
X95656Y5191D01*
X95693Y5289D01*
X95730Y5339D01*
X95742Y5363D01*
X95854Y5524D01*
X95965Y5672D01*
X96088Y5795D01*
X96211Y5894D01*
X96310Y5981D01*
X96397Y6042D01*
X96446Y6079D01*
X96471Y6092D01*
X96643Y6178D01*
X96816Y6252D01*
X96989Y6302D01*
X97137Y6326D01*
X97273Y6351D01*
X97384Y6363D01*
X101791D01*
Y9054D01*
X103816D01*
Y-1846D01*
D02*
G37*
G36*
X72745Y290D02*
Y253D01*
Y240D01*
X72757Y216D01*
X72782Y203D01*
X78806D01*
X78818Y216D01*
X78843Y265D01*
Y278D01*
Y290D01*
Y1426D01*
X80880D01*
Y191D01*
X80867Y-19D01*
X80843Y-204D01*
X80793Y-389D01*
X80744Y-537D01*
X80695Y-673D01*
X80645Y-759D01*
X80620Y-821D01*
X80608Y-846D01*
X80497Y-1006D01*
X80374Y-1155D01*
X80250Y-1278D01*
X80127Y-1377D01*
X80028Y-1463D01*
X79942Y-1525D01*
X79892Y-1562D01*
X79868Y-1574D01*
X79695Y-1661D01*
X79510Y-1735D01*
X79337Y-1784D01*
X79188Y-1809D01*
X79040Y-1833D01*
X78942Y-1846D01*
X72720D01*
X72510Y-1833D01*
X72325Y-1809D01*
X72140Y-1759D01*
X71992Y-1710D01*
X71868Y-1661D01*
X71769Y-1611D01*
X71720Y-1586D01*
X71695Y-1574D01*
X71535Y-1463D01*
X71387Y-1340D01*
X71263Y-1229D01*
X71152Y-1105D01*
X71066Y-1006D01*
X71004Y-920D01*
X70967Y-871D01*
X70955Y-846D01*
X70856Y-661D01*
X70794Y-488D01*
X70745Y-315D01*
X70708Y-155D01*
X70683Y-19D01*
X70671Y92D01*
Y166D01*
Y191D01*
Y8351D01*
X72732D01*
X72745Y290D01*
D02*
G37*
G36*
X67350Y6351D02*
X67535Y6326D01*
X67708Y6277D01*
X67856Y6227D01*
X67980Y6178D01*
X68066Y6129D01*
X68128Y6104D01*
X68153Y6092D01*
X68313Y5981D01*
X68449Y5870D01*
X68572Y5746D01*
X68683Y5623D01*
X68770Y5524D01*
X68832Y5437D01*
X68869Y5388D01*
X68881Y5363D01*
X68967Y5191D01*
X69041Y5018D01*
X69091Y4845D01*
X69116Y4697D01*
X69140Y4561D01*
X69152Y4450D01*
Y4388D01*
Y4376D01*
Y4363D01*
Y142D01*
X69140Y-56D01*
X69116Y-241D01*
X69066Y-402D01*
X69017Y-550D01*
X68967Y-673D01*
X68918Y-772D01*
X68893Y-821D01*
X68881Y-846D01*
X68770Y-1006D01*
X68646Y-1155D01*
X68523Y-1278D01*
X68412Y-1377D01*
X68313Y-1463D01*
X68227Y-1525D01*
X68177Y-1562D01*
X68153Y-1574D01*
X67980Y-1661D01*
X67807Y-1735D01*
X67634Y-1784D01*
X67486Y-1809D01*
X67350Y-1833D01*
X67239Y-1846D01*
X62820D01*
X62610Y-1833D01*
X62425Y-1809D01*
X62252Y-1759D01*
X62104Y-1710D01*
X61980Y-1661D01*
X61882Y-1611D01*
X61832Y-1586D01*
X61808Y-1574D01*
X61647Y-1463D01*
X61511Y-1340D01*
X61388Y-1229D01*
X61277Y-1105D01*
X61203Y-1006D01*
X61141Y-920D01*
X61104Y-871D01*
X61092Y-846D01*
X60993Y-673D01*
X60931Y-500D01*
X60882Y-327D01*
X60845Y-179D01*
X60832Y-56D01*
X60820Y55D01*
Y117D01*
Y142D01*
Y4363D01*
X60832Y4561D01*
X60857Y4746D01*
X60907Y4919D01*
X60943Y5067D01*
X60993Y5191D01*
X61042Y5289D01*
X61067Y5339D01*
X61079Y5363D01*
X61178Y5524D01*
X61301Y5672D01*
X61425Y5795D01*
X61536Y5907D01*
X61635Y5981D01*
X61721Y6042D01*
X61771Y6079D01*
X61795Y6092D01*
X61968Y6178D01*
X62153Y6252D01*
X62314Y6302D01*
X62474Y6326D01*
X62610Y6351D01*
X62721Y6363D01*
X67153D01*
X67350Y6351D01*
D02*
G37*
G36*
X36489D02*
X36674Y6326D01*
X36847Y6277D01*
X36995Y6227D01*
X37119Y6178D01*
X37205Y6129D01*
X37267Y6104D01*
X37292Y6092D01*
X37452Y5981D01*
X37588Y5870D01*
X37711Y5746D01*
X37822Y5623D01*
X37909Y5524D01*
X37971Y5437D01*
X38008Y5388D01*
X38020Y5363D01*
X38106Y5191D01*
X38180Y5018D01*
X38230Y4845D01*
X38254Y4697D01*
X38279Y4561D01*
X38291Y4450D01*
Y4388D01*
Y4376D01*
Y4363D01*
Y142D01*
X38279Y-56D01*
X38254Y-241D01*
X38205Y-402D01*
X38156Y-550D01*
X38106Y-673D01*
X38057Y-772D01*
X38032Y-821D01*
X38020Y-846D01*
X37909Y-1006D01*
X37785Y-1155D01*
X37662Y-1278D01*
X37551Y-1377D01*
X37452Y-1463D01*
X37366Y-1525D01*
X37316Y-1562D01*
X37292Y-1574D01*
X37119Y-1661D01*
X36946Y-1735D01*
X36773Y-1784D01*
X36625Y-1809D01*
X36489Y-1833D01*
X36378Y-1846D01*
X29959D01*
X29947Y166D01*
X36193D01*
X36242Y179D01*
X36255D01*
X36279Y216D01*
Y240D01*
Y1240D01*
X29947Y1253D01*
X29959Y4363D01*
X29971Y4561D01*
X29996Y4746D01*
X30045Y4919D01*
X30082Y5067D01*
X30132Y5191D01*
X30181Y5289D01*
X30206Y5339D01*
X30218Y5363D01*
X30317Y5524D01*
X30440Y5672D01*
X30564Y5795D01*
X30675Y5907D01*
X30774Y5981D01*
X30860Y6042D01*
X30910Y6079D01*
X30934Y6092D01*
X31107Y6178D01*
X31292Y6252D01*
X31453Y6302D01*
X31613Y6326D01*
X31749Y6351D01*
X31860Y6363D01*
X36292D01*
X36489Y6351D01*
D02*
G37*
G36*
X26675D02*
X26861Y6326D01*
X27033Y6277D01*
X27182Y6227D01*
X27305Y6178D01*
X27391Y6129D01*
X27453Y6104D01*
X27478Y6092D01*
X27638Y5981D01*
X27774Y5870D01*
X27898Y5746D01*
X28009Y5623D01*
X28095Y5524D01*
X28157Y5437D01*
X28194Y5388D01*
X28206Y5363D01*
X28293Y5191D01*
X28367Y5018D01*
X28416Y4845D01*
X28441Y4697D01*
X28465Y4561D01*
X28478Y4450D01*
Y4388D01*
Y4376D01*
Y4363D01*
Y142D01*
X28465Y-56D01*
X28441Y-241D01*
X28391Y-402D01*
X28342Y-550D01*
X28293Y-673D01*
X28243Y-772D01*
X28219Y-821D01*
X28206Y-846D01*
X28095Y-1006D01*
X27972Y-1155D01*
X27848Y-1278D01*
X27737Y-1377D01*
X27638Y-1463D01*
X27552Y-1525D01*
X27503Y-1562D01*
X27478Y-1574D01*
X27305Y-1661D01*
X27132Y-1735D01*
X26959Y-1784D01*
X26811Y-1809D01*
X26675Y-1833D01*
X26564Y-1846D01*
X20145D01*
X20133Y166D01*
X26379D01*
X26428Y179D01*
X26441D01*
X26466Y216D01*
Y240D01*
Y1240D01*
X20133Y1253D01*
X20145Y4363D01*
X20158Y4561D01*
X20182Y4746D01*
X20232Y4919D01*
X20269Y5067D01*
X20318Y5191D01*
X20367Y5289D01*
X20392Y5339D01*
X20405Y5363D01*
X20503Y5524D01*
X20627Y5672D01*
X20750Y5795D01*
X20861Y5907D01*
X20960Y5981D01*
X21046Y6042D01*
X21096Y6079D01*
X21121Y6092D01*
X21293Y6178D01*
X21478Y6252D01*
X21639Y6302D01*
X21799Y6326D01*
X21935Y6351D01*
X22046Y6363D01*
X26478D01*
X26675Y6351D01*
D02*
G37*
G36*
X16837D02*
X17034Y6326D01*
X17207Y6277D01*
X17355Y6227D01*
X17479Y6178D01*
X17565Y6129D01*
X17627Y6104D01*
X17652Y6092D01*
X17812Y5981D01*
X17948Y5870D01*
X18071Y5746D01*
X18182Y5623D01*
X18269Y5524D01*
X18331Y5437D01*
X18368Y5388D01*
X18380Y5363D01*
X18466Y5191D01*
X18541Y5018D01*
X18590Y4845D01*
X18614Y4697D01*
X18639Y4561D01*
X18652Y4450D01*
Y4388D01*
Y4376D01*
Y4363D01*
Y-1846D01*
X16639D01*
Y4265D01*
Y4302D01*
X16627Y4314D01*
X16615Y4326D01*
X16578Y4351D01*
X12084D01*
Y6363D01*
X16639D01*
X16837Y6351D01*
D02*
G37*
G36*
X145453D02*
X145651Y6326D01*
X145824Y6277D01*
X145972Y6227D01*
X146095Y6178D01*
X146182Y6129D01*
X146243Y6104D01*
X146268Y6092D01*
X146428Y5981D01*
X146577Y5870D01*
X146700Y5746D01*
X146799Y5623D01*
X146885Y5524D01*
X146947Y5437D01*
X146984Y5388D01*
X146996Y5363D01*
X147083Y5191D01*
X147157Y5018D01*
X147206Y4845D01*
X147231Y4697D01*
X147255Y4561D01*
X147268Y4450D01*
Y4388D01*
Y4376D01*
Y4363D01*
Y142D01*
X147255Y-56D01*
X147231Y-241D01*
X147182Y-402D01*
X147132Y-562D01*
X147095Y-685D01*
X147046Y-772D01*
X147021Y-834D01*
X147009Y-858D01*
X146897Y-1019D01*
X146774Y-1167D01*
X146663Y-1290D01*
X146540Y-1389D01*
X146441Y-1475D01*
X146354Y-1537D01*
X146305Y-1574D01*
X146280Y-1586D01*
X146095Y-1673D01*
X145922Y-1735D01*
X145750Y-1784D01*
X145589Y-1809D01*
X145453Y-1833D01*
X145354Y-1846D01*
X140935D01*
Y-2969D01*
Y-2994D01*
X140948Y-3018D01*
X140960Y-3031D01*
X140997Y-3056D01*
X145947D01*
X145922Y-5080D01*
X140923D01*
X140725Y-5068D01*
X140528Y-5043D01*
X140355Y-4994D01*
X140207Y-4944D01*
X140083Y-4895D01*
X139985Y-4845D01*
X139935Y-4821D01*
X139911Y-4808D01*
X139750Y-4697D01*
X139602Y-4586D01*
X139479Y-4463D01*
X139380Y-4352D01*
X139293Y-4253D01*
X139232Y-4166D01*
X139195Y-4117D01*
X139182Y-4092D01*
X139096Y-3920D01*
X139022Y-3735D01*
X138985Y-3562D01*
X138948Y-3413D01*
X138935Y-3265D01*
X138923Y-3167D01*
Y-3093D01*
Y-3068D01*
Y4363D01*
X138935Y4561D01*
X138960Y4746D01*
X138997Y4919D01*
X139059Y5067D01*
X139108Y5191D01*
X139145Y5289D01*
X139182Y5339D01*
X139195Y5363D01*
X139306Y5524D01*
X139417Y5672D01*
X139540Y5795D01*
X139651Y5894D01*
X139750Y5981D01*
X139837Y6042D01*
X139886Y6079D01*
X139911Y6092D01*
X140083Y6178D01*
X140256Y6252D01*
X140429Y6302D01*
X140577Y6326D01*
X140725Y6351D01*
X140824Y6363D01*
X145256D01*
X145453Y6351D01*
D02*
G37*
G36*
X123405Y41910D02*
X119893D01*
Y48871D01*
X116126D01*
X110287Y41910D01*
X106542D01*
Y43010D01*
X112953Y50648D01*
X106542Y58265D01*
Y59387D01*
X110287D01*
X116126Y52426D01*
X119893D01*
Y59387D01*
X123405D01*
Y41910D01*
D02*
G37*
G36*
X143632D02*
X140141D01*
Y54139D01*
X129858Y41910D01*
X126155D01*
Y59387D01*
X129689D01*
Y47200D01*
X139929Y59387D01*
X143632D01*
Y41910D01*
D02*
G37*
G36*
X170228Y45570D02*
Y45507D01*
Y45486D01*
X170249Y45443D01*
X170291Y45422D01*
X180617D01*
X180638Y45443D01*
X180680Y45528D01*
Y45549D01*
Y45570D01*
Y47517D01*
X184171D01*
Y45401D01*
X184150Y45041D01*
X184108Y44724D01*
X184023Y44407D01*
X183938Y44153D01*
X183854Y43920D01*
X183769Y43772D01*
X183727Y43666D01*
X183706Y43624D01*
X183515Y43349D01*
X183304Y43095D01*
X183092Y42883D01*
X182880Y42714D01*
X182711Y42566D01*
X182563Y42460D01*
X182479Y42397D01*
X182436Y42375D01*
X182140Y42227D01*
X181823Y42100D01*
X181526Y42016D01*
X181273Y41974D01*
X181019Y41931D01*
X180849Y41910D01*
X170186D01*
X169826Y41931D01*
X169508Y41974D01*
X169191Y42058D01*
X168937Y42143D01*
X168726Y42227D01*
X168556Y42312D01*
X168472Y42354D01*
X168430Y42375D01*
X168154Y42566D01*
X167901Y42778D01*
X167689Y42968D01*
X167498Y43179D01*
X167350Y43349D01*
X167245Y43497D01*
X167181Y43582D01*
X167160Y43624D01*
X166991Y43941D01*
X166885Y44237D01*
X166800Y44534D01*
X166737Y44809D01*
X166695Y45041D01*
X166673Y45232D01*
Y45359D01*
Y45401D01*
Y59387D01*
X170207D01*
X170228Y45570D01*
D02*
G37*
G36*
X160770Y59366D02*
X161088Y59302D01*
X161384Y59239D01*
X161659Y59154D01*
X161870Y59048D01*
X162019Y58985D01*
X162124Y58921D01*
X162167Y58900D01*
X162442Y58710D01*
X162696Y58519D01*
X162907Y58308D01*
X163098Y58096D01*
X163246Y57927D01*
X163351Y57779D01*
X163415Y57694D01*
X163436Y57652D01*
X163584Y57355D01*
X163711Y57038D01*
X163796Y56763D01*
X163838Y56488D01*
X163880Y56255D01*
X163902Y56065D01*
Y55938D01*
Y55917D01*
Y55896D01*
Y41910D01*
X160410D01*
Y47665D01*
X149937D01*
X149958Y41910D01*
X146404D01*
Y55896D01*
X146425Y56255D01*
X146488Y56573D01*
X146552Y56890D01*
X146636Y57144D01*
X146742Y57355D01*
X146806Y57525D01*
X146869Y57609D01*
X146890Y57652D01*
X147081Y57927D01*
X147292Y58181D01*
X147504Y58392D01*
X147716Y58562D01*
X147906Y58710D01*
X148054Y58815D01*
X148139Y58879D01*
X148181Y58900D01*
X148477Y59069D01*
X148795Y59175D01*
X149070Y59260D01*
X149345Y59323D01*
X149578Y59366D01*
X149768Y59387D01*
X160410D01*
X160770Y59366D01*
D02*
G37*
%LPC*%
G36*
X108601Y164914D02*
X131159Y164888D01*
X131196Y164851D01*
X131284Y164689D01*
X131333Y164664D01*
X131446Y164552D01*
X131421Y163854D01*
X131433Y152824D01*
X131308Y152700D01*
X131258Y152675D01*
X131221Y152638D01*
X131196Y152588D01*
X131109Y152500D01*
X130997Y152488D01*
X129863Y152500D01*
X129775Y152438D01*
X129750Y152264D01*
X129763Y140636D01*
X129688Y140536D01*
X129638Y140511D01*
X129576Y140449D01*
X129501Y140324D01*
X129439Y140262D01*
X115755Y140287D01*
X115692Y140349D01*
X115667Y140399D01*
X115605Y140486D01*
X115480Y140561D01*
X115443Y140598D01*
X115418Y140698D01*
X115443Y141097D01*
Y147802D01*
Y147827D01*
X115418Y152413D01*
X115381Y152476D01*
X115206Y152525D01*
X115032Y152500D01*
X108688Y152488D01*
X108588Y152513D01*
X108514Y152588D01*
X108489Y152638D01*
X108401Y152725D01*
X108352Y152750D01*
X108289Y152812D01*
X108265Y152912D01*
X108289Y153161D01*
X108277Y164515D01*
X108314Y164602D01*
X108352Y164639D01*
X108401Y164664D01*
X108464Y164727D01*
X108539Y164851D01*
X108601Y164914D01*
D02*
G37*
G36*
X159799D02*
X182357Y164888D01*
X182419Y164826D01*
X182494Y164702D01*
X182556Y164639D01*
X182606Y164614D01*
X182668Y164452D01*
X182643Y164378D01*
X182656Y152899D01*
X182631Y152800D01*
X182581Y152750D01*
X182531Y152725D01*
X182394Y152588D01*
X182369Y152538D01*
X182332Y152500D01*
X182194Y152488D01*
X175814Y152513D01*
X175602Y152525D01*
X175514Y152463D01*
X175490Y152363D01*
X175564Y152239D01*
X175651Y152176D01*
X175689Y152139D01*
X175701Y152077D01*
X175676Y152027D01*
X175627Y152002D01*
X175490Y151890D01*
X175514Y151341D01*
X175552Y151304D01*
X175602Y151279D01*
X175689Y151217D01*
X175664Y151067D01*
X175514Y150967D01*
X175490Y150868D01*
X175514Y150394D01*
X175577Y150332D01*
X175627Y150307D01*
X175689Y150245D01*
X175664Y150120D01*
X175627Y150083D01*
X175577Y150058D01*
X175514Y150020D01*
X175490Y149921D01*
X175514Y149422D01*
X175552Y149385D01*
X175676Y149310D01*
X175689Y149198D01*
X175602Y149110D01*
X175552Y149086D01*
X175490Y149023D01*
X175514Y148475D01*
X175577Y148413D01*
X175627Y148388D01*
X175689Y148325D01*
X175664Y148201D01*
X175627Y148163D01*
X175514Y148101D01*
X175490Y148001D01*
X175514Y147528D01*
X175602Y147440D01*
X175651Y147416D01*
X175689Y147378D01*
X175664Y147254D01*
X175627Y147216D01*
X175577Y147191D01*
X175490Y147104D01*
X175514Y146556D01*
X175552Y146518D01*
X175602Y146493D01*
X175689Y146431D01*
X175664Y146281D01*
X175514Y146182D01*
X175490Y146082D01*
X175514Y145608D01*
X175577Y145546D01*
X175627Y145521D01*
X175689Y145459D01*
X175664Y145334D01*
X175627Y145297D01*
X175577Y145272D01*
X175514Y145234D01*
X175490Y145135D01*
X175514Y144636D01*
X175552Y144599D01*
X175676Y144524D01*
X175689Y144412D01*
X175602Y144325D01*
X175552Y144300D01*
X175490Y144237D01*
X175514Y143689D01*
X175577Y143627D01*
X175627Y143602D01*
X175689Y143539D01*
X175664Y143415D01*
X175514Y143315D01*
X175490Y143216D01*
X175514Y142742D01*
X175602Y142655D01*
X175651Y142630D01*
X175689Y142592D01*
X175664Y142468D01*
X175627Y142430D01*
X175577Y142405D01*
X175490Y142318D01*
X175514Y141770D01*
X175552Y141732D01*
X175602Y141707D01*
X175689Y141645D01*
X175664Y141496D01*
X175527Y141408D01*
X175490Y141296D01*
X175514Y140823D01*
X175577Y140760D01*
X175627Y140735D01*
X175689Y140673D01*
X175664Y140548D01*
X175627Y140511D01*
X175502Y140436D01*
X175440Y140374D01*
X175415Y140324D01*
X175253Y140262D01*
X164659D01*
X161518Y140287D01*
X161406Y140374D01*
X161381Y140424D01*
X161319Y140486D01*
X161194Y140561D01*
X161182Y140673D01*
X161269Y140760D01*
X161319Y140785D01*
X161357Y140823D01*
X161406Y140947D01*
X161381Y141122D01*
X161294Y141209D01*
X161244Y141234D01*
X161182Y141296D01*
X161207Y141421D01*
X161244Y141458D01*
X161294Y141483D01*
X161381Y141570D01*
X161357Y142119D01*
X161319Y142156D01*
X161194Y142231D01*
X161157Y142293D01*
X161219Y142381D01*
X161344Y142455D01*
X161381Y142567D01*
X161319Y142655D01*
X161194Y142730D01*
X161182Y142817D01*
X161244Y142879D01*
X161357Y142941D01*
X161381Y143041D01*
X161319Y143128D01*
X161269Y143153D01*
X161182Y143216D01*
X161194Y143328D01*
X161357Y143415D01*
X161381Y143515D01*
X161357Y143565D01*
X161294Y143627D01*
X161244Y143652D01*
X161182Y143689D01*
X161207Y143814D01*
X161269Y143876D01*
X161319Y143901D01*
X161381Y143963D01*
X161357Y144512D01*
X161319Y144549D01*
X161194Y144624D01*
X161157Y144686D01*
X161219Y144773D01*
X161344Y144848D01*
X161381Y144960D01*
X161319Y145048D01*
X161194Y145122D01*
X161182Y145210D01*
X161244Y145272D01*
X161357Y145334D01*
X161381Y145434D01*
X161319Y145521D01*
X161269Y145546D01*
X161182Y145608D01*
X161194Y145721D01*
X161357Y145808D01*
X161381Y145907D01*
X161357Y145957D01*
X161294Y146020D01*
X161244Y146045D01*
X161182Y146082D01*
X161207Y146207D01*
X161269Y146269D01*
X161319Y146294D01*
X161381Y146356D01*
X161357Y146905D01*
X161319Y146942D01*
X161194Y147017D01*
X161157Y147079D01*
X161219Y147166D01*
X161344Y147241D01*
X161381Y147353D01*
X161319Y147440D01*
X161194Y147515D01*
X161182Y147602D01*
X161244Y147665D01*
X161357Y147727D01*
X161381Y147827D01*
X161319Y147914D01*
X161269Y147939D01*
X161182Y148001D01*
X161194Y148113D01*
X161357Y148201D01*
X161381Y148300D01*
X161357Y148350D01*
X161294Y148413D01*
X161244Y148438D01*
X161182Y148475D01*
X161207Y148600D01*
X161269Y148662D01*
X161319Y148687D01*
X161381Y148749D01*
X161357Y149297D01*
X161319Y149335D01*
X161194Y149410D01*
X161157Y149472D01*
X161219Y149559D01*
X161344Y149634D01*
X161381Y149746D01*
X161319Y149833D01*
X161194Y149908D01*
X161182Y149995D01*
X161244Y150058D01*
X161357Y150120D01*
X161381Y150220D01*
X161357Y150269D01*
X161294Y150332D01*
X161182Y150394D01*
X161207Y150519D01*
X161244Y150556D01*
X161294Y150581D01*
X161357Y150618D01*
X161381Y150718D01*
X161357Y151192D01*
X161269Y151279D01*
X161219Y151304D01*
X161182Y151341D01*
X161170Y151404D01*
X161219Y151478D01*
X161344Y151553D01*
X161381Y151591D01*
X161357Y151715D01*
X161319Y151753D01*
X161194Y151827D01*
X161157Y151890D01*
X161244Y152002D01*
X161357Y152064D01*
X161406Y152239D01*
X161381Y152313D01*
X161357Y152413D01*
X161319Y152476D01*
X161145Y152525D01*
X161045Y152500D01*
X159886Y152488D01*
X159761Y152538D01*
X159649Y152700D01*
X159599Y152725D01*
X159512Y152787D01*
X159487Y152887D01*
X159512Y164577D01*
X159686Y164751D01*
X159761Y164876D01*
X159799Y164914D01*
D02*
G37*
G36*
X139459Y135202D02*
X139596Y135164D01*
X139634Y135127D01*
X139746Y135115D01*
X139833Y135152D01*
X139958Y135202D01*
X140057Y135177D01*
X140207Y135102D01*
X140431Y135202D01*
X140531Y135177D01*
X140705Y135102D01*
X140930Y135202D01*
X141154Y135102D01*
X141378Y135202D01*
X141516Y135164D01*
X141553Y135127D01*
X141665Y135115D01*
X141877Y135202D01*
X142126Y135102D01*
X142351Y135202D01*
X142450Y135177D01*
X142600Y135102D01*
X142824Y135202D01*
X142924Y135177D01*
X143098Y135102D01*
X143323Y135202D01*
X143547Y135102D01*
X143771Y135202D01*
X143908Y135164D01*
X143946Y135127D01*
X144058Y135115D01*
X144270Y135202D01*
X144519Y135102D01*
X144743Y135202D01*
X144843Y135177D01*
X144993Y135102D01*
X145217Y135202D01*
X145317Y135177D01*
X145491Y135102D01*
X145591Y135152D01*
X145603Y135164D01*
X145716Y135202D01*
X145940Y135102D01*
X146164Y135202D01*
X146301Y135164D01*
X146339Y135127D01*
X146451Y135115D01*
X146663Y135202D01*
X146912Y135102D01*
X147136Y135202D01*
X147236Y135177D01*
X147386Y135102D01*
X147610Y135202D01*
X147710Y135177D01*
X147884Y135102D01*
X148108Y135202D01*
X148333Y135102D01*
X148557Y135202D01*
X148694Y135164D01*
X148732Y135127D01*
X148844Y135115D01*
X149056Y135202D01*
X149305Y135102D01*
X149529Y135202D01*
X149629Y135177D01*
X149778Y135102D01*
X150003Y135202D01*
X150103Y135177D01*
X150277Y135102D01*
X150501Y135202D01*
X150726Y135102D01*
X150900Y135177D01*
X151000Y135202D01*
X151224Y135102D01*
X151424Y135127D01*
X151698Y135002D01*
X151872Y134978D01*
X152047Y134878D01*
X152097Y134828D01*
X152321Y134703D01*
X152421Y134604D01*
X152471Y134579D01*
X152707Y134417D01*
X152819Y134280D01*
X152956Y134167D01*
X152981Y134118D01*
X153144Y133881D01*
X153231Y133793D01*
X153330Y133619D01*
X153455Y133494D01*
X153480Y133395D01*
X153580Y133220D01*
X153630Y133170D01*
X153704Y132996D01*
X153742Y132859D01*
X153841Y132709D01*
X153879Y132672D01*
X153929Y132547D01*
X153954Y132448D01*
X153991Y132285D01*
X154016Y132161D01*
X154041Y132061D01*
X154178Y131799D01*
X154228Y131301D01*
X154253Y131226D01*
X154290Y131089D01*
X154352Y130952D01*
X154402Y130753D01*
X154377Y130578D01*
X154402Y130503D01*
X154427Y130254D01*
X154402Y128210D01*
X154377Y128135D01*
X154315Y127973D01*
X154253Y127761D01*
X154228Y127662D01*
X154203Y127487D01*
X154178Y127163D01*
X154053Y126989D01*
X154016Y126852D01*
X153966Y126602D01*
X153916Y126403D01*
X153816Y126253D01*
X153779Y126216D01*
X153667Y125905D01*
X153605Y125842D01*
X153580Y125742D01*
X153605Y125668D01*
X153704Y125443D01*
X153729Y125269D01*
X153816Y125157D01*
X153866Y125132D01*
X153904Y125094D01*
X153954Y124920D01*
X153979Y124621D01*
X154103Y124446D01*
X154178Y124272D01*
X154203Y123748D01*
X154228Y123674D01*
X154265Y123512D01*
X154340Y123312D01*
X154402Y123100D01*
X154427Y122851D01*
X154402Y120807D01*
X154377Y120732D01*
X154402Y120658D01*
X154377Y120483D01*
X154278Y120383D01*
X154228Y120259D01*
X154203Y119785D01*
X154178Y119710D01*
X154115Y119424D01*
X153979Y119162D01*
X153954Y119062D01*
X153916Y118875D01*
X153829Y118738D01*
X153729Y118514D01*
X153692Y118327D01*
X153530Y118165D01*
X153480Y118040D01*
X153443Y117903D01*
X153256Y117716D01*
X153231Y117617D01*
X153131Y117442D01*
X152545Y116856D01*
X152371Y116757D01*
X152308Y116694D01*
X152283Y116644D01*
X152246Y116607D01*
X151972Y116507D01*
X151797Y116383D01*
X151698Y116358D01*
X151374Y116333D01*
X151199Y116308D01*
X151100Y116283D01*
X151000Y116308D01*
X139297Y116296D01*
X138799Y116370D01*
X138711Y116433D01*
X138674Y116470D01*
X138649Y116520D01*
X138562Y116607D01*
X138512Y116632D01*
X138450Y116694D01*
X138400Y116819D01*
X138362Y116956D01*
X138325Y116994D01*
X138300Y117043D01*
X138200Y117193D01*
X138151Y117542D01*
X138126Y117642D01*
X138101Y118040D01*
X138051Y118165D01*
X138076Y118464D01*
X138101Y118539D01*
X138151Y118713D01*
X138175Y119037D01*
X138200Y119187D01*
X138325Y119361D01*
X138475Y119636D01*
X138512Y119673D01*
X138562Y119698D01*
X138649Y119785D01*
X138674Y119835D01*
X138761Y119922D01*
X138923Y119985D01*
X139010Y120047D01*
X139185Y120122D01*
X139334Y120097D01*
X139459Y120047D01*
X139584Y120072D01*
X139708Y120122D01*
X139833Y120097D01*
X139883Y120047D01*
X140057Y120072D01*
X140182Y120122D01*
X140307Y120097D01*
X140431Y120047D01*
X140556Y120072D01*
X140681Y120122D01*
X140780Y120097D01*
X140905Y120047D01*
X141030Y120072D01*
X141154Y120122D01*
X141254Y120097D01*
X141378Y120047D01*
X141503Y120072D01*
X141628Y120122D01*
X141752Y120097D01*
X141802Y120047D01*
X141977Y120072D01*
X142101Y120122D01*
X142226Y120097D01*
X142276Y120047D01*
X142450Y120072D01*
X142575Y120122D01*
X142699Y120097D01*
X142824Y120047D01*
X142949Y120072D01*
X143073Y120122D01*
X143173Y120097D01*
X143298Y120047D01*
X143422Y120072D01*
X143547Y120122D01*
X143647Y120097D01*
X143771Y120047D01*
X143896Y120072D01*
X144021Y120122D01*
X144145Y120097D01*
X144195Y120047D01*
X144369Y120072D01*
X144494Y120122D01*
X144619Y120097D01*
X144669Y120047D01*
X144843Y120072D01*
X144968Y120122D01*
X145092Y120097D01*
X145217Y120047D01*
X145342Y120072D01*
X145466Y120122D01*
X145566Y120097D01*
X145691Y120047D01*
X145815Y120072D01*
X145940Y120122D01*
X146040Y120097D01*
X146164Y120047D01*
X146289Y120072D01*
X146413Y120122D01*
X146538Y120097D01*
X146588Y120047D01*
X146762Y120072D01*
X146887Y120122D01*
X147012Y120097D01*
X147062Y120047D01*
X147236Y120072D01*
X147361Y120122D01*
X147485Y120097D01*
X147610Y120047D01*
X147734Y120072D01*
X147859Y120122D01*
X147959Y120097D01*
X148083Y120047D01*
X148208Y120072D01*
X148333Y120122D01*
X148433Y120097D01*
X148557Y120047D01*
X148682Y120072D01*
X148806Y120122D01*
X148931Y120097D01*
X148981Y120047D01*
X149155Y120072D01*
X149280Y120122D01*
X149405Y120097D01*
X149454Y120047D01*
X149629Y120072D01*
X149754Y120122D01*
X149878Y120097D01*
X150003Y120047D01*
X150127Y120072D01*
X150252Y120122D01*
X150352Y120097D01*
X150476Y120047D01*
X150601Y120072D01*
X150726Y120122D01*
X150825Y120097D01*
X150950Y120047D01*
X151050Y120072D01*
X151174Y120147D01*
X151349Y120171D01*
X151473Y120221D01*
X151511Y120259D01*
X151536Y120309D01*
X151673Y120446D01*
X151723Y120471D01*
X151760Y120508D01*
X151810Y120633D01*
X151835Y120732D01*
X152009Y121006D01*
X152034Y121181D01*
X152084Y121854D01*
X152059Y122652D01*
X152034Y122726D01*
X152009Y122826D01*
X151897Y122963D01*
X151835Y123100D01*
X151810Y123200D01*
X151685Y123424D01*
X151536Y123549D01*
X151461Y123624D01*
X151448Y123661D01*
X151399Y123686D01*
X151224Y123761D01*
X151025Y123811D01*
X150738Y123773D01*
X150476Y123761D01*
X150402Y123786D01*
X150177Y123811D01*
X150103Y123786D01*
X149853Y123761D01*
X149616Y123798D01*
X149479Y123811D01*
X149405Y123786D01*
X149155Y123761D01*
X148894Y123798D01*
X148757Y123811D01*
X148682Y123786D01*
X148433Y123761D01*
X148171Y123798D01*
X148034Y123811D01*
X147959Y123786D01*
X147710Y123761D01*
X147448Y123798D01*
X147311Y123811D01*
X147236Y123786D01*
X146987Y123761D01*
X146725Y123798D01*
X146588Y123811D01*
X146513Y123786D01*
X146264Y123761D01*
X146027Y123798D01*
X145890Y123811D01*
X145815Y123786D01*
X145566Y123761D01*
X145304Y123798D01*
X145167Y123811D01*
X145092Y123786D01*
X144843Y123761D01*
X144581Y123798D01*
X144444Y123811D01*
X144369Y123786D01*
X144120Y123761D01*
X143859Y123798D01*
X143722Y123811D01*
X143647Y123786D01*
X143398Y123761D01*
X143136Y123798D01*
X142999Y123811D01*
X142924Y123786D01*
X142675Y123761D01*
X142438Y123798D01*
X142301Y123811D01*
X142226Y123786D01*
X141977Y123761D01*
X141715Y123798D01*
X141578Y123811D01*
X141503Y123786D01*
X141254Y123761D01*
X140992Y123798D01*
X140855Y123811D01*
X140780Y123786D01*
X140531Y123761D01*
X140269Y123798D01*
X140132Y123811D01*
X140057Y123786D01*
X139808Y123761D01*
X139571Y123798D01*
X139434Y123811D01*
X139359Y123786D01*
X139110Y123761D01*
X138936Y123861D01*
X138886Y123935D01*
X138836Y123960D01*
X138661Y124060D01*
X138549Y124172D01*
X138537Y124209D01*
X138499Y124222D01*
X138475Y124272D01*
X138425Y124322D01*
X138400Y124421D01*
X138300Y124596D01*
X138225Y124671D01*
X138175Y124845D01*
X138151Y125244D01*
X138126Y125319D01*
X138101Y125418D01*
X138051Y125593D01*
X138076Y125867D01*
X138126Y125992D01*
X138151Y126465D01*
X138175Y126540D01*
X138200Y126740D01*
X138375Y126914D01*
X138425Y127039D01*
X138524Y127213D01*
X138612Y127300D01*
X138661Y127325D01*
X138836Y127450D01*
X138936Y127550D01*
X139035Y127575D01*
X139185Y127599D01*
X139260Y127575D01*
X150938Y127587D01*
X151199Y127575D01*
X151324Y127649D01*
X151760Y128085D01*
X151810Y128210D01*
X151910Y128385D01*
X151959Y128434D01*
X151984Y128484D01*
X152034Y128609D01*
X152059Y129058D01*
X152084Y129132D01*
X152109Y129232D01*
X152084Y129407D01*
X152059Y130030D01*
X152034Y130105D01*
X152009Y130354D01*
X151897Y130491D01*
X151835Y130628D01*
X151760Y130827D01*
X151635Y130952D01*
X151610Y131002D01*
X151523Y131139D01*
X151100Y131338D01*
X151000Y131313D01*
X139085Y131338D01*
X138961Y131388D01*
X138861Y131413D01*
X138736Y131488D01*
X138649Y131575D01*
X138624Y131625D01*
X138587Y131662D01*
X138537Y131687D01*
X138450Y131775D01*
X138400Y131899D01*
X138337Y132061D01*
X138275Y132148D01*
X138175Y132373D01*
X138138Y132659D01*
X138101Y133120D01*
X138051Y133245D01*
X138076Y133544D01*
X138126Y133669D01*
X138175Y134018D01*
X138250Y134317D01*
X138450Y134691D01*
X138512Y134753D01*
X138562Y134778D01*
X138649Y134865D01*
X138674Y134915D01*
X138736Y134978D01*
X139060Y135127D01*
X139235Y135102D01*
X139459Y135202D01*
D02*
G37*
G36*
X110869Y125730D02*
X111069Y125705D01*
X111143Y125680D01*
X111580Y125693D01*
X111841Y125680D01*
X111916Y125705D01*
X112315Y125680D01*
X112390Y125705D01*
X112813Y125680D01*
X112888Y125705D01*
X113287Y125680D01*
X113362Y125705D01*
X113761Y125680D01*
X113835Y125705D01*
X114234Y125680D01*
X114309Y125705D01*
X114708Y125680D01*
X114782Y125705D01*
X115206Y125680D01*
X115281Y125705D01*
X115680Y125680D01*
X115879Y125730D01*
X116116Y125693D01*
X116465Y125668D01*
X116565Y125643D01*
X116727Y125481D01*
X116777Y125456D01*
X116951Y125331D01*
X117026Y125256D01*
X117076Y125232D01*
X117250Y125132D01*
X117312Y125070D01*
X117338Y125020D01*
X117686Y124845D01*
X117774Y124758D01*
X117948Y124658D01*
X118123Y124484D01*
X118297Y124384D01*
X118397Y124284D01*
X118571Y124185D01*
X118671Y124085D01*
X118721Y124060D01*
X118895Y123985D01*
X119020Y123910D01*
X119145Y123786D01*
X119319Y123686D01*
X119444Y123561D01*
X119668Y123437D01*
X119730Y123350D01*
X119768Y123312D01*
X120005Y123225D01*
X120042Y123188D01*
X120092Y123163D01*
X120191Y123063D01*
X120366Y122963D01*
X120491Y122839D01*
X120715Y122714D01*
X120752Y122677D01*
X120777Y122627D01*
X120815Y122589D01*
X120952Y122552D01*
X121076Y122502D01*
X121151Y122427D01*
X121176Y122378D01*
X121363Y122265D01*
X121413Y122240D01*
X121538Y122116D01*
X121712Y122016D01*
X121837Y121891D01*
X122073Y121804D01*
X122211Y121667D01*
X122260Y121642D01*
X122435Y121517D01*
X122509Y121443D01*
X122559Y121418D01*
X122609Y121368D01*
X122933Y121219D01*
X123257Y121393D01*
X123345Y121480D01*
X123370Y121530D01*
X123432Y121592D01*
X123532Y121617D01*
X123706Y121717D01*
X123806Y121817D01*
X123856Y121842D01*
X124030Y121966D01*
X124105Y122041D01*
X124229Y122091D01*
X124404Y122191D01*
X124504Y122290D01*
X124678Y122390D01*
X124828Y122540D01*
X125002Y122639D01*
X125127Y122764D01*
X125351Y122888D01*
X125451Y122988D01*
X125688Y123075D01*
X125875Y123262D01*
X126049Y123362D01*
X126149Y123462D01*
X126199Y123487D01*
X126410Y123624D01*
X126435Y123674D01*
X126547Y123736D01*
X126672Y123786D01*
X126797Y123861D01*
X126896Y123960D01*
X126946Y123985D01*
X127121Y124110D01*
X127196Y124185D01*
X127320Y124234D01*
X127545Y124359D01*
X127644Y124459D01*
X127819Y124558D01*
X127943Y124683D01*
X128118Y124783D01*
X128267Y124932D01*
X128442Y125032D01*
X128542Y125132D01*
X128778Y125219D01*
X128816Y125256D01*
X128853Y125269D01*
X128878Y125319D01*
X128965Y125406D01*
X129190Y125531D01*
X129289Y125630D01*
X129464Y125680D01*
X129638Y125705D01*
X129962Y125680D01*
X130212Y125705D01*
X130311Y125680D01*
X130723Y125693D01*
X130984Y125680D01*
X131059Y125705D01*
X131458Y125680D01*
X131533Y125705D01*
X131957Y125680D01*
X132031Y125705D01*
X132430Y125680D01*
X132505Y125705D01*
X132904Y125680D01*
X132978Y125705D01*
X133377Y125680D01*
X133452Y125705D01*
X133851Y125680D01*
X133926Y125705D01*
X134349Y125680D01*
X134424Y125705D01*
X134823Y125680D01*
X135022Y125730D01*
X135259Y125693D01*
X135359Y125668D01*
X135484Y125618D01*
X135508Y125568D01*
X135533Y125493D01*
X135558Y125393D01*
X135533Y125319D01*
X135508Y125269D01*
X135446Y125207D01*
X135421D01*
X135409Y125194D01*
X135272Y125107D01*
X135147Y124982D01*
X134972Y124882D01*
X134873Y124783D01*
X134623Y124683D01*
X134561Y124646D01*
X134536Y124596D01*
X134449Y124509D01*
X134225Y124384D01*
X134125Y124284D01*
X134025Y124259D01*
X133901Y124185D01*
X133838Y124122D01*
X133813Y124072D01*
X133751Y124010D01*
X133552Y123935D01*
X133452Y123836D01*
X133278Y123761D01*
X133153Y123686D01*
X133078Y123561D01*
X133028Y123537D01*
X132904Y123487D01*
X132779Y123412D01*
X132679Y123312D01*
X132505Y123212D01*
X132380Y123088D01*
X132256Y123038D01*
X132044Y122926D01*
X132031Y122888D01*
X131981Y122864D01*
X131931Y122814D01*
X131757Y122714D01*
X131632Y122589D01*
X131396Y122502D01*
X131258Y122365D01*
X131209Y122340D01*
X131034Y122215D01*
X130959Y122141D01*
X130735Y122016D01*
X130673Y121929D01*
X130635Y121891D01*
X130511Y121842D01*
X130411Y121817D01*
X130274Y121705D01*
X130212Y121642D01*
X130037Y121543D01*
X129888Y121393D01*
X129788Y121368D01*
X129663Y121318D01*
X129576Y121256D01*
X129564Y121219D01*
X129514Y121194D01*
X129464Y121144D01*
X129289Y121044D01*
X129252Y121006D01*
X129227Y120957D01*
X129090Y120894D01*
X128990Y120870D01*
X128853Y120757D01*
X128828Y120707D01*
X128616Y120595D01*
X128467Y120446D01*
X128417Y120421D01*
X128180Y120259D01*
X128143Y120221D01*
X127981Y120159D01*
X127894Y120122D01*
X127719Y119947D01*
X127545Y119847D01*
X127445Y119748D01*
X127208Y119661D01*
X127171Y119623D01*
X127133Y119611D01*
X127108Y119561D01*
X127046Y119499D01*
X126996Y119474D01*
X126759Y119312D01*
X126697Y119249D01*
X126597Y119224D01*
X126423Y119125D01*
X126361Y119062D01*
X126311Y118938D01*
X126336Y118813D01*
X126373Y118776D01*
X126473Y118751D01*
X126635Y118688D01*
X126797Y118526D01*
X126971Y118427D01*
X127071Y118327D01*
X127121Y118302D01*
X127246Y118252D01*
X127420Y118153D01*
X127470Y118078D01*
X127520Y118053D01*
X127757Y117891D01*
X127819Y117829D01*
X127943Y117779D01*
X128118Y117679D01*
X128218Y117579D01*
X128392Y117479D01*
X128492Y117380D01*
X128542Y117355D01*
X128716Y117280D01*
X128841Y117205D01*
X128965Y117081D01*
X129140Y116981D01*
X129264Y116856D01*
X129364Y116832D01*
X129539Y116732D01*
X129638Y116632D01*
X129813Y116532D01*
X129913Y116433D01*
X129962Y116408D01*
X130137Y116333D01*
X130261Y116258D01*
X130386Y116134D01*
X130561Y116034D01*
X130660Y115934D01*
X130710Y115909D01*
X130835Y115859D01*
X131009Y115760D01*
X131059Y115685D01*
X131109Y115660D01*
X131346Y115498D01*
X131408Y115436D01*
X131570Y115373D01*
X131657Y115311D01*
X131695Y115274D01*
X131720Y115224D01*
X131782Y115161D01*
X131907Y115112D01*
X132031Y115037D01*
X132106Y114962D01*
X132156Y114937D01*
X132330Y114837D01*
X132505Y114713D01*
X132729Y114588D01*
X132854Y114464D01*
X132904Y114439D01*
X133128Y114314D01*
X133178Y114264D01*
X133402Y114139D01*
X133477Y114065D01*
X133527Y114040D01*
X133602Y113965D01*
X133826Y113840D01*
X133975Y113741D01*
X134150Y113641D01*
X134275Y113516D01*
X134499Y113392D01*
X134536Y113354D01*
X134561Y113305D01*
X134599Y113267D01*
X134848Y113167D01*
X134985Y113055D01*
X135022Y113018D01*
X135197Y112918D01*
X135346Y112769D01*
X135484Y112731D01*
X135621Y112644D01*
X135695Y112569D01*
X135745Y112544D01*
X135920Y112444D01*
X136069Y112295D01*
X136194Y112220D01*
X136256Y112158D01*
X136294Y111996D01*
X136306Y111934D01*
X136219Y111796D01*
X136094Y111747D01*
X130037Y111772D01*
X129850Y111884D01*
X129825Y111934D01*
X129763Y111996D01*
X129514Y112096D01*
X129414Y112195D01*
X129364Y112220D01*
X129190Y112320D01*
X129015Y112494D01*
X128916Y112519D01*
X128866Y112569D01*
X128816Y112594D01*
X128716Y112719D01*
X128616Y112744D01*
X128454Y112806D01*
X128405Y112856D01*
X128380Y112906D01*
X128317Y112968D01*
X128093Y113093D01*
X128068Y113142D01*
X128018Y113167D01*
X127968Y113217D01*
X127794Y113317D01*
X127694Y113417D01*
X127445Y113516D01*
X127295Y113666D01*
X127121Y113766D01*
X126996Y113890D01*
X126772Y114015D01*
X126622Y114164D01*
X126423Y114239D01*
X126286Y114351D01*
X126248Y114389D01*
X126074Y114488D01*
X125924Y114638D01*
X125762Y114700D01*
X125638Y114825D01*
X125625Y114862D01*
X125451Y114912D01*
X125326Y114987D01*
X125177Y115136D01*
X125002Y115236D01*
X124902Y115336D01*
X124853Y115361D01*
X124678Y115485D01*
X124603Y115560D01*
X124354Y115660D01*
X124267Y115722D01*
X124242Y115772D01*
X123968Y115947D01*
X123856Y116059D01*
X123806Y116084D01*
X123631Y116208D01*
X123532Y116308D01*
X123282Y116408D01*
X123158Y116532D01*
X123108Y116557D01*
X122933Y116632D01*
X122759Y116607D01*
X122634Y116532D01*
X122460Y116358D01*
X122285Y116258D01*
X122211Y116183D01*
X122036Y116109D01*
X121911Y116034D01*
X121849Y115947D01*
X121762Y115859D01*
X121625Y115822D01*
X121587Y115785D01*
X121538Y115760D01*
X121438Y115660D01*
X121388Y115635D01*
X121213Y115510D01*
X121139Y115436D01*
X120964Y115336D01*
X120815Y115186D01*
X120578Y115099D01*
X120416Y114937D01*
X120191Y114812D01*
X120067Y114688D01*
X119892Y114588D01*
X119793Y114488D01*
X119543Y114389D01*
X119456Y114326D01*
X119431Y114277D01*
X119369Y114214D01*
X119145Y114090D01*
X119020Y113965D01*
X118846Y113865D01*
X118721Y113741D01*
X118546Y113641D01*
X118397Y113491D01*
X118235Y113454D01*
X118085Y113354D01*
X118073Y113317D01*
X118023Y113292D01*
X117786Y113130D01*
X117761Y113080D01*
X117724Y113043D01*
X117674Y113018D01*
X117500Y112918D01*
X117400Y112818D01*
X117275Y112769D01*
X117101Y112669D01*
X116976Y112544D01*
X116802Y112444D01*
X116664Y112332D01*
X116627Y112295D01*
X116577Y112270D01*
X116403Y112145D01*
X116328Y112071D01*
X116203Y112021D01*
X116029Y111921D01*
X115904Y111796D01*
X115780Y111747D01*
X109772Y111772D01*
X109710Y111834D01*
X109673Y112046D01*
X109698Y112170D01*
X109797Y112270D01*
X109922Y112345D01*
X110047Y112469D01*
X110097Y112494D01*
X110271Y112594D01*
X110371Y112694D01*
X110620Y112794D01*
X110794Y112968D01*
X110969Y113068D01*
X111044Y113142D01*
X111094Y113167D01*
X111218Y113217D01*
X111393Y113317D01*
X111467Y113417D01*
X111517Y113442D01*
X111692Y113541D01*
X111791Y113641D01*
X111916Y113691D01*
X112091Y113791D01*
X112215Y113915D01*
X112390Y114015D01*
X112440Y114065D01*
X112489Y114090D01*
X112539Y114139D01*
X112776Y114227D01*
X112876Y114326D01*
X112888Y114364D01*
X112938Y114389D01*
X113112Y114488D01*
X113212Y114588D01*
X113262Y114613D01*
X113387Y114663D01*
X113511Y114738D01*
X113636Y114862D01*
X113686Y114887D01*
X113860Y114987D01*
X113985Y115112D01*
X114035Y115136D01*
X114209Y115261D01*
X114284Y115336D01*
X114409Y115386D01*
X114583Y115485D01*
X114658Y115560D01*
X114708Y115585D01*
X114920Y115722D01*
X114945Y115772D01*
X115107Y115859D01*
X115231Y115909D01*
X115368Y116021D01*
X115431Y116084D01*
X115605Y116183D01*
X115730Y116308D01*
X115967Y116395D01*
X116004Y116433D01*
X116054Y116458D01*
X116079Y116507D01*
X116129Y116532D01*
X116278Y116632D01*
X116328Y116657D01*
X116453Y116782D01*
X116615Y116844D01*
X116702Y116881D01*
X116826Y117006D01*
X116876Y117031D01*
X117051Y117156D01*
X117150Y117255D01*
X117312Y117317D01*
X117400Y117355D01*
X117537Y117467D01*
X117574Y117505D01*
X117624Y117529D01*
X117799Y117654D01*
X117873Y117729D01*
X118048Y117829D01*
X118197Y117978D01*
X118434Y118065D01*
X118509Y118115D01*
X118534Y118165D01*
X118721Y118277D01*
X118771Y118302D01*
X118833Y118364D01*
X118858Y118414D01*
X118895Y118452D01*
X119070Y118502D01*
X119194Y118576D01*
X119232Y118614D01*
X119257Y118664D01*
X119369Y118726D01*
X119531Y118813D01*
X119581Y118963D01*
X119506Y119087D01*
X119469Y119125D01*
X119244Y119249D01*
X119120Y119374D01*
X119070Y119399D01*
X118945Y119449D01*
X118771Y119548D01*
X118646Y119673D01*
X118472Y119773D01*
X118372Y119872D01*
X118123Y119972D01*
X117973Y120122D01*
X117799Y120221D01*
X117749Y120271D01*
X117699Y120296D01*
X117624Y120371D01*
X117387Y120458D01*
X117225Y120620D01*
X117051Y120720D01*
X116926Y120844D01*
X116652Y120994D01*
X116602Y121044D01*
X116328Y121194D01*
X116203Y121318D01*
X116153Y121343D01*
X115979Y121468D01*
X115879Y121567D01*
X115755Y121617D01*
X115580Y121717D01*
X115530Y121767D01*
X115480Y121792D01*
X115244Y121954D01*
X115132Y122066D01*
X114895Y122153D01*
X114758Y122290D01*
X114583Y122390D01*
X114459Y122515D01*
X114334Y122564D01*
X114159Y122664D01*
X113985Y122789D01*
X113935Y122814D01*
X113798Y122926D01*
X113711Y123013D01*
X113499Y123125D01*
X113474Y123175D01*
X113412Y123237D01*
X113175Y123325D01*
X113100Y123375D01*
X113075Y123424D01*
X113038Y123462D01*
X112988Y123487D01*
X112813Y123586D01*
X112664Y123736D01*
X112502Y123773D01*
X112415Y123836D01*
X112265Y123985D01*
X112091Y124085D01*
X111991Y124185D01*
X111866Y124234D01*
X111767Y124259D01*
X111629Y124372D01*
X111604Y124421D01*
X111418Y124534D01*
X111368Y124558D01*
X111243Y124683D01*
X111143Y124708D01*
X111019Y124758D01*
X110956Y124795D01*
X110932Y124845D01*
X110844Y124932D01*
X110670Y125032D01*
X110545Y125157D01*
X110495Y125182D01*
X110383Y125269D01*
X110333Y125468D01*
X110421Y125630D01*
X110595Y125680D01*
X110770Y125705D01*
X110869Y125730D01*
D02*
G37*
G36*
X160870D02*
X161120Y125705D01*
X161257Y125668D01*
X161344Y125605D01*
X161444Y125456D01*
X161581Y125344D01*
X161743Y125132D01*
X161780Y125119D01*
X161805Y125070D01*
X161905Y124895D01*
X162054Y124745D01*
X162154Y124571D01*
X162241Y124484D01*
X162291Y124459D01*
X162353Y124396D01*
X162379Y124347D01*
X162503Y124222D01*
X162528Y124172D01*
X162628Y123998D01*
X162665Y123960D01*
X162715Y123935D01*
X162777Y123873D01*
X162902Y123649D01*
X163251Y123300D01*
X163276Y123250D01*
X163400Y123075D01*
X163475Y123001D01*
X163500Y122951D01*
X163612Y122814D01*
X163749Y122702D01*
X163774Y122652D01*
X163887Y122515D01*
X163974Y122427D01*
X163999Y122378D01*
X164123Y122203D01*
X164198Y122128D01*
X164298Y121954D01*
X164447Y121804D01*
X164547Y121630D01*
X164634Y121567D01*
X164722Y121480D01*
X164746Y121430D01*
X164834Y121318D01*
X164883Y121293D01*
X164921Y121256D01*
X165046Y121032D01*
X165419Y120658D01*
X165519Y120483D01*
X165619Y120383D01*
X165644Y120334D01*
X165756Y120197D01*
X165806Y120147D01*
X165856Y120122D01*
X165893Y120084D01*
X165918Y120035D01*
X166030Y119897D01*
X166142Y119785D01*
X166267Y119561D01*
X166317Y119536D01*
X166342Y119486D01*
X166516Y119262D01*
X166591Y119187D01*
X166616Y119137D01*
X166728Y118975D01*
X166778Y118950D01*
X166865Y118863D01*
X166890Y118813D01*
X167002Y118676D01*
X167114Y118564D01*
X167214Y118389D01*
X167538Y118065D01*
X167563Y118015D01*
X167688Y117841D01*
X167763Y117766D01*
X167787Y117716D01*
X167924Y117505D01*
X167974Y117479D01*
X168037Y117417D01*
X168062Y117367D01*
X168174Y117255D01*
X168224Y117230D01*
X168286Y117168D01*
X168411Y116944D01*
X168535Y116819D01*
X168635Y116644D01*
X168722Y116582D01*
X168859Y116370D01*
X168897Y116333D01*
X168946Y116308D01*
X169009Y116246D01*
X169034Y116196D01*
X169146Y116059D01*
X169258Y115947D01*
X169358Y115772D01*
X169457Y115672D01*
X169482Y115623D01*
X169607Y115448D01*
X169694Y115361D01*
X169744Y115336D01*
X169819Y115261D01*
X169943Y115286D01*
X170006Y115348D01*
X170031Y115398D01*
X170130Y115498D01*
X170155Y115548D01*
X170205Y115598D01*
X170305Y115772D01*
X170455Y115922D01*
X170479Y115971D01*
X170567Y116084D01*
X170616Y116109D01*
X170704Y116196D01*
X170779Y116320D01*
X170903Y116445D01*
X170928Y116495D01*
X171053Y116670D01*
X171127Y116744D01*
X171152Y116794D01*
X171252Y116969D01*
X171290Y117006D01*
X171339Y117031D01*
X171377Y117068D01*
X171402Y117118D01*
X171514Y117255D01*
X171564Y117305D01*
X171614Y117330D01*
X171751Y117542D01*
X171875Y117667D01*
X171900Y117716D01*
X172075Y117941D01*
X172174Y118090D01*
X172199Y118140D01*
X172349Y118290D01*
X172374Y118340D01*
X172486Y118477D01*
X172536Y118502D01*
X172598Y118564D01*
X172698Y118738D01*
X172735Y118776D01*
X172785Y118801D01*
X172822Y118838D01*
X172922Y119012D01*
X173022Y119112D01*
X173047Y119162D01*
X173209Y119399D01*
X173271Y119436D01*
X173296Y119486D01*
X173408Y119648D01*
X173458Y119673D01*
X173570Y119785D01*
X173645Y119910D01*
X173794Y120059D01*
X173894Y120234D01*
X174019Y120358D01*
X174131Y120570D01*
X174181Y120595D01*
X174492Y120907D01*
X174617Y121131D01*
X174767Y121281D01*
X174841Y121405D01*
X174941Y121505D01*
X174966Y121555D01*
X175066Y121729D01*
X175153Y121817D01*
X175203Y121842D01*
X175265Y121904D01*
X175290Y121954D01*
X175490Y122153D01*
X175589Y122328D01*
X175689Y122427D01*
X175714Y122477D01*
X175839Y122652D01*
X175913Y122726D01*
X175938Y122776D01*
X176038Y122951D01*
X176075Y122988D01*
X176125Y123013D01*
X176262Y123150D01*
X176287Y123200D01*
X176325Y123237D01*
X176374Y123262D01*
X176486Y123449D01*
X176511Y123499D01*
X176686Y123674D01*
X176786Y123848D01*
X177135Y124197D01*
X177234Y124372D01*
X177384Y124521D01*
X177409Y124571D01*
X177533Y124745D01*
X177608Y124820D01*
X177708Y124995D01*
X178057Y125344D01*
X178082Y125393D01*
X178181Y125568D01*
X178244Y125630D01*
X178418Y125705D01*
X178842Y125680D01*
X178917Y125705D01*
X179316Y125680D01*
X179390Y125705D01*
X179814Y125680D01*
X179889Y125705D01*
X180288Y125680D01*
X180362Y125705D01*
X180761Y125680D01*
X180836Y125705D01*
X181235Y125680D01*
X181310Y125705D01*
X181709Y125680D01*
X181783Y125705D01*
X182207Y125680D01*
X182282Y125705D01*
X182681Y125680D01*
X182880Y125730D01*
X183142Y125693D01*
X183291Y125668D01*
X183453Y125605D01*
X183491Y125568D01*
X183540Y125443D01*
X183516Y125344D01*
X183391Y125169D01*
X183316Y125045D01*
X183167Y124895D01*
X183067Y124720D01*
X182942Y124596D01*
X182917Y124546D01*
X182805Y124434D01*
X182755Y124409D01*
X182718Y124372D01*
X182693Y124322D01*
X182568Y124147D01*
X182494Y124072D01*
X182469Y124023D01*
X182369Y123848D01*
X182332Y123811D01*
X182282Y123786D01*
X182244Y123748D01*
X182219Y123699D01*
X182107Y123561D01*
X182057Y123512D01*
X182008Y123487D01*
X181870Y123275D01*
X181721Y123125D01*
X181621Y122951D01*
X181272Y122602D01*
X181173Y122427D01*
X181023Y122278D01*
X180998Y122228D01*
X180886Y122091D01*
X180836Y122066D01*
X180774Y122004D01*
X180674Y121829D01*
X180637Y121792D01*
X180587Y121767D01*
X180450Y121555D01*
X180101Y121206D01*
X179976Y120982D01*
X179914Y120919D01*
X179864Y120894D01*
X179690Y120620D01*
X179577Y120508D01*
X179552Y120458D01*
X179490Y120396D01*
X179440Y120371D01*
X179353Y120284D01*
X179253Y120109D01*
X179129Y119985D01*
X179029Y119810D01*
X178879Y119661D01*
X178855Y119611D01*
X178742Y119474D01*
X178630Y119386D01*
X178530Y119212D01*
X178219Y118900D01*
X178181Y118888D01*
X178157Y118838D01*
X178032Y118664D01*
X177982Y118614D01*
X177957Y118564D01*
X177907Y118514D01*
X177808Y118340D01*
X177658Y118190D01*
X177583Y118065D01*
X177496Y118003D01*
X177409Y117916D01*
X177321Y117754D01*
X177272Y117729D01*
X177209Y117667D01*
X177184Y117617D01*
X177060Y117442D01*
X176985Y117367D01*
X176960Y117317D01*
X176860Y117143D01*
X176823Y117106D01*
X176773Y117081D01*
X176636Y116944D01*
X176611Y116894D01*
X176574Y116856D01*
X176524Y116832D01*
X176486Y116794D01*
X176462Y116744D01*
X176337Y116570D01*
X176225Y116433D01*
X176162Y116345D01*
X176075Y116283D01*
X175988Y116196D01*
X175888Y116021D01*
X175764Y115897D01*
X175664Y115722D01*
X175514Y115573D01*
X175490Y115523D01*
X175377Y115386D01*
X175327Y115361D01*
X175265Y115299D01*
X175165Y115124D01*
X175128Y115087D01*
X175078Y115062D01*
X174941Y114850D01*
X174592Y114501D01*
X174468Y114277D01*
X174293Y114102D01*
X174268Y114052D01*
X174231Y113990D01*
X174181Y113965D01*
X174069Y113853D01*
X173994Y113728D01*
X173844Y113579D01*
X173819Y113529D01*
X173695Y113354D01*
X173396Y113055D01*
X173371Y113005D01*
X173246Y112831D01*
X173121Y112706D01*
X173022Y112532D01*
X172922Y112432D01*
X172897Y112382D01*
X172710Y112195D01*
X172673Y112183D01*
X172648Y112133D01*
X172523Y111959D01*
X172361Y111796D01*
X172237Y111747D01*
X167376Y111772D01*
X167202Y111871D01*
X167164Y111909D01*
X167040Y112133D01*
X166915Y112258D01*
X166890Y112307D01*
X166778Y112469D01*
X166728Y112494D01*
X166691Y112532D01*
X166666Y112582D01*
X166541Y112756D01*
X166454Y112818D01*
X166416Y112856D01*
X166392Y112906D01*
X166279Y113043D01*
X166142Y113180D01*
X166130Y113217D01*
X166080Y113242D01*
X165943Y113379D01*
X165843Y113554D01*
X165744Y113653D01*
X165719Y113703D01*
X165594Y113878D01*
X165532Y113940D01*
X165482Y113965D01*
X165444Y114002D01*
X165419Y114052D01*
X165370Y114102D01*
X165345Y114152D01*
X165245Y114252D01*
X165145Y114426D01*
X165108Y114464D01*
X165058Y114488D01*
X165021Y114526D01*
X164996Y114576D01*
X164859Y114713D01*
X164809Y114738D01*
X164771Y114775D01*
X164647Y114999D01*
X164522Y115124D01*
X164497Y115174D01*
X164373Y115348D01*
X164223Y115473D01*
X164198Y115523D01*
X164049Y115672D01*
X163949Y115847D01*
X163774Y116021D01*
X163749Y116071D01*
X163712Y116109D01*
X163662Y116134D01*
X163550Y116246D01*
X163425Y116470D01*
X163301Y116595D01*
X163214Y116757D01*
X163164Y116782D01*
X163114Y116832D01*
X163076Y116844D01*
X163051Y116894D01*
X163002Y116944D01*
X162977Y116994D01*
X162852Y117118D01*
X162752Y117293D01*
X162353Y117691D01*
X162254Y117866D01*
X162129Y117991D01*
X162029Y118165D01*
X161980Y118215D01*
X161967Y118227D01*
X161917Y118252D01*
X161830Y118340D01*
X161805Y118389D01*
X161681Y118514D01*
X161656Y118564D01*
X161531Y118738D01*
X161406Y118863D01*
X161381Y118913D01*
X161294Y119000D01*
X161244Y119025D01*
X161182Y119087D01*
X161157Y119137D01*
X160995Y119374D01*
X160933Y119436D01*
X160908Y119486D01*
X160796Y119648D01*
X160746Y119673D01*
X160609Y119810D01*
X160584Y119860D01*
X160459Y119985D01*
X160359Y120159D01*
X159961Y120558D01*
X159861Y120732D01*
X159761Y120832D01*
X159736Y120882D01*
X159612Y121056D01*
X159549Y121119D01*
X159500Y121144D01*
X159462Y121181D01*
X159437Y121231D01*
X159387Y121281D01*
X159375Y121318D01*
X159325Y121343D01*
X159151Y121617D01*
X159038Y121705D01*
X159014Y121754D01*
X158876Y121891D01*
X158827Y121916D01*
X158789Y121954D01*
X158665Y122178D01*
X158540Y122303D01*
X158515Y122353D01*
X158403Y122515D01*
X158353Y122540D01*
X158241Y122652D01*
X158216Y122702D01*
X158066Y122851D01*
X157967Y123026D01*
X157792Y123200D01*
X157767Y123250D01*
X157730Y123287D01*
X157680Y123312D01*
X157568Y123424D01*
X157443Y123649D01*
X157393Y123674D01*
X157368Y123723D01*
X157318Y123773D01*
X157231Y123935D01*
X157181Y123960D01*
X156870Y124272D01*
X156745Y124496D01*
X156371Y124870D01*
X156272Y125045D01*
X156147Y125169D01*
X156122Y125219D01*
X156047Y125393D01*
X156072Y125568D01*
X156135Y125630D01*
X156259Y125680D01*
X156434Y125705D01*
X156833Y125680D01*
X156907Y125705D01*
X157306Y125680D01*
X157381Y125705D01*
X157780Y125680D01*
X157854Y125705D01*
X158278Y125680D01*
X158353Y125705D01*
X158752Y125680D01*
X158827Y125705D01*
X159225Y125680D01*
X159300Y125705D01*
X159699Y125680D01*
X159774Y125705D01*
X160173Y125680D01*
X160247Y125705D01*
X160696Y125680D01*
X160771Y125705D01*
X160870Y125730D01*
D02*
G37*
G36*
X115904Y102723D02*
X115979Y102698D01*
X129352Y102711D01*
X129452Y102686D01*
X129526Y102636D01*
X129626Y102462D01*
X129713Y102399D01*
X129750Y102362D01*
X129775Y102262D01*
X129750Y101938D01*
X129775Y91295D01*
X129863Y91208D01*
X129913Y91183D01*
X130025Y91071D01*
X130050Y91021D01*
X130087Y90983D01*
X130137Y90958D01*
X130274Y90821D01*
X130299Y90772D01*
X130336Y90734D01*
X130386Y90709D01*
X130498Y90597D01*
X130523Y90547D01*
X130586Y90485D01*
X130635Y90460D01*
X130748Y90348D01*
X130772Y90298D01*
X130810Y90260D01*
X130860Y90236D01*
X130972Y90123D01*
X130997Y90074D01*
X131059Y90011D01*
X131109Y89986D01*
X131221Y89874D01*
X131246Y89824D01*
X131284Y89787D01*
X131333Y89762D01*
X131470Y89625D01*
X131495Y89575D01*
X131533Y89538D01*
X131583Y89513D01*
X131695Y89401D01*
X131720Y89351D01*
X131782Y89288D01*
X131832Y89263D01*
X131944Y89151D01*
X131969Y89101D01*
X132006Y89064D01*
X132056Y89039D01*
X132168Y88927D01*
X132193Y88877D01*
X132256Y88815D01*
X132305Y88790D01*
X132418Y88678D01*
X132443Y88628D01*
X132480Y88590D01*
X132530Y88566D01*
X132667Y88428D01*
X132692Y88379D01*
X132729Y88341D01*
X132779Y88316D01*
X132891Y88204D01*
X132916Y88154D01*
X132978Y88092D01*
X133028Y88067D01*
X133140Y87955D01*
X133165Y87905D01*
X133203Y87868D01*
X133253Y87843D01*
X133365Y87731D01*
X133390Y87681D01*
X133452Y87618D01*
X133502Y87593D01*
X133614Y87481D01*
X133639Y87431D01*
X133676Y87394D01*
X133726Y87369D01*
X133863Y87232D01*
X133888Y87182D01*
X133926Y87145D01*
X133975Y87120D01*
X134088Y87008D01*
X134113Y86958D01*
X134175Y86896D01*
X134225Y86871D01*
X134337Y86758D01*
X134362Y86709D01*
X134399Y86671D01*
X134449Y86646D01*
X134561Y86534D01*
X134586Y86260D01*
X134649Y86198D01*
X134997Y86148D01*
X156209Y86173D01*
X156346Y86285D01*
X156371Y86335D01*
X156483Y86447D01*
X156533Y86472D01*
X156571Y86509D01*
X156596Y86559D01*
X156708Y86671D01*
X156758Y86696D01*
X156807Y86746D01*
X156820Y86758D01*
X156845Y86808D01*
X156957Y86920D01*
X157007Y86945D01*
X157044Y86983D01*
X157069Y87033D01*
X157206Y87170D01*
X157256Y87195D01*
X157294Y87232D01*
X157318Y87282D01*
X157431Y87394D01*
X157480Y87419D01*
X157543Y87481D01*
X157568Y87531D01*
X157680Y87643D01*
X157730Y87668D01*
X157767Y87706D01*
X157792Y87755D01*
X157904Y87868D01*
X157954Y87893D01*
X158017Y87955D01*
X158041Y88005D01*
X158153Y88117D01*
X158203Y88142D01*
X158241Y88179D01*
X158266Y88229D01*
X158403Y88366D01*
X158453Y88391D01*
X158490Y88428D01*
X158515Y88478D01*
X158627Y88590D01*
X158677Y88615D01*
X158739Y88678D01*
X158764Y88728D01*
X158876Y88840D01*
X158926Y88865D01*
X158964Y88902D01*
X158989Y88952D01*
X159101Y89064D01*
X159151Y89089D01*
X159213Y89151D01*
X159238Y89201D01*
X159350Y89313D01*
X159400Y89338D01*
X159437Y89376D01*
X159462Y89425D01*
X159599Y89563D01*
X159649Y89587D01*
X159686Y89625D01*
X159711Y89675D01*
X159824Y89787D01*
X159873Y89812D01*
X159936Y89874D01*
X159961Y89924D01*
X160073Y90036D01*
X160123Y90061D01*
X160160Y90098D01*
X160185Y90148D01*
X160297Y90260D01*
X160347Y90285D01*
X160409Y90348D01*
X160434Y90398D01*
X160546Y90510D01*
X160596Y90535D01*
X160634Y90572D01*
X160659Y90622D01*
X160796Y90759D01*
X160846Y90784D01*
X160883Y90821D01*
X160908Y90871D01*
X161020Y90983D01*
X161070Y91008D01*
X161132Y91071D01*
X161157Y91170D01*
X161182Y91370D01*
X161219Y91407D01*
X161269Y91432D01*
X161357Y91519D01*
X161406Y91719D01*
X161344Y91881D01*
X161294Y91906D01*
X161182Y91993D01*
X161207Y92142D01*
X161344Y92230D01*
X161381Y92342D01*
X161357Y92815D01*
X161294Y92878D01*
X161182Y92940D01*
X161207Y93065D01*
X161244Y93102D01*
X161294Y93127D01*
X161357Y93164D01*
X161381Y93264D01*
X161357Y93314D01*
X161294Y93376D01*
X161182Y93439D01*
X161207Y93563D01*
X161344Y93650D01*
X161381Y93688D01*
X161357Y93787D01*
X161294Y93850D01*
X161244Y93875D01*
X161182Y93912D01*
X161207Y94037D01*
X161344Y94124D01*
X161381Y94161D01*
X161357Y94286D01*
X161319Y94323D01*
X161194Y94398D01*
X161157Y94460D01*
X161219Y94548D01*
X161269Y94573D01*
X161357Y94635D01*
X161381Y94735D01*
X161357Y95208D01*
X161294Y95271D01*
X161182Y95333D01*
X161207Y95457D01*
X161244Y95495D01*
X161294Y95520D01*
X161357Y95557D01*
X161381Y95657D01*
X161357Y95707D01*
X161294Y95769D01*
X161182Y95831D01*
X161207Y95956D01*
X161344Y96043D01*
X161381Y96081D01*
X161357Y96180D01*
X161294Y96243D01*
X161244Y96268D01*
X161182Y96305D01*
X161207Y96430D01*
X161344Y96517D01*
X161381Y96554D01*
X161357Y96679D01*
X161319Y96716D01*
X161194Y96791D01*
X161182Y96903D01*
X161219Y96941D01*
X161269Y96966D01*
X161357Y97028D01*
X161381Y97128D01*
X161357Y97601D01*
X161294Y97663D01*
X161182Y97726D01*
X161170Y97788D01*
X161244Y97888D01*
X161294Y97913D01*
X161357Y97950D01*
X161381Y98050D01*
X161357Y98100D01*
X161294Y98162D01*
X161182Y98224D01*
X161207Y98349D01*
X161344Y98436D01*
X161381Y98474D01*
X161357Y98573D01*
X161294Y98636D01*
X161244Y98660D01*
X161182Y98698D01*
X161207Y98823D01*
X161344Y98910D01*
X161381Y98947D01*
X161357Y99072D01*
X161319Y99109D01*
X161194Y99184D01*
X161182Y99271D01*
X161244Y99333D01*
X161357Y99396D01*
X161381Y99496D01*
X161319Y99583D01*
X161194Y99658D01*
X161182Y99745D01*
X161244Y99807D01*
X161357Y99869D01*
X161381Y99969D01*
X161357Y100019D01*
X161294Y100081D01*
X161182Y100144D01*
X161194Y100256D01*
X161244Y100281D01*
X161381Y100393D01*
X161357Y100493D01*
X161294Y100555D01*
X161182Y100617D01*
X161207Y100742D01*
X161344Y100829D01*
X161381Y100866D01*
X161357Y100966D01*
X161294Y101028D01*
X161244Y101053D01*
X161182Y101091D01*
X161207Y101215D01*
X161344Y101303D01*
X161381Y101340D01*
X161357Y101465D01*
X161319Y101502D01*
X161194Y101577D01*
X161182Y101664D01*
X161244Y101726D01*
X161357Y101789D01*
X161381Y101888D01*
X161294Y102001D01*
X161182Y102063D01*
X161170Y102125D01*
X161232Y102212D01*
X161319Y102275D01*
X161381Y102337D01*
X161456Y102462D01*
X161668Y102674D01*
X161768Y102698D01*
X175203Y102674D01*
X175315Y102561D01*
X175340Y102512D01*
X175490Y102387D01*
X175514Y102063D01*
X175602Y101976D01*
X175651Y101951D01*
X175689Y101913D01*
X175664Y101789D01*
X175627Y101751D01*
X175577Y101726D01*
X175490Y101639D01*
X175514Y101091D01*
X175552Y101053D01*
X175602Y101028D01*
X175689Y100966D01*
X175664Y100817D01*
X175527Y100729D01*
X175490Y100692D01*
X175514Y100144D01*
X175577Y100081D01*
X175627Y100056D01*
X175689Y99994D01*
X175664Y99869D01*
X175627Y99832D01*
X175577Y99807D01*
X175514Y99770D01*
X175490Y99670D01*
X175514Y99171D01*
X175664Y99072D01*
X175689Y98997D01*
X175664Y98922D01*
X175602Y98860D01*
X175552Y98835D01*
X175490Y98773D01*
X175514Y98224D01*
X175577Y98162D01*
X175689Y98100D01*
X175664Y97950D01*
X175514Y97850D01*
X175490Y97751D01*
X175514Y97277D01*
X175602Y97190D01*
X175651Y97165D01*
X175689Y97128D01*
X175664Y97003D01*
X175627Y96966D01*
X175577Y96941D01*
X175490Y96853D01*
X175514Y96305D01*
X175552Y96268D01*
X175602Y96243D01*
X175689Y96180D01*
X175664Y96031D01*
X175527Y95944D01*
X175490Y95906D01*
X175514Y95358D01*
X175577Y95295D01*
X175627Y95271D01*
X175689Y95208D01*
X175664Y95084D01*
X175627Y95046D01*
X175577Y95021D01*
X175514Y94984D01*
X175490Y94884D01*
X175514Y94386D01*
X175664Y94286D01*
X175689Y94211D01*
X175664Y94136D01*
X175602Y94074D01*
X175552Y94049D01*
X175490Y93987D01*
X175514Y93439D01*
X175577Y93376D01*
X175689Y93314D01*
X175664Y93164D01*
X175514Y93065D01*
X175490Y92965D01*
X175514Y92491D01*
X175602Y92404D01*
X175651Y92379D01*
X175689Y92342D01*
X175664Y92217D01*
X175627Y92180D01*
X175577Y92155D01*
X175490Y92068D01*
X175514Y91519D01*
X175552Y91482D01*
X175602Y91457D01*
X175689Y91395D01*
X175664Y91270D01*
X175602Y91208D01*
X175552Y91183D01*
X175490Y91121D01*
X175514Y90572D01*
X175577Y90510D01*
X175627Y90485D01*
X175689Y90422D01*
X175664Y90298D01*
X175627Y90260D01*
X175577Y90236D01*
X175514Y90198D01*
X175490Y90098D01*
X175514Y89600D01*
X175664Y89500D01*
X175689Y89425D01*
X175664Y89351D01*
X175602Y89288D01*
X175552Y89263D01*
X175490Y89201D01*
X175514Y88653D01*
X175577Y88590D01*
X175689Y88528D01*
X175664Y88379D01*
X175514Y88279D01*
X175490Y88179D01*
X175514Y87706D01*
X175602Y87618D01*
X175651Y87593D01*
X175689Y87556D01*
X175664Y87431D01*
X175627Y87394D01*
X175577Y87369D01*
X175490Y87282D01*
X175514Y86734D01*
X175552Y86696D01*
X175602Y86671D01*
X175689Y86609D01*
X175664Y86484D01*
X175602Y86422D01*
X175552Y86397D01*
X175490Y86335D01*
X175514Y85786D01*
X175577Y85724D01*
X175627Y85699D01*
X175689Y85637D01*
X175664Y85512D01*
X175627Y85475D01*
X175502Y85400D01*
X175190Y85088D01*
X175178Y85051D01*
X175128Y85026D01*
X174966Y84864D01*
X174941Y84814D01*
X174792Y84690D01*
X173994Y83892D01*
X173981Y83855D01*
X173932Y83830D01*
X173770Y83668D01*
X173745Y83618D01*
X173595Y83493D01*
X172798Y82696D01*
X172785Y82658D01*
X172735Y82633D01*
X172548Y82446D01*
X172536Y82409D01*
X172486Y82384D01*
X171601Y81499D01*
X171589Y81462D01*
X171539Y81437D01*
X171352Y81250D01*
X171339Y81212D01*
X171290Y81187D01*
X170405Y80303D01*
X170392Y80265D01*
X170342Y80240D01*
X170155Y80053D01*
X170143Y80016D01*
X170093Y79991D01*
X169208Y79106D01*
X169196Y79069D01*
X169146Y79044D01*
X168959Y78857D01*
X168946Y78820D01*
X168897Y78795D01*
X168012Y77910D01*
X167999Y77872D01*
X167949Y77847D01*
X167763Y77660D01*
X167750Y77623D01*
X167700Y77598D01*
X166815Y76713D01*
X166803Y76676D01*
X166753Y76651D01*
X166566Y76464D01*
X166554Y76427D01*
X166504Y76402D01*
X165619Y75517D01*
X165606Y75479D01*
X165557Y75455D01*
X165370Y75268D01*
X165357Y75230D01*
X165307Y75205D01*
X164422Y74320D01*
X164410Y74283D01*
X164360Y74258D01*
X164173Y74071D01*
X164161Y74034D01*
X164111Y74009D01*
X163226Y73124D01*
X163214Y73087D01*
X163164Y73062D01*
X162977Y72875D01*
X162964Y72837D01*
X162914Y72812D01*
X162054Y71953D01*
X162029Y71903D01*
X161992Y71865D01*
X161818Y71840D01*
X161419Y71865D01*
X161344Y71840D01*
X160883Y71853D01*
X160696Y71840D01*
X160621Y71865D01*
X160173Y71840D01*
X160098Y71865D01*
X159724Y71840D01*
X159649Y71865D01*
X159225Y71840D01*
X159151Y71865D01*
X158777Y71840D01*
X158702Y71865D01*
X158253Y71840D01*
X158179Y71865D01*
X157830Y71840D01*
X157755Y71865D01*
X157306Y71840D01*
X157231Y71865D01*
X156857Y71840D01*
X156783Y71865D01*
X156334Y71840D01*
X156259Y71865D01*
X155910Y71840D01*
X155836Y71865D01*
X155387Y71840D01*
X155312Y71865D01*
X154938Y71840D01*
X154863Y71865D01*
X154440Y71840D01*
X154365Y71865D01*
X153991Y71840D01*
X153916Y71865D01*
X153468Y71840D01*
X153393Y71865D01*
X153044Y71840D01*
X152969Y71865D01*
X152520Y71840D01*
X152445Y71865D01*
X152072Y71840D01*
X151997Y71865D01*
X151548Y71840D01*
X151473Y71865D01*
X151124Y71840D01*
X151050Y71865D01*
X150601Y71840D01*
X150526Y71865D01*
X150152Y71840D01*
X150078Y71865D01*
X149654Y71840D01*
X149579Y71865D01*
X149205Y71840D01*
X149130Y71865D01*
X148682Y71840D01*
X148607Y71865D01*
X148258Y71840D01*
X148183Y71865D01*
X147734Y71840D01*
X147660Y71865D01*
X147286Y71840D01*
X147211Y71865D01*
X146762Y71840D01*
X146688Y71865D01*
X146339Y71840D01*
X146264Y71865D01*
X145815Y71840D01*
X145740Y71865D01*
X145367Y71840D01*
X145292Y71865D01*
X144868Y71840D01*
X144793Y71865D01*
X144419Y71840D01*
X144345Y71865D01*
X143896Y71840D01*
X143821Y71865D01*
X143472Y71840D01*
X143398Y71865D01*
X142949Y71840D01*
X142874Y71865D01*
X142500Y71840D01*
X142425Y71865D01*
X141977Y71840D01*
X141902Y71865D01*
X141553Y71840D01*
X141478Y71865D01*
X141030Y71840D01*
X140955Y71865D01*
X140581Y71840D01*
X140506Y71865D01*
X140082Y71840D01*
X140007Y71865D01*
X139634Y71840D01*
X139559Y71865D01*
X139110Y71840D01*
X139035Y71865D01*
X138686Y71840D01*
X138612Y71865D01*
X138163Y71840D01*
X138088Y71865D01*
X137714Y71840D01*
X137640Y71865D01*
X137191Y71840D01*
X137116Y71865D01*
X136767Y71840D01*
X136692Y71865D01*
X136244Y71840D01*
X136169Y71865D01*
X135795Y71840D01*
X135720Y71865D01*
X135296Y71840D01*
X135222Y71865D01*
X134848Y71840D01*
X134773Y71865D01*
X134324Y71840D01*
X134250Y71865D01*
X133901Y71840D01*
X133826Y71865D01*
X133377Y71840D01*
X133302Y71865D01*
X132929Y71840D01*
X132854Y71865D01*
X132405Y71840D01*
X132330Y71865D01*
X131981Y71840D01*
X131907Y71865D01*
X131458Y71840D01*
X131383Y71865D01*
X131009Y71840D01*
X130934Y71865D01*
X130511Y71840D01*
X130436Y71865D01*
X130062Y71840D01*
X129987Y71865D01*
X129564Y71840D01*
X129489Y71865D01*
X128990Y71840D01*
X128878Y71927D01*
X128853Y71977D01*
X128716Y72115D01*
X128666Y72139D01*
X128629Y72177D01*
X128604Y72227D01*
X128492Y72339D01*
X128442Y72364D01*
X128380Y72426D01*
X128355Y72476D01*
X128243Y72588D01*
X128193Y72613D01*
X128155Y72650D01*
X128130Y72700D01*
X127993Y72837D01*
X127943Y72862D01*
X127906Y72900D01*
X127881Y72950D01*
X127769Y73062D01*
X127719Y73087D01*
X127682Y73124D01*
X127657Y73174D01*
X127520Y73311D01*
X127470Y73336D01*
X127432Y73373D01*
X127408Y73423D01*
X127295Y73535D01*
X127246Y73560D01*
X127183Y73622D01*
X127158Y73672D01*
X127046Y73784D01*
X126996Y73809D01*
X126959Y73847D01*
X126934Y73897D01*
X126797Y74034D01*
X126747Y74059D01*
X126710Y74096D01*
X126685Y74146D01*
X126573Y74258D01*
X126523Y74283D01*
X126485Y74320D01*
X126460Y74370D01*
X126323Y74507D01*
X126273Y74532D01*
X126236Y74570D01*
X126211Y74619D01*
X126099Y74732D01*
X126049Y74757D01*
X125987Y74819D01*
X125962Y74869D01*
X125850Y74981D01*
X125800Y75006D01*
X125762Y75043D01*
X125737Y75093D01*
X125625Y75205D01*
X125575Y75230D01*
X125513Y75293D01*
X125488Y75342D01*
X125376Y75455D01*
X125326Y75479D01*
X125289Y75517D01*
X125264Y75567D01*
X125127Y75704D01*
X125077Y75729D01*
X125040Y75766D01*
X125015Y75816D01*
X124902Y75928D01*
X124853Y75953D01*
X124790Y76015D01*
X124765Y76065D01*
X124653Y76177D01*
X124603Y76202D01*
X124566Y76240D01*
X124541Y76290D01*
X124404Y76427D01*
X124354Y76452D01*
X124317Y76489D01*
X124292Y76539D01*
X124180Y76651D01*
X124130Y76676D01*
X124092Y76713D01*
X124067Y76763D01*
X123930Y76900D01*
X123881Y76925D01*
X123843Y76963D01*
X123818Y77012D01*
X123706Y77125D01*
X123656Y77150D01*
X123594Y77212D01*
X123569Y77262D01*
X123457Y77374D01*
X123407Y77399D01*
X123370Y77436D01*
X123345Y77486D01*
X123232Y77598D01*
X123183Y77623D01*
X123120Y77685D01*
X123095Y77735D01*
X122983Y77847D01*
X122933Y77872D01*
X122896Y77910D01*
X122871Y77960D01*
X122734Y78097D01*
X122684Y78122D01*
X122647Y78159D01*
X122622Y78334D01*
X122597Y78458D01*
X122535Y78520D01*
X122410Y78595D01*
X122310Y78745D01*
X122260Y78770D01*
X122173Y78832D01*
X122148Y78882D01*
X122098Y78932D01*
X122086Y78969D01*
X122036Y78994D01*
X121986Y79044D01*
X121936Y79069D01*
X121849Y79181D01*
X121837Y79218D01*
X121787Y79243D01*
X121737Y79293D01*
X121687Y79318D01*
X121562Y79468D01*
X121512Y79517D01*
X121463Y79542D01*
X121338Y79692D01*
X121263Y79767D01*
X121213Y79792D01*
X121089Y79941D01*
X121039Y79991D01*
X120989Y80016D01*
X120927Y80103D01*
X120889Y80166D01*
X120840Y80190D01*
X120790Y80240D01*
X120740Y80265D01*
X120677Y80352D01*
X120640Y80415D01*
X120590Y80440D01*
X120540Y80490D01*
X120491Y80514D01*
X120428Y80602D01*
X120316Y80714D01*
X120266Y80739D01*
X120204Y80826D01*
X120167Y80888D01*
X120117Y80913D01*
X120067Y80963D01*
X120017Y80988D01*
X119955Y81075D01*
X119917Y81138D01*
X119867Y81163D01*
X119780Y81225D01*
X119755Y81275D01*
X119705Y81325D01*
X119693Y81362D01*
X119643Y81387D01*
X119593Y81437D01*
X119543Y81462D01*
X119481Y81549D01*
X119444Y81611D01*
X119394Y81636D01*
X119344Y81686D01*
X119294Y81711D01*
X119232Y81798D01*
X119120Y81910D01*
X119070Y81935D01*
X118982Y82047D01*
X118970Y82085D01*
X118920Y82110D01*
X118870Y82160D01*
X118820Y82184D01*
X118733Y82297D01*
X118721Y82334D01*
X118671Y82359D01*
X118584Y82421D01*
X118559Y82471D01*
X118509Y82521D01*
X118497Y82558D01*
X118447Y82583D01*
X118397Y82633D01*
X118347Y82658D01*
X118222Y82808D01*
X118147Y82882D01*
X118098Y82907D01*
X117973Y83057D01*
X117923Y83107D01*
X117873Y83132D01*
X117811Y83219D01*
X117774Y83281D01*
X117724Y83306D01*
X117674Y83356D01*
X117624Y83381D01*
X117562Y83468D01*
X117524Y83531D01*
X117475Y83555D01*
X117362Y83643D01*
X117338Y83693D01*
X117200Y83830D01*
X117150Y83855D01*
X117088Y83942D01*
X116951Y84079D01*
X116901Y84104D01*
X116839Y84191D01*
X116727Y84303D01*
X116677Y84328D01*
X116615Y84415D01*
X116577Y84478D01*
X116527Y84503D01*
X116477Y84552D01*
X116428Y84577D01*
X116365Y84665D01*
X116328Y84727D01*
X116278Y84752D01*
X116166Y84839D01*
X116141Y84889D01*
X116004Y85026D01*
X115954Y85051D01*
X115829Y85201D01*
X115755Y85275D01*
X115705Y85300D01*
X115605Y85450D01*
X115555Y85475D01*
X115443Y85562D01*
X115418Y85662D01*
X115443Y86060D01*
X115431Y102325D01*
X115493Y102412D01*
X115530Y102449D01*
X115580Y102474D01*
X115667Y102561D01*
X115692Y102611D01*
X115730Y102674D01*
X115904Y102723D01*
D02*
G37*
G36*
X135745Y102574D02*
X155387Y102549D01*
X155561Y102424D01*
X155574Y102237D01*
X155474Y102013D01*
X155499Y101913D01*
X155486Y94249D01*
X155524Y94161D01*
X155574Y94037D01*
X155586Y93975D01*
X155536Y93850D01*
X155449Y93763D01*
X155424Y93713D01*
X155013Y93301D01*
X154976Y93289D01*
X154951Y93239D01*
X154764Y93052D01*
X154726Y93040D01*
X154701Y92990D01*
X154539Y92828D01*
X154502Y92815D01*
X154477Y92766D01*
X154290Y92579D01*
X154253Y92566D01*
X154228Y92516D01*
X153841Y92130D01*
X153792Y92105D01*
X153642Y91955D01*
X153468Y91931D01*
X153218Y91955D01*
X150651Y91931D01*
X145192Y91955D01*
X145117Y91931D01*
X144220D01*
X138013Y91955D01*
X137939Y91931D01*
X137316Y91955D01*
X137253Y91993D01*
X137228Y92043D01*
X137166Y92130D01*
X137116Y92155D01*
X136979Y92267D01*
X136954Y92317D01*
X136904Y92367D01*
X136892Y92404D01*
X136842Y92429D01*
X136705Y92566D01*
X136692Y92604D01*
X136643Y92628D01*
X136505Y92741D01*
X136481Y92790D01*
X136431Y92840D01*
X136418Y92878D01*
X136368Y92903D01*
X136231Y93040D01*
X136206Y93090D01*
X136169Y93127D01*
X136119Y93152D01*
X136007Y93264D01*
X135982Y93314D01*
X135920Y93376D01*
X135870Y93401D01*
X135758Y93513D01*
X135733Y93563D01*
X135695Y93601D01*
X135646Y93625D01*
X135533Y93738D01*
X135508Y93912D01*
X135484Y94012D01*
X135496Y97539D01*
X135471Y97639D01*
X135434Y97776D01*
X135459Y97925D01*
X135484Y98000D01*
X135508Y98100D01*
X135484Y98324D01*
X135508Y98399D01*
X135484Y98598D01*
X135434Y98723D01*
X135459Y98897D01*
X135484Y98972D01*
X135508Y99072D01*
X135496Y99284D01*
X135508Y99446D01*
X135484Y99521D01*
X135434Y99695D01*
X135459Y99845D01*
X135484Y99919D01*
X135508Y100019D01*
X135484Y100418D01*
X135508Y102462D01*
X135571Y102549D01*
X135745Y102574D01*
D02*
G37*
G36*
X179536Y6302D02*
X173524D01*
X173500Y6289D01*
X173487Y6277D01*
X173475Y6252D01*
Y6240D01*
Y6227D01*
Y6215D01*
Y290D01*
Y253D01*
Y240D01*
X173487Y216D01*
X173512Y203D01*
X179548D01*
X179561Y216D01*
X179585Y265D01*
Y278D01*
Y290D01*
Y6215D01*
X179573Y6265D01*
X179561Y6277D01*
X179536Y6302D01*
D02*
G37*
G36*
X167809Y4351D02*
X163612D01*
X163599Y4339D01*
X163587Y4326D01*
X163575Y4314D01*
X163563Y4289D01*
Y4277D01*
Y4265D01*
Y3043D01*
X167871Y3018D01*
Y4265D01*
Y4302D01*
X167858Y4314D01*
X167846Y4326D01*
X167809Y4351D01*
D02*
G37*
G36*
X125517D02*
X121320D01*
X121308Y4339D01*
X121295Y4326D01*
X121283Y4314D01*
X121271Y4289D01*
Y4277D01*
Y4265D01*
Y3043D01*
X125579Y3018D01*
Y4265D01*
Y4302D01*
X125566Y4314D01*
X125554Y4326D01*
X125517Y4351D01*
D02*
G37*
G36*
X116086D02*
X111889D01*
X111876Y4339D01*
X111864Y4326D01*
X111852Y4314D01*
X111840Y4289D01*
Y4277D01*
Y4265D01*
Y240D01*
X111852Y191D01*
X111864Y179D01*
X111876Y166D01*
X116061D01*
X116111Y179D01*
X116123D01*
X116148Y216D01*
Y240D01*
Y4265D01*
Y4302D01*
X116135Y4314D01*
X116123Y4326D01*
X116086Y4351D01*
D02*
G37*
G36*
X101729D02*
X97569D01*
X97520Y4339D01*
X97508Y4326D01*
X97495Y4314D01*
X97483Y4289D01*
Y4277D01*
Y4265D01*
Y240D01*
X97495Y191D01*
X97508Y179D01*
X97545Y166D01*
X101717D01*
X101754Y179D01*
X101766D01*
X101791Y216D01*
Y240D01*
Y4265D01*
Y4302D01*
X101779Y4314D01*
X101766Y4326D01*
X101729Y4351D01*
D02*
G37*
G36*
X67079D02*
X62882D01*
X62869Y4339D01*
X62857Y4326D01*
X62845Y4314D01*
X62832Y4289D01*
Y4277D01*
Y4265D01*
Y240D01*
X62845Y191D01*
X62857Y179D01*
X62869Y166D01*
X67054D01*
X67103Y179D01*
X67116D01*
X67140Y216D01*
Y240D01*
Y4265D01*
Y4302D01*
X67128Y4314D01*
X67116Y4326D01*
X67079Y4351D01*
D02*
G37*
G36*
X36218D02*
X32021D01*
X32008Y4339D01*
X31996Y4326D01*
X31983Y4314D01*
X31971Y4289D01*
Y4277D01*
Y4265D01*
Y3043D01*
X36279Y3018D01*
Y4265D01*
Y4302D01*
X36267Y4314D01*
X36255Y4326D01*
X36218Y4351D01*
D02*
G37*
G36*
X26404D02*
X22207D01*
X22194Y4339D01*
X22182Y4326D01*
X22170Y4314D01*
X22157Y4289D01*
Y4277D01*
Y4265D01*
Y3043D01*
X26466Y3018D01*
Y4265D01*
Y4302D01*
X26453Y4314D01*
X26441Y4326D01*
X26404Y4351D01*
D02*
G37*
G36*
X145206D02*
X141022D01*
X140972Y4339D01*
X140960Y4326D01*
X140948Y4314D01*
X140935Y4289D01*
Y4277D01*
Y4265D01*
Y240D01*
X140948Y191D01*
X140960Y179D01*
X140997Y166D01*
X145182D01*
X145231Y179D01*
X145243D01*
X145256Y216D01*
Y240D01*
Y4265D01*
Y4302D01*
X145243Y4314D01*
Y4326D01*
X145206Y4351D01*
D02*
G37*
G36*
X160326Y55874D02*
X150043D01*
X150001Y55853D01*
X149979Y55832D01*
X149958Y55790D01*
Y55769D01*
Y55747D01*
Y55726D01*
Y51156D01*
X160410D01*
Y55726D01*
X160389Y55811D01*
X160368Y55832D01*
X160326Y55874D01*
D02*
G37*
%LPD*%
D13*
X246906Y29736D02*
D03*
X43706D02*
D03*
X246906Y182136D02*
D03*
X43706D02*
D03*
D14*
X81806Y29736D02*
D03*
X183406D02*
D03*
X132606D02*
D03*
X158006D02*
D03*
X107206D02*
D03*
X208806D02*
D03*
X158006Y182136D02*
D03*
X132606D02*
D03*
X183406D02*
D03*
X107206D02*
D03*
D15*
X341670Y202320D02*
D03*
Y92320D02*
D03*
D16*
X320670Y187320D02*
D03*
Y167320D02*
D03*
Y147320D02*
D03*
Y127320D02*
D03*
D17*
Y107320D02*
D03*
M02*
