M48
;Layer_Color=9474304
;FILE_FORMAT=4:4
METRIC,LZ
;TYPE=PLATED
T1F00S00C0.7000
T2F00S00C0.9500
T3F00S00C2.5400
;TYPE=NON_PLATED
T4F00S00C1.1000
%
T01
X0032067Y0010732
Y0012732
Y0014732
Y0016732
Y0018732
T02
X00081806Y00029736
X00107206
X00132606
X00158006
X00183406
X00208806
X00183406Y00182136
X00158006
X00132606
X00107206
T03
X00043706Y00029736
X00246906
Y00182136
X00043706
T04
X0034167Y0009232
Y0020232
M30
