G04*
G04 #@! TF.GenerationSoftware,Altium Limited,Altium Designer,23.1.1 (15)*
G04*
G04 Layer_Physical_Order=2*
G04 Layer_Color=16711680*
%FSLAX44Y44*%
%MOMM*%
G71*
G04*
G04 #@! TF.SameCoordinates,4BF497F3-78CA-41F9-8CC1-BB5D37DA9F24*
G04*
G04*
G04 #@! TF.FilePolarity,Positive*
G04*
G01*
G75*
%ADD15C,1.1000*%
%ADD16C,1.2000*%
%ADD17R,1.2000X1.2000*%
%ADD18C,3.8100*%
%ADD19C,1.2700*%
G36*
X394808Y217357D02*
X398432Y216386D01*
X401897Y214950D01*
X405146Y213075D01*
X408122Y210791D01*
X410775Y208139D01*
X413058Y205163D01*
X414934Y201914D01*
X416369Y198448D01*
X417340Y194825D01*
X417830Y191106D01*
Y189230D01*
Y21590D01*
Y19717D01*
X417341Y16002D01*
X416371Y12384D01*
X414938Y8922D01*
X413064Y5678D01*
X410784Y2705D01*
X408134Y56D01*
X405162Y-2225D01*
X401918Y-4098D01*
X398456Y-5531D01*
X394837Y-6501D01*
X391123Y-6990D01*
X389250D01*
X18391Y-6961D01*
X15829D01*
X10804Y-5961D01*
X6070Y-4000D01*
X1810Y-1154D01*
X-1813Y2469D01*
X-4660Y6729D01*
X-6620Y11463D01*
X-7620Y16488D01*
Y19050D01*
Y190500D01*
Y192290D01*
X-7153Y195840D01*
X-6226Y199298D01*
X-4856Y202606D01*
X-3066Y205707D01*
X-886Y208547D01*
X1645Y211079D01*
X4486Y213258D01*
X7587Y215048D01*
X10894Y216418D01*
X14353Y217345D01*
X17902Y217812D01*
X19692D01*
X389214Y217846D01*
X391089D01*
X394808Y217357D01*
D02*
G37*
%LPC*%
G36*
X342729Y210360D02*
X340611D01*
X338567Y209812D01*
X336733Y208754D01*
X335236Y207257D01*
X334178Y205423D01*
X333630Y203379D01*
Y201262D01*
X334178Y199217D01*
X335236Y197383D01*
X336733Y195886D01*
X338567Y194828D01*
X340611Y194280D01*
X342729D01*
X344773Y194828D01*
X346607Y195886D01*
X348104Y197383D01*
X349162Y199217D01*
X349710Y201262D01*
Y203379D01*
X349162Y205423D01*
X348104Y207257D01*
X346607Y208754D01*
X344773Y209812D01*
X342729Y210360D01*
D02*
G37*
G36*
X249032Y203726D02*
X248176D01*
Y183406D01*
X268496D01*
Y184263D01*
X267666Y188434D01*
X266039Y192363D01*
X263676Y195899D01*
X260669Y198906D01*
X257133Y201269D01*
X253204Y202896D01*
X249032Y203726D01*
D02*
G37*
G36*
X245636D02*
X244780D01*
X240609Y202896D01*
X236679Y201269D01*
X233143Y198906D01*
X230136Y195899D01*
X227773Y192363D01*
X226146Y188434D01*
X225316Y184263D01*
Y183406D01*
X245636D01*
Y203726D01*
D02*
G37*
G36*
X45833D02*
X44976D01*
Y183406D01*
X65296D01*
Y184263D01*
X64466Y188434D01*
X62839Y192363D01*
X60476Y195899D01*
X57469Y198906D01*
X53933Y201269D01*
X50004Y202896D01*
X45833Y203726D01*
D02*
G37*
G36*
X42436D02*
X41580D01*
X37408Y202896D01*
X33479Y201269D01*
X29943Y198906D01*
X26936Y195899D01*
X24573Y192363D01*
X22946Y188434D01*
X22116Y184263D01*
Y183406D01*
X42436D01*
Y203726D01*
D02*
G37*
G36*
X321794Y195860D02*
X319546D01*
X317374Y195278D01*
X315426Y194154D01*
X313836Y192564D01*
X312712Y190616D01*
X312130Y188444D01*
Y186196D01*
X312712Y184024D01*
X313836Y182076D01*
X315426Y180486D01*
X317374Y179362D01*
X319546Y178780D01*
X321794D01*
X323966Y179362D01*
X325914Y180486D01*
X327504Y182076D01*
X328628Y184024D01*
X329210Y186196D01*
Y188444D01*
X328628Y190616D01*
X327504Y192564D01*
X325914Y194154D01*
X323966Y195278D01*
X321794Y195860D01*
D02*
G37*
G36*
X184576Y191026D02*
X182236D01*
X179975Y190420D01*
X177947Y189250D01*
X176292Y187595D01*
X175122Y185567D01*
X174516Y183306D01*
Y180966D01*
X175122Y178705D01*
X176292Y176677D01*
X177947Y175022D01*
X179975Y173852D01*
X182236Y173246D01*
X184576D01*
X186837Y173852D01*
X188865Y175022D01*
X190520Y176677D01*
X191690Y178705D01*
X192296Y180966D01*
Y183306D01*
X191690Y185567D01*
X190520Y187595D01*
X188865Y189250D01*
X186837Y190420D01*
X184576Y191026D01*
D02*
G37*
G36*
X159176D02*
X156836D01*
X154575Y190420D01*
X152547Y189250D01*
X150892Y187595D01*
X149722Y185567D01*
X149116Y183306D01*
Y180966D01*
X149722Y178705D01*
X150892Y176677D01*
X152547Y175022D01*
X154575Y173852D01*
X156836Y173246D01*
X159176D01*
X161437Y173852D01*
X163465Y175022D01*
X165120Y176677D01*
X166290Y178705D01*
X166896Y180966D01*
Y183306D01*
X166290Y185567D01*
X165120Y187595D01*
X163465Y189250D01*
X161437Y190420D01*
X159176Y191026D01*
D02*
G37*
G36*
X133776D02*
X131436D01*
X129175Y190420D01*
X127147Y189250D01*
X125492Y187595D01*
X124322Y185567D01*
X123716Y183306D01*
Y180966D01*
X124322Y178705D01*
X125492Y176677D01*
X127147Y175022D01*
X129175Y173852D01*
X131436Y173246D01*
X133776D01*
X136037Y173852D01*
X138065Y175022D01*
X139720Y176677D01*
X140890Y178705D01*
X141496Y180966D01*
Y183306D01*
X140890Y185567D01*
X139720Y187595D01*
X138065Y189250D01*
X136037Y190420D01*
X133776Y191026D01*
D02*
G37*
G36*
X108376D02*
X106036D01*
X103775Y190420D01*
X101747Y189250D01*
X100092Y187595D01*
X98922Y185567D01*
X98316Y183306D01*
Y180966D01*
X98922Y178705D01*
X100092Y176677D01*
X101747Y175022D01*
X103775Y173852D01*
X106036Y173246D01*
X108376D01*
X110637Y173852D01*
X112665Y175022D01*
X114320Y176677D01*
X115490Y178705D01*
X116096Y180966D01*
Y183306D01*
X115490Y185567D01*
X114320Y187595D01*
X112665Y189250D01*
X110637Y190420D01*
X108376Y191026D01*
D02*
G37*
G36*
X321940Y175821D02*
Y168590D01*
X329171D01*
X328628Y170616D01*
X327504Y172564D01*
X325914Y174154D01*
X323966Y175278D01*
X321940Y175821D01*
D02*
G37*
G36*
X319400D02*
X317374Y175278D01*
X315426Y174154D01*
X313836Y172564D01*
X312712Y170616D01*
X312169Y168590D01*
X319400D01*
Y175821D01*
D02*
G37*
G36*
X268496Y180866D02*
X248176D01*
Y160546D01*
X249032D01*
X253204Y161376D01*
X257133Y163003D01*
X260669Y165366D01*
X263676Y168373D01*
X266039Y171909D01*
X267666Y175839D01*
X268496Y180010D01*
Y180866D01*
D02*
G37*
G36*
X245636D02*
X225316D01*
Y180010D01*
X226146Y175839D01*
X227773Y171909D01*
X230136Y168373D01*
X233143Y165366D01*
X236679Y163003D01*
X240609Y161376D01*
X244780Y160546D01*
X245636D01*
Y180866D01*
D02*
G37*
G36*
X65296D02*
X44976D01*
Y160546D01*
X45833D01*
X50004Y161376D01*
X53933Y163003D01*
X57469Y165366D01*
X60476Y168373D01*
X62839Y171909D01*
X64466Y175839D01*
X65296Y180010D01*
Y180866D01*
D02*
G37*
G36*
X42436D02*
X22116D01*
Y180010D01*
X22946Y175839D01*
X24573Y171909D01*
X26936Y168373D01*
X29943Y165366D01*
X33479Y163003D01*
X37408Y161376D01*
X41580Y160546D01*
X42436D01*
Y180866D01*
D02*
G37*
G36*
X319400Y166050D02*
X312169D01*
X312712Y164024D01*
X313836Y162076D01*
X315426Y160486D01*
X317374Y159362D01*
X319400Y158819D01*
Y166050D01*
D02*
G37*
G36*
X329171D02*
X321940D01*
Y158819D01*
X323966Y159362D01*
X325914Y160486D01*
X327504Y162076D01*
X328628Y164024D01*
X329171Y166050D01*
D02*
G37*
G36*
X321794Y155860D02*
X319546D01*
X317374Y155278D01*
X315426Y154154D01*
X313836Y152564D01*
X312712Y150616D01*
X312130Y148444D01*
Y146196D01*
X312712Y144024D01*
X313836Y142076D01*
X315426Y140486D01*
X317374Y139362D01*
X319546Y138780D01*
X321794D01*
X323966Y139362D01*
X325914Y140486D01*
X327504Y142076D01*
X328628Y144024D01*
X329210Y146196D01*
Y148444D01*
X328628Y150616D01*
X327504Y152564D01*
X325914Y154154D01*
X323966Y155278D01*
X321794Y155860D01*
D02*
G37*
G36*
Y135860D02*
X319546D01*
X317374Y135278D01*
X315426Y134154D01*
X313836Y132564D01*
X312712Y130616D01*
X312130Y128444D01*
Y126196D01*
X312712Y124024D01*
X313836Y122076D01*
X315426Y120486D01*
X317374Y119362D01*
X319546Y118780D01*
X321794D01*
X323966Y119362D01*
X325914Y120486D01*
X327504Y122076D01*
X328628Y124024D01*
X329210Y126196D01*
Y128444D01*
X328628Y130616D01*
X327504Y132564D01*
X325914Y134154D01*
X323966Y135278D01*
X321794Y135860D01*
D02*
G37*
G36*
X329210Y115860D02*
X312130D01*
Y98780D01*
X329210D01*
Y115860D01*
D02*
G37*
G36*
X342729Y100360D02*
X340611D01*
X338567Y99812D01*
X336733Y98754D01*
X335236Y97257D01*
X334178Y95423D01*
X333630Y93378D01*
Y91262D01*
X334178Y89217D01*
X335236Y87383D01*
X336733Y85886D01*
X338567Y84828D01*
X340611Y84280D01*
X342729D01*
X344773Y84828D01*
X346607Y85886D01*
X348104Y87383D01*
X349162Y89217D01*
X349710Y91262D01*
Y93378D01*
X349162Y95423D01*
X348104Y97257D01*
X346607Y98754D01*
X344773Y99812D01*
X342729Y100360D01*
D02*
G37*
G36*
X133876Y38599D02*
Y31006D01*
X141469D01*
X140890Y33167D01*
X139720Y35195D01*
X138065Y36850D01*
X136037Y38020D01*
X133876Y38599D01*
D02*
G37*
G36*
X131336D02*
X129175Y38020D01*
X127147Y36850D01*
X125492Y35195D01*
X124322Y33167D01*
X123743Y31006D01*
X131336D01*
Y38599D01*
D02*
G37*
G36*
X141469Y28466D02*
X133876D01*
Y20873D01*
X136037Y21452D01*
X138065Y22622D01*
X139720Y24277D01*
X140890Y26305D01*
X141469Y28466D01*
D02*
G37*
G36*
X131336D02*
X123743D01*
X124322Y26305D01*
X125492Y24277D01*
X127147Y22622D01*
X129175Y21452D01*
X131336Y20873D01*
Y28466D01*
D02*
G37*
G36*
X209976Y38626D02*
X207636D01*
X205375Y38020D01*
X203347Y36850D01*
X201692Y35195D01*
X200522Y33167D01*
X199916Y30906D01*
Y28566D01*
X200522Y26305D01*
X201692Y24277D01*
X203347Y22622D01*
X205375Y21452D01*
X207636Y20846D01*
X209976D01*
X212237Y21452D01*
X214265Y22622D01*
X215920Y24277D01*
X217090Y26305D01*
X217696Y28566D01*
Y30906D01*
X217090Y33167D01*
X215920Y35195D01*
X214265Y36850D01*
X212237Y38020D01*
X209976Y38626D01*
D02*
G37*
G36*
X184576D02*
X182236D01*
X179975Y38020D01*
X177947Y36850D01*
X176292Y35195D01*
X175122Y33167D01*
X174516Y30906D01*
Y28566D01*
X175122Y26305D01*
X176292Y24277D01*
X177947Y22622D01*
X179975Y21452D01*
X182236Y20846D01*
X184576D01*
X186837Y21452D01*
X188865Y22622D01*
X190520Y24277D01*
X191690Y26305D01*
X192296Y28566D01*
Y30906D01*
X191690Y33167D01*
X190520Y35195D01*
X188865Y36850D01*
X186837Y38020D01*
X184576Y38626D01*
D02*
G37*
G36*
X159176D02*
X156836D01*
X154575Y38020D01*
X152547Y36850D01*
X150892Y35195D01*
X149722Y33167D01*
X149116Y30906D01*
Y28566D01*
X149722Y26305D01*
X150892Y24277D01*
X152547Y22622D01*
X154575Y21452D01*
X156836Y20846D01*
X159176D01*
X161437Y21452D01*
X163465Y22622D01*
X165120Y24277D01*
X166290Y26305D01*
X166896Y28566D01*
Y30906D01*
X166290Y33167D01*
X165120Y35195D01*
X163465Y36850D01*
X161437Y38020D01*
X159176Y38626D01*
D02*
G37*
G36*
X108376D02*
X106036D01*
X103775Y38020D01*
X101747Y36850D01*
X100092Y35195D01*
X98922Y33167D01*
X98316Y30906D01*
Y28566D01*
X98922Y26305D01*
X100092Y24277D01*
X101747Y22622D01*
X103775Y21452D01*
X106036Y20846D01*
X108376D01*
X110637Y21452D01*
X112665Y22622D01*
X114320Y24277D01*
X115490Y26305D01*
X116096Y28566D01*
Y30906D01*
X115490Y33167D01*
X114320Y35195D01*
X112665Y36850D01*
X110637Y38020D01*
X108376Y38626D01*
D02*
G37*
G36*
X82976D02*
X80636D01*
X78375Y38020D01*
X76347Y36850D01*
X74692Y35195D01*
X73522Y33167D01*
X72916Y30906D01*
Y28566D01*
X73522Y26305D01*
X74692Y24277D01*
X76347Y22622D01*
X78375Y21452D01*
X80636Y20846D01*
X82976D01*
X85237Y21452D01*
X87265Y22622D01*
X88920Y24277D01*
X90090Y26305D01*
X90696Y28566D01*
Y30906D01*
X90090Y33167D01*
X88920Y35195D01*
X87265Y36850D01*
X85237Y38020D01*
X82976Y38626D01*
D02*
G37*
G36*
X249032Y51326D02*
X244780D01*
X240609Y50496D01*
X236679Y48869D01*
X233143Y46506D01*
X230136Y43499D01*
X227773Y39963D01*
X226146Y36034D01*
X225316Y31862D01*
Y27610D01*
X226146Y23438D01*
X227773Y19509D01*
X230136Y15973D01*
X233143Y12966D01*
X236679Y10603D01*
X240609Y8976D01*
X244780Y8146D01*
X249032D01*
X253204Y8976D01*
X257133Y10603D01*
X260669Y12966D01*
X263676Y15973D01*
X266039Y19509D01*
X267666Y23438D01*
X268496Y27610D01*
Y31862D01*
X267666Y36034D01*
X266039Y39963D01*
X263676Y43499D01*
X260669Y46506D01*
X257133Y48869D01*
X253204Y50496D01*
X249032Y51326D01*
D02*
G37*
G36*
X45833D02*
X41580D01*
X37408Y50496D01*
X33479Y48869D01*
X29943Y46506D01*
X26936Y43499D01*
X24573Y39963D01*
X22946Y36034D01*
X22116Y31862D01*
Y27610D01*
X22946Y23438D01*
X24573Y19509D01*
X26936Y15973D01*
X29943Y12966D01*
X33479Y10603D01*
X37408Y8976D01*
X41580Y8146D01*
X45833D01*
X50004Y8976D01*
X53933Y10603D01*
X57469Y12966D01*
X60476Y15973D01*
X62839Y19509D01*
X64466Y23438D01*
X65296Y27610D01*
Y31862D01*
X64466Y36034D01*
X62839Y39963D01*
X60476Y43499D01*
X57469Y46506D01*
X53933Y48869D01*
X50004Y50496D01*
X45833Y51326D01*
D02*
G37*
%LPD*%
D15*
X341670Y202320D02*
D03*
Y92320D02*
D03*
D16*
X320670Y187320D02*
D03*
Y167320D02*
D03*
Y147320D02*
D03*
Y127320D02*
D03*
D17*
Y107320D02*
D03*
D18*
X246906Y29736D02*
D03*
X43706D02*
D03*
X246906Y182136D02*
D03*
X43706D02*
D03*
D19*
X81806Y29736D02*
D03*
X183406D02*
D03*
X132606D02*
D03*
X158006D02*
D03*
X107206D02*
D03*
X208806D02*
D03*
X158006Y182136D02*
D03*
X132606D02*
D03*
X183406D02*
D03*
X107206D02*
D03*
M02*
