G04*
G04 #@! TF.GenerationSoftware,Altium Limited,Altium Designer,23.1.1 (15)*
G04*
G04 Layer_Physical_Order=1*
G04 Layer_Color=255*
%FSLAX44Y44*%
%MOMM*%
G71*
G04*
G04 #@! TF.SameCoordinates,7DEE206C-283F-43E0-9F98-1BFD9C08138E*
G04*
G04*
G04 #@! TF.FilePolarity,Positive*
G04*
G01*
G75*
%ADD11C,0.2540*%
%ADD15C,1.1000*%
%ADD16C,1.2000*%
%ADD17R,1.2000X1.2000*%
%ADD18C,3.8100*%
%ADD19C,1.2700*%
G36*
X329558Y227602D02*
X334292Y225641D01*
X338552Y222795D01*
X342175Y219172D01*
X345021Y214912D01*
X346982Y210178D01*
X347982Y205153D01*
Y202591D01*
Y18392D01*
Y15830D01*
X346982Y10805D01*
X345021Y6072D01*
X342175Y1812D01*
X338552Y-1812D01*
X334292Y-4658D01*
X329558Y-6619D01*
X324533Y-7618D01*
X15830D01*
X10805Y-6619D01*
X6072Y-4658D01*
X1812Y-1812D01*
X-1812Y1812D01*
X-4658Y6072D01*
X-6619Y10805D01*
X-7618Y15830D01*
Y18392D01*
Y202591D01*
Y205153D01*
X-6619Y210178D01*
X-4658Y214912D01*
X-1812Y219172D01*
X1812Y222795D01*
X6072Y225641D01*
X10805Y227602D01*
X15830Y228602D01*
X324533D01*
X329558Y227602D01*
D02*
G37*
%LPC*%
G36*
X275420Y216712D02*
X273303D01*
X271258Y216164D01*
X269425Y215105D01*
X267928Y213608D01*
X266870Y211775D01*
X266322Y209730D01*
Y207613D01*
X266870Y205568D01*
X267928Y203735D01*
X269425Y202238D01*
X271258Y201180D01*
X273303Y200632D01*
X275420D01*
X277465Y201180D01*
X279298Y202238D01*
X280795Y203735D01*
X281854Y205568D01*
X282402Y207613D01*
Y209730D01*
X281854Y211775D01*
X280795Y213608D01*
X279298Y215105D01*
X277465Y216164D01*
X275420Y216712D01*
D02*
G37*
G36*
X185008Y209552D02*
X184152D01*
Y189232D01*
X204472D01*
Y190088D01*
X203642Y194259D01*
X202015Y198188D01*
X199652Y201724D01*
X196644Y204732D01*
X193108Y207094D01*
X189179Y208722D01*
X185008Y209552D01*
D02*
G37*
G36*
X181612D02*
X180755D01*
X176584Y208722D01*
X172655Y207094D01*
X169119Y204732D01*
X166112Y201724D01*
X163749Y198188D01*
X162121Y194259D01*
X161292Y190088D01*
Y189232D01*
X181612D01*
Y209552D01*
D02*
G37*
G36*
X32608D02*
X31752D01*
Y189232D01*
X52072D01*
Y190088D01*
X51242Y194259D01*
X49615Y198188D01*
X47252Y201724D01*
X44244Y204732D01*
X40708Y207094D01*
X36779Y208722D01*
X32608Y209552D01*
D02*
G37*
G36*
X29212D02*
X28355D01*
X24184Y208722D01*
X20255Y207094D01*
X16719Y204732D01*
X13712Y201724D01*
X11349Y198188D01*
X9721Y194259D01*
X8892Y190088D01*
Y189232D01*
X29212D01*
Y209552D01*
D02*
G37*
G36*
X254486Y202212D02*
X252237D01*
X250065Y201630D01*
X248118Y200505D01*
X246528Y198915D01*
X245743Y197556D01*
X233042D01*
X231555Y197261D01*
X230295Y196418D01*
X73323Y39446D01*
X40642D01*
X39155Y39151D01*
X37895Y38308D01*
X33408Y33821D01*
X31652Y34292D01*
X29311D01*
X27050Y33686D01*
X25023Y32515D01*
X23368Y30860D01*
X22197Y28833D01*
X21592Y26572D01*
Y24231D01*
X22197Y21970D01*
X23368Y19943D01*
X25023Y18288D01*
X27050Y17118D01*
X29311Y16512D01*
X31652D01*
X33913Y17118D01*
X35940Y18288D01*
X37596Y19943D01*
X38766Y21970D01*
X39372Y24231D01*
Y26572D01*
X38901Y28328D01*
X42251Y31677D01*
X47905D01*
X48506Y30407D01*
X47597Y28833D01*
X46992Y26572D01*
Y24231D01*
X47597Y21970D01*
X48768Y19943D01*
X50423Y18288D01*
X52450Y17118D01*
X54711Y16512D01*
X57052D01*
X59313Y17118D01*
X61340Y18288D01*
X62996Y19943D01*
X64166Y21970D01*
X64772Y24231D01*
Y26572D01*
X64166Y28833D01*
X63257Y30407D01*
X63858Y31677D01*
X73236D01*
X73354Y31574D01*
X73906Y30407D01*
X72997Y28833D01*
X72392Y26572D01*
Y24231D01*
X72997Y21970D01*
X74168Y19943D01*
X75823Y18288D01*
X77850Y17118D01*
X80111Y16512D01*
X82452D01*
X84713Y17118D01*
X86740Y18288D01*
X88396Y19943D01*
X89566Y21970D01*
X90172Y24231D01*
Y25123D01*
X90578Y25394D01*
X234971Y169787D01*
X245743D01*
X246528Y168428D01*
X248118Y166838D01*
X250065Y165714D01*
X252237Y165132D01*
X254486D01*
X256658Y165714D01*
X258605Y166838D01*
X260195Y168428D01*
X261320Y170375D01*
X261902Y172547D01*
Y174796D01*
X261320Y176968D01*
X260195Y178915D01*
X258605Y180505D01*
X256658Y181630D01*
X254486Y182212D01*
X252237D01*
X250065Y181630D01*
X248118Y180505D01*
X246528Y178915D01*
X245743Y177556D01*
X233362D01*
X231875Y177261D01*
X230615Y176418D01*
X86722Y32526D01*
X84713Y33686D01*
X82452Y34292D01*
X80951D01*
X80425Y35562D01*
X234651Y189787D01*
X245743D01*
X246528Y188428D01*
X248118Y186838D01*
X250065Y185714D01*
X252237Y185132D01*
X254486D01*
X256658Y185714D01*
X258605Y186838D01*
X260195Y188428D01*
X261320Y190375D01*
X261902Y192547D01*
Y194796D01*
X261320Y196968D01*
X260195Y198915D01*
X258605Y200505D01*
X256658Y201630D01*
X254486Y202212D01*
D02*
G37*
G36*
X204472Y186692D02*
X184152D01*
Y166372D01*
X185008D01*
X189179Y167201D01*
X193108Y168829D01*
X196644Y171192D01*
X199652Y174199D01*
X202015Y177735D01*
X203642Y181664D01*
X204472Y185835D01*
Y186692D01*
D02*
G37*
G36*
X181612D02*
X161292D01*
Y185835D01*
X162121Y181664D01*
X163749Y177735D01*
X166112Y174199D01*
X169119Y171192D01*
X172655Y168829D01*
X176584Y167201D01*
X180755Y166372D01*
X181612D01*
Y186692D01*
D02*
G37*
G36*
X52072D02*
X31752D01*
Y166372D01*
X32608D01*
X36779Y167201D01*
X40708Y168829D01*
X44244Y171192D01*
X47252Y174199D01*
X49615Y177735D01*
X51242Y181664D01*
X52072Y185835D01*
Y186692D01*
D02*
G37*
G36*
X29212D02*
X8892D01*
Y185835D01*
X9721Y181664D01*
X11349Y177735D01*
X13712Y174199D01*
X16719Y171192D01*
X20255Y168829D01*
X24184Y167201D01*
X28355Y166372D01*
X29212D01*
Y186692D01*
D02*
G37*
G36*
X254486Y162212D02*
X252237D01*
X250065Y161630D01*
X248118Y160505D01*
X246528Y158915D01*
X245404Y156968D01*
X245374Y156857D01*
X234252D01*
X232765Y156561D01*
X231505Y155719D01*
X109608Y33821D01*
X107852Y34292D01*
X105511D01*
X103250Y33686D01*
X101223Y32515D01*
X99568Y30860D01*
X98398Y28833D01*
X97792Y26572D01*
Y24231D01*
X98398Y21970D01*
X99568Y19943D01*
X101223Y18288D01*
X103250Y17118D01*
X105511Y16512D01*
X107852D01*
X110113Y17118D01*
X112140Y18288D01*
X113795Y19943D01*
X114966Y21970D01*
X115572Y24231D01*
Y26572D01*
X115101Y28328D01*
X235861Y149087D01*
X246147D01*
X246528Y148428D01*
X248118Y146838D01*
X250065Y145714D01*
X252237Y145132D01*
X254486D01*
X256658Y145714D01*
X258605Y146838D01*
X260195Y148428D01*
X261320Y150375D01*
X261902Y152547D01*
Y154796D01*
X261320Y156968D01*
X260195Y158915D01*
X258605Y160505D01*
X256658Y161630D01*
X254486Y162212D01*
D02*
G37*
G36*
X254632Y142173D02*
Y134942D01*
X261863D01*
X261320Y136968D01*
X260195Y138915D01*
X258605Y140505D01*
X256658Y141630D01*
X254632Y142173D01*
D02*
G37*
G36*
X261863Y132402D02*
X254632D01*
Y125171D01*
X256658Y125714D01*
X258605Y126838D01*
X260195Y128428D01*
X261320Y130375D01*
X261863Y132402D01*
D02*
G37*
G36*
X252092Y142173D02*
X250065Y141630D01*
X248118Y140505D01*
X246528Y138915D01*
X245743Y137556D01*
X234002D01*
X232515Y137261D01*
X231255Y136419D01*
X155065Y60228D01*
X154223Y58968D01*
X153927Y57481D01*
Y33615D01*
X152023Y32515D01*
X150368Y30860D01*
X149198Y28833D01*
X148618Y26672D01*
X166345D01*
X165766Y28833D01*
X164596Y30860D01*
X162940Y32515D01*
X161696Y33234D01*
Y55873D01*
X235611Y129787D01*
X245743D01*
X246528Y128428D01*
X248118Y126838D01*
X250065Y125714D01*
X252092Y125171D01*
Y133672D01*
Y142173D01*
D02*
G37*
G36*
X261902Y122212D02*
X244822D01*
Y117556D01*
X234322D01*
X232835Y117261D01*
X231575Y116419D01*
X180135Y64978D01*
X179293Y63718D01*
X178997Y62232D01*
Y33424D01*
X177423Y32515D01*
X175768Y30860D01*
X174597Y28833D01*
X173992Y26572D01*
Y24231D01*
X174597Y21970D01*
X175768Y19943D01*
X177423Y18288D01*
X179450Y17118D01*
X181711Y16512D01*
X184052D01*
X186313Y17118D01*
X188340Y18288D01*
X189995Y19943D01*
X191166Y21970D01*
X191772Y24231D01*
Y26572D01*
X191166Y28833D01*
X189995Y30860D01*
X188340Y32515D01*
X186766Y33424D01*
Y60623D01*
X235931Y109787D01*
X244822D01*
Y105132D01*
X261902D01*
Y122212D01*
D02*
G37*
G36*
X275420Y106712D02*
X273303D01*
X271258Y106164D01*
X269425Y105105D01*
X267928Y103608D01*
X266870Y101775D01*
X266322Y99730D01*
Y97613D01*
X266870Y95568D01*
X267928Y93735D01*
X269425Y92238D01*
X271258Y91180D01*
X273303Y90632D01*
X275420D01*
X277465Y91180D01*
X279298Y92238D01*
X280795Y93735D01*
X281854Y95568D01*
X282402Y97613D01*
Y99730D01*
X281854Y101775D01*
X280795Y103608D01*
X279298Y105105D01*
X277465Y106164D01*
X275420Y106712D01*
D02*
G37*
G36*
X166345Y24132D02*
X158752D01*
Y16538D01*
X160913Y17118D01*
X162940Y18288D01*
X164596Y19943D01*
X165766Y21970D01*
X166345Y24132D01*
D02*
G37*
G36*
X156212D02*
X148618D01*
X149198Y21970D01*
X150368Y19943D01*
X152023Y18288D01*
X154050Y17118D01*
X156212Y16538D01*
Y24132D01*
D02*
G37*
G36*
X133252Y34292D02*
X130911D01*
X128650Y33686D01*
X126623Y32515D01*
X124968Y30860D01*
X123798Y28833D01*
X123192Y26572D01*
Y24231D01*
X123798Y21970D01*
X124968Y19943D01*
X126623Y18288D01*
X128650Y17118D01*
X130911Y16512D01*
X133252D01*
X135513Y17118D01*
X137540Y18288D01*
X139195Y19943D01*
X140366Y21970D01*
X140972Y24231D01*
Y26572D01*
X140366Y28833D01*
X139195Y30860D01*
X137540Y32515D01*
X135513Y33686D01*
X133252Y34292D01*
D02*
G37*
%LPD*%
D11*
X30482Y25402D02*
X40642Y35562D01*
X74932D01*
X233042Y193672D01*
X234322Y113672D02*
X253362D01*
X182882Y25402D02*
Y62232D01*
X234322Y113672D01*
X157811Y25731D02*
Y57481D01*
X234002Y133672D02*
X253362D01*
X157811Y57481D02*
X234002Y133672D01*
X234252Y152972D02*
X252662D01*
X106682Y25402D02*
X234252Y152972D01*
X84031Y25402D02*
X86770Y28141D01*
X87831D02*
X233362Y173672D01*
X253362D01*
X81282Y25402D02*
X84031D01*
X86770Y28141D02*
X87831D01*
X233042Y193672D02*
X253362D01*
X157482Y25402D02*
X157811Y25731D01*
X252662Y152972D02*
X253362Y153672D01*
D15*
X274362Y208672D02*
D03*
Y98672D02*
D03*
D16*
X253362Y193672D02*
D03*
Y173672D02*
D03*
Y153672D02*
D03*
Y133672D02*
D03*
D17*
Y113672D02*
D03*
D18*
X30482Y187962D02*
D03*
X182882D02*
D03*
D19*
X30482Y25402D02*
D03*
X55882D02*
D03*
X81282D02*
D03*
X106682D02*
D03*
X132082D02*
D03*
X157482D02*
D03*
X182882D02*
D03*
M02*
