G04*
G04 #@! TF.GenerationSoftware,Altium Limited,Altium Designer,23.1.1 (15)*
G04*
G04 Layer_Color=7058166*
%FSLAX44Y44*%
%MOMM*%
G71*
G04*
G04 #@! TF.SameCoordinates,7DEE206C-283F-43E0-9F98-1BFD9C08138E*
G04*
G04*
G04 #@! TF.FilePolarity,Negative*
G04*
G01*
G75*
%ADD13C,4.0132*%
%ADD14C,1.4732*%
%ADD15C,1.1000*%
%ADD16C,1.2000*%
%ADD17R,1.2000X1.2000*%
G36*
X65865Y182128D02*
X65753Y182066D01*
X65728Y181966D01*
X65716Y158299D01*
X65790Y158199D01*
X65890Y158174D01*
X66065Y158149D01*
X72745Y158124D01*
X72807Y158062D01*
X72832Y157962D01*
X72807Y157638D01*
X72819Y152092D01*
X72770Y151968D01*
X72695Y151893D01*
X72570Y151843D01*
X72321Y151818D01*
X72246Y151843D01*
X51919Y151831D01*
X51757Y151893D01*
X51583Y151868D01*
X51520Y151806D01*
X51495Y151706D01*
X51520Y151556D01*
X51658Y151419D01*
X51707Y151394D01*
X51795Y151307D01*
X51820Y151257D01*
X51882Y151195D01*
X51932Y151170D01*
X52019Y151083D01*
X52144Y150858D01*
X52268Y150734D01*
X52355Y150572D01*
X52405Y150547D01*
X52468Y150485D01*
X52492Y150435D01*
X52617Y150260D01*
X52704Y150198D01*
X52742Y150161D01*
X52767Y150111D01*
X52879Y149974D01*
X52991Y149861D01*
X53091Y149687D01*
X53190Y149587D01*
X53215Y149537D01*
X53340Y149363D01*
X53377Y149326D01*
X53427Y149301D01*
X53489Y149238D01*
X53514Y149188D01*
X53639Y149064D01*
X53664Y149014D01*
X53801Y148802D01*
X53851Y148777D01*
X53913Y148715D01*
X54038Y148490D01*
X54163Y148366D01*
X54187Y148316D01*
X54300Y148154D01*
X54349Y148129D01*
X54462Y148017D01*
X54487Y147967D01*
X54611Y147793D01*
X54636Y147743D01*
X54723Y147631D01*
X54773Y147606D01*
X54885Y147493D01*
X54985Y147319D01*
X55309Y146995D01*
X55334Y146945D01*
X55384Y146895D01*
X55484Y146721D01*
X55521Y146683D01*
X55558Y146671D01*
X55583Y146621D01*
X55683Y146447D01*
X55745Y146384D01*
X55795Y146359D01*
X55857Y146272D01*
X55970Y146160D01*
X56020Y146135D01*
X56057Y146098D01*
X56082Y146048D01*
X56182Y145873D01*
X56306Y145749D01*
X56331Y145699D01*
X56456Y145524D01*
X56493Y145487D01*
X56530Y145475D01*
X56555Y145425D01*
X56680Y145250D01*
X56717Y145213D01*
X56767Y145188D01*
X56805Y145150D01*
X56879Y145026D01*
X57029Y144876D01*
X57129Y144702D01*
X57166Y144639D01*
X57203Y144627D01*
X57228Y144577D01*
X57278Y144527D01*
X57303Y144477D01*
X57415Y144340D01*
X57503Y144253D01*
X57627Y144029D01*
X57777Y143879D01*
X57877Y143705D01*
X58200Y143381D01*
X58225Y143331D01*
X58350Y143156D01*
X58475Y143032D01*
X58549Y142907D01*
X58749Y142708D01*
X58774Y142658D01*
X58836Y142571D01*
X58886Y142546D01*
X58948Y142483D01*
X59073Y142259D01*
X59198Y142134D01*
X59297Y141960D01*
X59335Y141923D01*
X59384Y141898D01*
X59521Y141686D01*
X59584Y141623D01*
X59634Y141599D01*
X59671Y141561D01*
X59696Y141511D01*
X59808Y141374D01*
X59920Y141262D01*
X60020Y141088D01*
X60120Y140988D01*
X60145Y140938D01*
X60269Y140764D01*
X60332Y140701D01*
X60381Y140676D01*
X60419Y140639D01*
X60444Y140589D01*
X60568Y140414D01*
X60643Y140290D01*
X60780Y140153D01*
X60830Y140128D01*
X60942Y139941D01*
X60967Y139891D01*
X61117Y139741D01*
X61217Y139567D01*
X61565Y139218D01*
X61665Y139044D01*
X61815Y138894D01*
X61840Y138844D01*
X62002Y138607D01*
X62089Y138545D01*
X62114Y138495D01*
X62313Y138296D01*
X62413Y138121D01*
X62538Y137997D01*
X62637Y137822D01*
X62949Y137511D01*
X62986Y137498D01*
X63011Y137448D01*
X63111Y137274D01*
X63236Y137149D01*
X63260Y137099D01*
X63385Y136925D01*
X63460Y136850D01*
X63485Y136800D01*
X63622Y136588D01*
X63672Y136564D01*
X63734Y136501D01*
X63859Y136277D01*
X64208Y135928D01*
X64233Y135878D01*
X64357Y135703D01*
X64432Y135629D01*
X64532Y135454D01*
X64731Y135255D01*
X64756Y135205D01*
X64843Y135143D01*
X64931Y135056D01*
X64955Y135006D01*
X65080Y134831D01*
X65130Y134781D01*
X65155Y134731D01*
X65329Y134507D01*
X65404Y134432D01*
X65504Y134258D01*
X65591Y134195D01*
X65678Y134108D01*
X65703Y134058D01*
X65790Y133946D01*
X65840Y133921D01*
X65878Y133884D01*
X66002Y133660D01*
X66127Y133535D01*
X66227Y133361D01*
X66576Y133012D01*
X66600Y132912D01*
X66538Y132825D01*
X66488Y132800D01*
X66401Y132712D01*
X66301Y132538D01*
X66177Y132438D01*
X66152Y132388D01*
X66065Y132301D01*
X66015Y132276D01*
X65815Y131977D01*
X65728Y131890D01*
X65628Y131715D01*
X65454Y131541D01*
X65354Y131366D01*
X65255Y131267D01*
X65230Y131217D01*
X65093Y131080D01*
X65043Y131055D01*
X65005Y131017D01*
X64906Y130843D01*
X64781Y130718D01*
X64656Y130494D01*
X64594Y130432D01*
X64544Y130407D01*
X64370Y130133D01*
X64257Y130020D01*
X64233Y129971D01*
X64170Y129908D01*
X64120Y129883D01*
X64033Y129796D01*
X63933Y129622D01*
X63809Y129497D01*
X63709Y129323D01*
X63310Y128924D01*
X63211Y128749D01*
X63111Y128650D01*
X63086Y128600D01*
X62961Y128425D01*
X62912Y128375D01*
X62887Y128325D01*
X62837Y128276D01*
X62737Y128101D01*
X62675Y128039D01*
X62625Y128014D01*
X62562Y127952D01*
X62538Y127902D01*
X62338Y127702D01*
X62238Y127528D01*
X62139Y127428D01*
X62114Y127378D01*
X61989Y127204D01*
X61665Y126880D01*
X61590Y126680D01*
X61478Y126568D01*
X61428Y126543D01*
X61291Y126331D01*
X61142Y126182D01*
X61042Y126007D01*
X60693Y125658D01*
X60593Y125484D01*
X60419Y125309D01*
X60319Y125135D01*
X60170Y124985D01*
X60070Y124811D01*
X60020Y124761D01*
X59995Y124711D01*
X59933Y124649D01*
X59883Y124624D01*
X59771Y124512D01*
X59746Y124462D01*
X59646Y124288D01*
X59559Y124200D01*
X59521Y124188D01*
X59497Y124138D01*
X59447Y124088D01*
X59422Y124013D01*
X59310Y123876D01*
X59023Y123589D01*
X58998Y123540D01*
X58874Y123365D01*
X58799Y123291D01*
X58774Y123241D01*
X58649Y123066D01*
X58549Y122966D01*
X58524Y122917D01*
X58412Y122780D01*
X58275Y122667D01*
X58151Y122493D01*
X58076Y122418D01*
X57976Y122244D01*
X57877Y122144D01*
X57852Y122094D01*
X57752Y121945D01*
X57727Y121895D01*
X57640Y121807D01*
X57590Y121782D01*
X57503Y121695D01*
X57403Y121521D01*
X57353Y121471D01*
X57328Y121421D01*
X57104Y121197D01*
X57004Y121022D01*
X56879Y120898D01*
X56755Y120673D01*
X56717Y120636D01*
X56668Y120611D01*
X56530Y120474D01*
X56505Y120424D01*
X56418Y120362D01*
X56381Y120324D01*
X56281Y120150D01*
X56206Y120075D01*
X56182Y120025D01*
X56132Y119975D01*
X56057Y119851D01*
X55945Y119714D01*
X55907Y119676D01*
X55808Y119502D01*
X55695Y119390D01*
X55658Y119377D01*
X55633Y119327D01*
X55409Y119103D01*
X55309Y118928D01*
X55184Y118804D01*
X55085Y118629D01*
X54985Y118530D01*
X54960Y118480D01*
X54860Y118305D01*
X54686Y118131D01*
X54661Y118081D01*
X54624Y118019D01*
X54574Y117994D01*
X54524Y117944D01*
X54474Y117919D01*
X54437Y117882D01*
X54337Y117707D01*
X54212Y117582D01*
X54187Y117533D01*
X54125Y117470D01*
X54075Y117445D01*
X53988Y117358D01*
X53888Y117184D01*
X53764Y117059D01*
X53664Y116884D01*
X53489Y116710D01*
X53390Y116536D01*
X53290Y116436D01*
X53265Y116386D01*
X53215Y116336D01*
X53203Y116299D01*
X53153Y116274D01*
X53103Y116224D01*
X53066Y116212D01*
X53041Y116162D01*
X52904Y115950D01*
X52854Y115925D01*
X52742Y115738D01*
X52717Y115688D01*
X52517Y115489D01*
X52418Y115314D01*
X52318Y115215D01*
X52293Y115165D01*
X52181Y115052D01*
X52131Y115028D01*
X52069Y114965D01*
X51969Y114791D01*
X51844Y114666D01*
X51732Y114454D01*
X51682Y114429D01*
X51545Y114317D01*
X51495Y114192D01*
X51520Y114093D01*
X51583Y114031D01*
X51682Y114005D01*
X72682Y114018D01*
X72782Y113943D01*
X72807Y113843D01*
X72832Y94576D01*
X73006Y94352D01*
X76172Y91186D01*
X76272Y91011D01*
X76334Y90949D01*
X76384Y90924D01*
X76496Y90812D01*
X76521Y90762D01*
X76558Y90725D01*
X76608Y90700D01*
X76720Y90588D01*
X76745Y90538D01*
X76808Y90476D01*
X76858Y90451D01*
X76970Y90338D01*
X76995Y90289D01*
X77032Y90251D01*
X77082Y90226D01*
X77306Y90052D01*
X77368Y89990D01*
X77393Y89940D01*
X77518Y89765D01*
X77717Y89641D01*
X77842Y89516D01*
X77867Y89466D01*
X77992Y89292D01*
X78191Y89167D01*
X78341Y89017D01*
X78440Y88843D01*
X78478Y88806D01*
X78527Y88781D01*
X78702Y88656D01*
X78789Y88569D01*
X78814Y88519D01*
X78951Y88332D01*
X79001Y88307D01*
X79176Y88182D01*
X79288Y88070D01*
X79387Y87896D01*
X79425Y87858D01*
X79475Y87833D01*
X79587Y87721D01*
X79612Y87671D01*
X79674Y87609D01*
X79724Y87584D01*
X79836Y87472D01*
X79861Y87422D01*
X79923Y87360D01*
X79973Y87335D01*
X80085Y87223D01*
X80110Y87173D01*
X80621Y86662D01*
X80671Y86637D01*
X80783Y86525D01*
X80808Y86475D01*
X80871Y86413D01*
X80920Y86388D01*
X81033Y86276D01*
X81058Y86226D01*
X81120Y86163D01*
X81170Y86138D01*
X81282Y86026D01*
X81307Y85976D01*
X81344Y85939D01*
X81394Y85914D01*
X81506Y85802D01*
X81531Y85752D01*
X81593Y85690D01*
X81643Y85665D01*
X81755Y85553D01*
X81780Y85503D01*
X81818Y85465D01*
X81868Y85441D01*
X81980Y85328D01*
X82005Y85279D01*
X82067Y85216D01*
X82117Y85191D01*
X82229Y85079D01*
X82254Y85029D01*
X82316Y84967D01*
X82366Y84942D01*
X82478Y84830D01*
X82503Y84780D01*
X82541Y84743D01*
X82590Y84718D01*
X82703Y84606D01*
X82727Y84556D01*
X82790Y84493D01*
X82840Y84468D01*
X82952Y84356D01*
X82977Y84306D01*
X83014Y84269D01*
X83064Y84244D01*
X83176Y84132D01*
X83201Y84082D01*
X84049Y83235D01*
X84073Y83185D01*
X84186Y83048D01*
X84360Y82948D01*
X84423Y82861D01*
X84709Y82574D01*
X84759Y82549D01*
X84884Y82350D01*
X85058Y82225D01*
X85183Y82100D01*
X85220Y82088D01*
X85245Y82038D01*
X85382Y81851D01*
X85432Y81826D01*
X85569Y81689D01*
X85594Y81639D01*
X85631Y81602D01*
X85806Y81502D01*
X85931Y81353D01*
X86130Y81153D01*
X86180Y81128D01*
X86317Y80917D01*
X86354Y80879D01*
X86404Y80854D01*
X86516Y80742D01*
X86541Y80692D01*
X86579Y80655D01*
X86628Y80630D01*
X86765Y80493D01*
X86791Y80443D01*
X86878Y80356D01*
X86927Y80331D01*
X87052Y80181D01*
X87102Y80131D01*
X87152Y80106D01*
X87189Y80069D01*
X87214Y80019D01*
X87351Y79882D01*
X87401Y79857D01*
X87438Y79820D01*
X87464Y79770D01*
X87576Y79658D01*
X87626Y79633D01*
X87663Y79595D01*
X87688Y79546D01*
X87825Y79408D01*
X87875Y79384D01*
X87912Y79346D01*
X87937Y79296D01*
X88049Y79184D01*
X88099Y79159D01*
X88161Y79097D01*
X88186Y79047D01*
X88299Y78935D01*
X88348Y78910D01*
X88386Y78872D01*
X88411Y78823D01*
X88548Y78686D01*
X88598Y78661D01*
X88635Y78623D01*
X88660Y78573D01*
X88772Y78461D01*
X88822Y78436D01*
X88859Y78399D01*
X88884Y78349D01*
X89021Y78212D01*
X89071Y78187D01*
X89109Y78150D01*
X89134Y78100D01*
X89271Y77963D01*
X89320Y77938D01*
X89358Y77901D01*
X89383Y77851D01*
X89495Y77738D01*
X89545Y77713D01*
X89582Y77676D01*
X89607Y77626D01*
X89719Y77514D01*
X127469Y77502D01*
X127569Y77527D01*
X127719Y77651D01*
X129538Y79471D01*
X129563Y79521D01*
X129675Y79658D01*
X129725Y79683D01*
X129862Y79795D01*
X133128Y83060D01*
X133153Y83110D01*
X133265Y83247D01*
X133315Y83272D01*
X133452Y83384D01*
X136717Y86649D01*
X136742Y86699D01*
X136854Y86836D01*
X136904Y86861D01*
X137041Y86973D01*
X140306Y90239D01*
X140331Y90289D01*
X140443Y90426D01*
X140493Y90451D01*
X140630Y90563D01*
X143896Y93828D01*
X143920Y93878D01*
X144033Y94015D01*
X144082Y94040D01*
X144220Y94152D01*
X144357Y94289D01*
X144407Y94314D01*
X144494Y94476D01*
X144544Y94651D01*
X144556Y113482D01*
X144506Y113607D01*
X144469Y113719D01*
X144494Y113869D01*
X144556Y113931D01*
X144681Y113981D01*
X144855Y114005D01*
X165718Y113981D01*
X165768Y113956D01*
X165855Y114018D01*
X165830Y114118D01*
X165656Y114442D01*
X165481Y114616D01*
X165382Y114791D01*
X165033Y115140D01*
X164933Y115314D01*
X164734Y115514D01*
X164721Y115551D01*
X164671Y115576D01*
X164534Y115713D01*
X164435Y115887D01*
X164335Y115987D01*
X164310Y116037D01*
X164185Y116212D01*
X164061Y116336D01*
X163961Y116511D01*
X163874Y116573D01*
X163786Y116660D01*
X163762Y116710D01*
X163674Y116822D01*
X163624Y116847D01*
X163512Y117034D01*
X163487Y117084D01*
X163338Y117233D01*
X163238Y117408D01*
X163176Y117470D01*
X163138Y117483D01*
X163113Y117533D01*
X162989Y117707D01*
X162951Y117744D01*
X162902Y117769D01*
X162864Y117807D01*
X162839Y117857D01*
X162727Y117994D01*
X162615Y118106D01*
X162490Y118330D01*
X162391Y118430D01*
X162366Y118480D01*
X162253Y118617D01*
X162166Y118704D01*
X162141Y118754D01*
X162029Y118916D01*
X161979Y118941D01*
X161892Y119028D01*
X161867Y119078D01*
X161755Y119215D01*
X161643Y119327D01*
X161543Y119502D01*
X161443Y119601D01*
X161418Y119651D01*
X161294Y119826D01*
X161256Y119863D01*
X161207Y119888D01*
X161144Y119950D01*
X161119Y120000D01*
X160995Y120125D01*
X160970Y120175D01*
X160833Y120387D01*
X160783Y120412D01*
X160721Y120474D01*
X160596Y120698D01*
X160471Y120823D01*
X160372Y120997D01*
X160334Y121035D01*
X160284Y121060D01*
X160147Y121197D01*
X160122Y121247D01*
X159998Y121371D01*
X159898Y121546D01*
X159748Y121695D01*
X159649Y121870D01*
X159300Y122219D01*
X159275Y122268D01*
X159138Y122480D01*
X159100Y122493D01*
X159075Y122543D01*
X158976Y122692D01*
X158951Y122742D01*
X158889Y122804D01*
X158839Y122829D01*
X158664Y123104D01*
X158328Y123440D01*
X158228Y123615D01*
X158166Y123677D01*
X158116Y123702D01*
X158054Y123814D01*
X157979Y123939D01*
X157804Y124113D01*
X157779Y124163D01*
X157742Y124200D01*
X157692Y124225D01*
X157605Y124312D01*
X157505Y124487D01*
X157393Y124624D01*
X157355Y124661D01*
X157331Y124711D01*
X157219Y124848D01*
X157131Y124936D01*
X157031Y125110D01*
X156994Y125147D01*
X156944Y125172D01*
X156857Y125260D01*
X156832Y125309D01*
X156720Y125447D01*
X156633Y125534D01*
X156533Y125708D01*
X156433Y125808D01*
X156408Y125858D01*
X156284Y126032D01*
X156209Y126107D01*
X156184Y126157D01*
X156047Y126369D01*
X155997Y126394D01*
X155935Y126456D01*
X155910Y126506D01*
X155798Y126618D01*
X155748Y126643D01*
X155686Y126705D01*
X155561Y126930D01*
X155436Y127054D01*
X155337Y127229D01*
X155237Y127328D01*
X155212Y127378D01*
X155087Y127553D01*
X154713Y127927D01*
X154614Y128101D01*
X154514Y128201D01*
X154489Y128251D01*
X154365Y128425D01*
X154302Y128488D01*
X154252Y128512D01*
X154215Y128550D01*
X154190Y128600D01*
X154140Y128650D01*
X154115Y128699D01*
X154016Y128799D01*
X153916Y128974D01*
X153878Y129011D01*
X153828Y129036D01*
X153791Y129073D01*
X153766Y129123D01*
X153666Y129298D01*
X153542Y129422D01*
X153517Y129472D01*
X153392Y129647D01*
X153068Y129971D01*
X152969Y130145D01*
X152819Y130295D01*
X152794Y130344D01*
X152632Y130581D01*
X152545Y130668D01*
X152445Y130843D01*
X152408Y130880D01*
X152358Y130905D01*
X152320Y130943D01*
X152296Y130992D01*
X152096Y131192D01*
X151996Y131366D01*
X151847Y131516D01*
X151822Y131566D01*
X151697Y131740D01*
X151448Y131990D01*
X151423Y132039D01*
X151299Y132214D01*
X151124Y132388D01*
X151049Y132513D01*
X150962Y132600D01*
X150925Y132613D01*
X150900Y132663D01*
X150800Y132812D01*
X150775Y132912D01*
X150800Y133012D01*
X150900Y133186D01*
X151012Y133323D01*
X151299Y133610D01*
X151323Y133660D01*
X151448Y133834D01*
X151523Y133909D01*
X151548Y133959D01*
X151648Y134133D01*
X151710Y134195D01*
X151760Y134220D01*
X151859Y134370D01*
X152071Y134582D01*
X152146Y134706D01*
X152271Y134831D01*
X152296Y134881D01*
X152420Y135056D01*
X152520Y135155D01*
X152620Y135330D01*
X152744Y135454D01*
X152769Y135504D01*
X152881Y135641D01*
X152993Y135729D01*
X153019Y135778D01*
X153143Y135953D01*
X153243Y136053D01*
X153268Y136102D01*
X153380Y136239D01*
X153417Y136277D01*
X153442Y136327D01*
X153604Y136564D01*
X153716Y136676D01*
X153741Y136726D01*
X153828Y136838D01*
X153878Y136863D01*
X153966Y136925D01*
X153991Y136975D01*
X154115Y137149D01*
X154190Y137224D01*
X154290Y137399D01*
X154639Y137747D01*
X154663Y137797D01*
X154763Y137972D01*
X154888Y138071D01*
X155013Y138296D01*
X155162Y138445D01*
X155262Y138620D01*
X155386Y138744D01*
X155486Y138919D01*
X155573Y139006D01*
X155623Y139031D01*
X155686Y139118D01*
X155885Y139318D01*
X155985Y139492D01*
X156084Y139592D01*
X156109Y139642D01*
X156234Y139816D01*
X156533Y140115D01*
X156558Y140165D01*
X156720Y140402D01*
X156807Y140464D01*
X156832Y140514D01*
X156932Y140689D01*
X157306Y141063D01*
X157405Y141237D01*
X157530Y141362D01*
X157630Y141536D01*
X157879Y141785D01*
X157954Y141910D01*
X158116Y142122D01*
X158166Y142147D01*
X158228Y142209D01*
X158253Y142259D01*
X158378Y142434D01*
X158452Y142508D01*
X158477Y142558D01*
X158577Y142733D01*
X158751Y142907D01*
X158776Y142957D01*
X158839Y143044D01*
X158889Y143069D01*
X159001Y143181D01*
X159088Y143343D01*
X159138Y143368D01*
X159225Y143455D01*
X159325Y143630D01*
X159424Y143730D01*
X159449Y143779D01*
X159549Y143954D01*
X159586Y143991D01*
X159636Y144016D01*
X159773Y144153D01*
X159798Y144203D01*
X159836Y144241D01*
X159886Y144266D01*
X159923Y144303D01*
X159948Y144353D01*
X160072Y144527D01*
X160122Y144577D01*
X160147Y144627D01*
X160272Y144802D01*
X160297Y144851D01*
X160646Y145200D01*
X160746Y145375D01*
X160895Y145524D01*
X160920Y145574D01*
X161045Y145749D01*
X161144Y145848D01*
X161169Y145898D01*
X161406Y146210D01*
X161456Y146235D01*
X161568Y146347D01*
X161593Y146397D01*
X161693Y146571D01*
X161755Y146634D01*
X161805Y146658D01*
X161842Y146696D01*
X161967Y146920D01*
X162092Y147045D01*
X162191Y147219D01*
X162540Y147568D01*
X162565Y147618D01*
X162690Y147793D01*
X162814Y147917D01*
X162914Y148092D01*
X163088Y148266D01*
X163113Y148316D01*
X163201Y148378D01*
X163263Y148441D01*
X163363Y148615D01*
X163462Y148715D01*
X163487Y148765D01*
X163649Y149002D01*
X163786Y149139D01*
X163886Y149313D01*
X164235Y149662D01*
X164335Y149837D01*
X164459Y149961D01*
X164584Y150185D01*
X164671Y150248D01*
X164808Y150385D01*
X164833Y150435D01*
X164921Y150497D01*
X164958Y150534D01*
X165058Y150709D01*
X165132Y150784D01*
X165157Y150834D01*
X165207Y150883D01*
X165307Y151058D01*
X165431Y151182D01*
X165531Y151357D01*
X165618Y151444D01*
X165668Y151469D01*
X165731Y151531D01*
X165756Y151581D01*
X165855Y151806D01*
X165793Y151868D01*
X165693Y151893D01*
X165444Y151868D01*
X165369Y151843D01*
X165270Y151818D01*
X164871Y151843D01*
X144793Y151831D01*
X144693Y151855D01*
X144606Y151918D01*
X144569Y151955D01*
X144544Y152055D01*
X144531Y158000D01*
X144569Y158087D01*
X144706Y158149D01*
X144955Y158174D01*
X145030Y158149D01*
X151436Y158174D01*
X151548Y158261D01*
X151573Y158361D01*
X151598Y158735D01*
X151573Y158810D01*
X151585Y161863D01*
X151560Y162013D01*
X151548Y162175D01*
X151573Y162250D01*
X151598Y162499D01*
X151573Y162972D01*
X151548Y163047D01*
X151585Y163284D01*
X151598Y163795D01*
X151573Y163870D01*
X151548Y164044D01*
X151573Y164219D01*
X151598Y164318D01*
X151573Y164867D01*
X151548Y164942D01*
X151573Y165191D01*
X151598Y165266D01*
Y165440D01*
Y165465D01*
X151573Y166013D01*
X151585Y169042D01*
X151560Y169191D01*
X151548Y169353D01*
X151573Y169428D01*
X151598Y169678D01*
X151573Y170151D01*
X151548Y170226D01*
X151585Y170463D01*
X151598Y170974D01*
X151573Y171048D01*
X151548Y171223D01*
X151573Y171397D01*
X151598Y171497D01*
X151573Y172045D01*
X151548Y172120D01*
X151573Y172369D01*
X151598Y172444D01*
X151573Y173591D01*
X151585Y176719D01*
X151560Y176844D01*
X151548Y177031D01*
X151573Y177105D01*
X151598Y177280D01*
X151573Y177803D01*
X151548Y177878D01*
X151585Y178115D01*
X151598Y178626D01*
X151573Y178701D01*
X151548Y178875D01*
X151573Y179050D01*
X151598Y179149D01*
X151573Y179723D01*
X151548Y179797D01*
X151585Y180059D01*
X151598Y180271D01*
X151573Y180346D01*
X151585Y181455D01*
X151573Y181717D01*
X151598Y181791D01*
X151573Y182066D01*
X151510Y182128D01*
X151336Y182153D01*
X151161Y182128D01*
X150551Y182140D01*
X150401Y182115D01*
X150140Y182103D01*
X150065Y182128D01*
X149928Y182140D01*
X149691Y182128D01*
X149616Y182153D01*
X149541Y182128D01*
X149292Y182103D01*
X149030Y182140D01*
X148968Y182153D01*
X148893Y182128D01*
X148656Y182140D01*
X148320Y182103D01*
X147983Y182140D01*
X143484Y182128D01*
X143410Y182153D01*
X143310Y182128D01*
X143061Y182103D01*
X142799Y182140D01*
X142761Y182153D01*
X142687Y182128D01*
X142425Y182140D01*
X142275Y182115D01*
X142014Y182103D01*
X141939Y182128D01*
X141777Y182140D01*
X141540Y182128D01*
X141490Y182153D01*
X141416Y182128D01*
X141091Y182103D01*
X140992Y182128D01*
X140805Y182140D01*
X136306Y182128D01*
X136231Y182153D01*
X136131Y182128D01*
X135882Y182103D01*
X135620Y182140D01*
X135583Y182153D01*
X135508Y182128D01*
X135246Y182140D01*
X135097Y182115D01*
X134835Y182103D01*
X134760Y182128D01*
X134598Y182140D01*
X134361Y182128D01*
X134312Y182153D01*
X134237Y182128D01*
X133913Y182103D01*
X133813Y182128D01*
X133626Y182140D01*
X129127Y182128D01*
X129052Y182153D01*
X128953Y182128D01*
X128703Y182103D01*
X128442Y182140D01*
X128404Y182153D01*
X128329Y182128D01*
X128068Y182140D01*
X127918Y182115D01*
X127656Y182103D01*
X127582Y182128D01*
X127420Y182140D01*
X127183Y182128D01*
X127133Y182153D01*
X127058Y182128D01*
X126734Y182103D01*
X126634Y182128D01*
X126447Y182140D01*
X121948Y182128D01*
X121874Y182153D01*
X121774Y182128D01*
X121525Y182103D01*
X121263Y182140D01*
X121226Y182153D01*
X121151Y182128D01*
X120889Y182140D01*
X120739Y182115D01*
X120478Y182103D01*
X120403Y182128D01*
X120241Y182140D01*
X120004Y182128D01*
X119954Y182153D01*
X119880Y182128D01*
X119556Y182103D01*
X119456Y182128D01*
X119269Y182140D01*
X117100Y182115D01*
X117025Y182066D01*
X117001Y181966D01*
X116976Y158660D01*
X116926Y158536D01*
X116951Y158336D01*
X117088Y158199D01*
X117287Y158149D01*
X118421Y158162D01*
X118546Y158137D01*
X118671Y158062D01*
X118695Y157887D01*
X118671Y157813D01*
X118646Y151955D01*
X118558Y151868D01*
X118359Y151818D01*
X118035Y151843D01*
X98830Y151831D01*
X98742Y151893D01*
X98605Y152030D01*
X98580Y152130D01*
X98605Y152329D01*
X98655Y152454D01*
X98680Y152703D01*
X98655Y152778D01*
X98680Y152952D01*
X98605Y153226D01*
X98630Y153401D01*
X98655Y153476D01*
X98680Y153575D01*
X98668Y153787D01*
X98680Y153949D01*
X98655Y154024D01*
X98605Y154199D01*
X98630Y154348D01*
X98655Y154423D01*
X98680Y154523D01*
X98655Y154921D01*
X98668Y157750D01*
X98655Y158037D01*
X98717Y158124D01*
X98892Y158174D01*
X99066Y158149D01*
X100263Y158174D01*
X100325Y158237D01*
X100350Y158336D01*
X100338Y158623D01*
X100350Y181592D01*
X100325Y181667D01*
X100350Y181766D01*
X100325Y182016D01*
X100263Y182078D01*
X100063Y182128D01*
X99353Y182140D01*
X99204Y182115D01*
X98942Y182103D01*
X98867Y182128D01*
X98705Y182140D01*
X98468Y182128D01*
X98418Y182153D01*
X98344Y182128D01*
X98020Y182103D01*
X97920Y182128D01*
X97733Y182140D01*
X93234Y182128D01*
X93159Y182153D01*
X93059Y182128D01*
X92810Y182103D01*
X92548Y182140D01*
X92511Y182153D01*
X92436Y182128D01*
X92174Y182140D01*
X92025Y182115D01*
X91763Y182103D01*
X91688Y182128D01*
X91526Y182140D01*
X91290Y182128D01*
X91240Y182153D01*
X91165Y182128D01*
X90841Y182103D01*
X90741Y182128D01*
X90554Y182140D01*
X86055Y182128D01*
X85980Y182153D01*
X85881Y182128D01*
X85631Y182103D01*
X85370Y182140D01*
X85332Y182153D01*
X85258Y182128D01*
X84996Y182140D01*
X84846Y182115D01*
X84585Y182103D01*
X84510Y182128D01*
X84348Y182140D01*
X84111Y182128D01*
X84061Y182153D01*
X83986Y182128D01*
X83662Y182103D01*
X83562Y182128D01*
X83376Y182140D01*
X78877Y182128D01*
X78802Y182153D01*
X78702Y182128D01*
X78453Y182103D01*
X78191Y182140D01*
X78154Y182153D01*
X78079Y182128D01*
X77817Y182140D01*
X77668Y182115D01*
X77406Y182103D01*
X77331Y182128D01*
X77169Y182140D01*
X76932Y182128D01*
X76882Y182153D01*
X76808Y182128D01*
X76484Y182103D01*
X76384Y182128D01*
X76197Y182140D01*
X71698Y182128D01*
X71623Y182153D01*
X71523Y182128D01*
X71274Y182103D01*
X71012Y182140D01*
X70975Y182153D01*
X70900Y182128D01*
X70638Y182140D01*
X70489Y182115D01*
X70227Y182103D01*
X70152Y182128D01*
X69990Y182140D01*
X69754Y182128D01*
X69704Y182153D01*
X69629Y182128D01*
X69305Y182103D01*
X69205Y182128D01*
X69018Y182140D01*
X65965Y182128D01*
X65940Y182153D01*
X65865Y182128D01*
D02*
G37*
G36*
X86576Y50802D02*
X83064D01*
Y57763D01*
X79298D01*
X73458Y50802D01*
X69713D01*
Y51902D01*
X76124Y59540D01*
X69713Y67157D01*
Y68278D01*
X73458D01*
X79298Y61317D01*
X83064D01*
Y68278D01*
X86576D01*
Y50802D01*
D02*
G37*
G36*
X106804D02*
X103313D01*
Y63031D01*
X93030Y50802D01*
X89327D01*
Y68278D01*
X92860D01*
Y56091D01*
X103101Y68278D01*
X106804D01*
Y50802D01*
D02*
G37*
G36*
X133400Y54462D02*
Y54399D01*
Y54377D01*
X133421Y54335D01*
X133463Y54314D01*
X143788D01*
X143809Y54335D01*
X143852Y54420D01*
Y54441D01*
Y54462D01*
Y56409D01*
X147343D01*
Y54293D01*
X147322Y53933D01*
X147279Y53616D01*
X147195Y53298D01*
X147110Y53044D01*
X147025Y52812D01*
X146941Y52664D01*
X146898Y52558D01*
X146877Y52516D01*
X146687Y52240D01*
X146475Y51986D01*
X146264Y51775D01*
X146052Y51606D01*
X145883Y51458D01*
X145735Y51352D01*
X145650Y51288D01*
X145608Y51267D01*
X145312Y51119D01*
X144994Y50992D01*
X144698Y50908D01*
X144444Y50865D01*
X144190Y50823D01*
X144021Y50802D01*
X133357D01*
X132998Y50823D01*
X132680Y50865D01*
X132363Y50950D01*
X132109Y51034D01*
X131897Y51119D01*
X131728Y51204D01*
X131643Y51246D01*
X131601Y51267D01*
X131326Y51458D01*
X131072Y51669D01*
X130861Y51860D01*
X130670Y52071D01*
X130522Y52240D01*
X130416Y52389D01*
X130353Y52473D01*
X130332Y52516D01*
X130162Y52833D01*
X130057Y53129D01*
X129972Y53425D01*
X129909Y53700D01*
X129866Y53933D01*
X129845Y54124D01*
Y54250D01*
Y54293D01*
Y68278D01*
X133378D01*
X133400Y54462D01*
D02*
G37*
G36*
X123942Y68257D02*
X124259Y68194D01*
X124556Y68130D01*
X124831Y68046D01*
X125042Y67940D01*
X125190Y67876D01*
X125296Y67813D01*
X125338Y67792D01*
X125613Y67601D01*
X125867Y67411D01*
X126079Y67199D01*
X126269Y66988D01*
X126417Y66818D01*
X126523Y66670D01*
X126587Y66586D01*
X126608Y66543D01*
X126756Y66247D01*
X126883Y65930D01*
X126967Y65655D01*
X127010Y65380D01*
X127052Y65147D01*
X127073Y64956D01*
Y64830D01*
Y64808D01*
Y64787D01*
Y50802D01*
X123582D01*
Y56557D01*
X113109D01*
X113130Y50802D01*
X109575D01*
Y64787D01*
X109597Y65147D01*
X109660Y65464D01*
X109724Y65782D01*
X109808Y66036D01*
X109914Y66247D01*
X109978Y66416D01*
X110041Y66501D01*
X110062Y66543D01*
X110253Y66818D01*
X110464Y67072D01*
X110676Y67284D01*
X110887Y67453D01*
X111078Y67601D01*
X111226Y67707D01*
X111310Y67771D01*
X111353Y67792D01*
X111649Y67961D01*
X111966Y68067D01*
X112241Y68151D01*
X112516Y68215D01*
X112749Y68257D01*
X112940Y68278D01*
X123582D01*
X123942Y68257D01*
D02*
G37*
G36*
X144194Y10295D02*
X142182D01*
Y12319D01*
X144194D01*
Y10295D01*
D02*
G37*
G36*
X39254Y1419D02*
X37477D01*
X32934Y9628D01*
X35255D01*
X38365Y3937D01*
X41452Y9628D01*
X43772D01*
X39254Y1419D01*
D02*
G37*
G36*
X88385Y3406D02*
X88373Y3209D01*
X88348Y3024D01*
X88299Y2863D01*
X88249Y2703D01*
X88212Y2579D01*
X88163Y2493D01*
X88138Y2431D01*
X88126Y2406D01*
X88015Y2246D01*
X87891Y2098D01*
X87780Y1974D01*
X87657Y1876D01*
X87558Y1789D01*
X87471Y1727D01*
X87422Y1690D01*
X87397Y1678D01*
X87212Y1592D01*
X87039Y1530D01*
X86867Y1481D01*
X86706Y1456D01*
X86570Y1431D01*
X86472Y1419D01*
X82052D01*
Y542D01*
X82065Y493D01*
X82077Y481D01*
X82114Y456D01*
X87052D01*
X87039Y-1581D01*
X82040Y-1568D01*
X81842Y-1556D01*
X81645Y-1531D01*
X81472Y-1482D01*
X81324Y-1433D01*
X81201Y-1383D01*
X81102Y-1334D01*
X81052Y-1309D01*
X81028Y-1297D01*
X80867Y-1186D01*
X80719Y-1075D01*
X80596Y-951D01*
X80497Y-840D01*
X80410Y-741D01*
X80349Y-655D01*
X80312Y-606D01*
X80299Y-581D01*
X80213Y-408D01*
X80139Y-235D01*
X80102Y-63D01*
X80065Y98D01*
X80052Y234D01*
X80040Y333D01*
Y407D01*
Y431D01*
Y9603D01*
X82052D01*
Y3505D01*
X82065Y3456D01*
X82077Y3443D01*
X82114Y3431D01*
X86286D01*
X86336Y3443D01*
X86360D01*
X86373Y3480D01*
Y3505D01*
Y9603D01*
X88385D01*
Y3406D01*
D02*
G37*
G36*
X53179D02*
X53166Y3209D01*
X53142Y3024D01*
X53092Y2863D01*
X53043Y2715D01*
X52993Y2592D01*
X52944Y2493D01*
X52920Y2444D01*
X52907Y2419D01*
X52796Y2258D01*
X52685Y2110D01*
X52561Y1987D01*
X52450Y1888D01*
X52352Y1802D01*
X52265Y1740D01*
X52216Y1703D01*
X52191Y1690D01*
X52018Y1604D01*
X51845Y1530D01*
X51673Y1481D01*
X51512Y1456D01*
X51376Y1431D01*
X51278Y1419D01*
X46834D01*
X46636Y1431D01*
X46439Y1456D01*
X46278Y1505D01*
X46130Y1555D01*
X46007Y1604D01*
X45908Y1653D01*
X45858Y1678D01*
X45834Y1690D01*
X45673Y1802D01*
X45525Y1925D01*
X45402Y2036D01*
X45303Y2159D01*
X45216Y2258D01*
X45155Y2345D01*
X45118Y2394D01*
X45105Y2419D01*
X45007Y2592D01*
X44945Y2764D01*
X44896Y2937D01*
X44871Y3085D01*
X44859Y3209D01*
X44846Y3320D01*
Y3382D01*
Y3406D01*
X44822Y9628D01*
X46858D01*
Y3505D01*
X46871Y3456D01*
X46883Y3443D01*
X46895Y3431D01*
X51080D01*
X51129Y3443D01*
X51142D01*
X51167Y3480D01*
Y3505D01*
Y9628D01*
X53179D01*
Y3406D01*
D02*
G37*
G36*
X175475Y1419D02*
X167327D01*
X167118Y1431D01*
X166932Y1456D01*
X166747Y1505D01*
X166599Y1555D01*
X166476Y1604D01*
X166377Y1653D01*
X166327Y1678D01*
X166303Y1690D01*
X166130Y1802D01*
X165982Y1925D01*
X165858Y2036D01*
X165747Y2159D01*
X165661Y2258D01*
X165599Y2345D01*
X165562Y2394D01*
X165550Y2419D01*
X165451Y2604D01*
X165389Y2777D01*
X165340Y2950D01*
X165303Y3110D01*
X165278Y3246D01*
X165266Y3357D01*
Y3431D01*
Y3456D01*
Y9578D01*
X165278Y9788D01*
X165315Y9973D01*
X165352Y10159D01*
X165402Y10307D01*
X165463Y10430D01*
X165500Y10529D01*
X165537Y10578D01*
X165550Y10603D01*
X165661Y10764D01*
X165784Y10912D01*
X165908Y11035D01*
X166031Y11134D01*
X166142Y11220D01*
X166229Y11282D01*
X166278Y11319D01*
X166303Y11331D01*
X166476Y11430D01*
X166661Y11492D01*
X166821Y11541D01*
X166982Y11578D01*
X167118Y11603D01*
X167229Y11615D01*
X175475D01*
Y1419D01*
D02*
G37*
G36*
X161945Y9616D02*
X162130Y9591D01*
X162303Y9542D01*
X162451Y9492D01*
X162575Y9443D01*
X162661Y9393D01*
X162723Y9369D01*
X162748Y9356D01*
X162908Y9245D01*
X163044Y9134D01*
X163167Y9011D01*
X163278Y8887D01*
X163365Y8788D01*
X163426Y8702D01*
X163464Y8653D01*
X163476Y8628D01*
X163562Y8455D01*
X163636Y8282D01*
X163686Y8109D01*
X163710Y7961D01*
X163735Y7826D01*
X163748Y7714D01*
Y7653D01*
Y7640D01*
Y7628D01*
Y3406D01*
X163735Y3209D01*
X163710Y3024D01*
X163661Y2863D01*
X163612Y2715D01*
X163562Y2592D01*
X163513Y2493D01*
X163488Y2444D01*
X163476Y2419D01*
X163365Y2258D01*
X163241Y2110D01*
X163118Y1987D01*
X163007Y1888D01*
X162908Y1802D01*
X162822Y1740D01*
X162772Y1703D01*
X162748Y1690D01*
X162575Y1604D01*
X162402Y1530D01*
X162229Y1481D01*
X162081Y1456D01*
X161945Y1431D01*
X161834Y1419D01*
X155415D01*
X155403Y3431D01*
X161649D01*
X161698Y3443D01*
X161711D01*
X161735Y3480D01*
Y3505D01*
Y4505D01*
X155403Y4517D01*
X155415Y7628D01*
X155427Y7826D01*
X155452Y8011D01*
X155501Y8184D01*
X155538Y8332D01*
X155588Y8455D01*
X155637Y8554D01*
X155662Y8603D01*
X155674Y8628D01*
X155773Y8788D01*
X155896Y8937D01*
X156020Y9060D01*
X156131Y9171D01*
X156230Y9245D01*
X156316Y9307D01*
X156365Y9344D01*
X156390Y9356D01*
X156563Y9443D01*
X156748Y9517D01*
X156909Y9566D01*
X157069Y9591D01*
X157205Y9616D01*
X157316Y9628D01*
X161748D01*
X161945Y9616D01*
D02*
G37*
G36*
X152181D02*
X152366Y9591D01*
X152526Y9542D01*
X152675Y9492D01*
X152798Y9443D01*
X152897Y9393D01*
X152946Y9369D01*
X152971Y9356D01*
X153131Y9245D01*
X153279Y9134D01*
X153403Y9011D01*
X153502Y8887D01*
X153588Y8788D01*
X153650Y8702D01*
X153687Y8653D01*
X153699Y8628D01*
X153785Y8455D01*
X153860Y8282D01*
X153909Y8109D01*
X153934Y7961D01*
X153958Y7826D01*
X153971Y7714D01*
Y7653D01*
Y7640D01*
Y7628D01*
Y6517D01*
X153958Y6320D01*
X153934Y6134D01*
X153884Y5962D01*
X153835Y5814D01*
X153785Y5690D01*
X153736Y5604D01*
X153712Y5542D01*
X153699Y5517D01*
X153588Y5357D01*
X153465Y5209D01*
X153354Y5085D01*
X153230Y4986D01*
X153131Y4900D01*
X153045Y4838D01*
X152996Y4801D01*
X152971Y4789D01*
X152798Y4703D01*
X152625Y4628D01*
X152452Y4579D01*
X152304Y4542D01*
X152181Y4530D01*
X152070Y4517D01*
X152008Y4505D01*
X147712D01*
X147687Y4493D01*
X147675Y4480D01*
X147650Y4443D01*
Y4431D01*
Y3505D01*
X147663Y3456D01*
X147675Y3443D01*
X147712Y3431D01*
X151872D01*
X151922Y3443D01*
X151946D01*
X151959Y3480D01*
Y3505D01*
Y3777D01*
X153971D01*
Y3406D01*
X153958Y3209D01*
X153934Y3024D01*
X153884Y2863D01*
X153835Y2715D01*
X153785Y2592D01*
X153736Y2493D01*
X153712Y2444D01*
X153699Y2419D01*
X153588Y2258D01*
X153465Y2110D01*
X153354Y1987D01*
X153230Y1888D01*
X153131Y1802D01*
X153045Y1740D01*
X152996Y1703D01*
X152971Y1690D01*
X152798Y1604D01*
X152625Y1530D01*
X152452Y1481D01*
X152304Y1456D01*
X152181Y1431D01*
X152070Y1419D01*
X147638D01*
X147428Y1431D01*
X147243Y1456D01*
X147070Y1505D01*
X146922Y1555D01*
X146799Y1604D01*
X146700Y1653D01*
X146650Y1678D01*
X146626Y1690D01*
X146465Y1802D01*
X146329Y1925D01*
X146194Y2036D01*
X146095Y2159D01*
X146009Y2258D01*
X145947Y2345D01*
X145910Y2394D01*
X145898Y2419D01*
X145799Y2592D01*
X145737Y2764D01*
X145688Y2937D01*
X145651Y3085D01*
X145638Y3209D01*
X145626Y3320D01*
Y3382D01*
Y3406D01*
Y4530D01*
X145638Y4727D01*
X145663Y4912D01*
X145700Y5085D01*
X145762Y5233D01*
X145811Y5357D01*
X145848Y5455D01*
X145885Y5505D01*
X145898Y5530D01*
X146009Y5690D01*
X146132Y5838D01*
X146256Y5962D01*
X146367Y6060D01*
X146465Y6147D01*
X146552Y6209D01*
X146601Y6245D01*
X146626Y6258D01*
X146799Y6344D01*
X146971Y6418D01*
X147144Y6468D01*
X147292Y6505D01*
X147441Y6529D01*
X147539Y6542D01*
X151922D01*
X151946Y6554D01*
X151959Y6604D01*
Y6616D01*
Y7529D01*
Y7566D01*
X151946Y7579D01*
Y7591D01*
X151897Y7616D01*
X147737D01*
X147687Y7603D01*
X147675Y7591D01*
X147663Y7579D01*
X147650Y7554D01*
Y7542D01*
Y7529D01*
Y7270D01*
X145614D01*
X145626Y7628D01*
X145638Y7826D01*
X145663Y8011D01*
X145700Y8184D01*
X145762Y8332D01*
X145811Y8455D01*
X145848Y8554D01*
X145885Y8603D01*
X145898Y8628D01*
X146009Y8788D01*
X146132Y8937D01*
X146256Y9060D01*
X146367Y9159D01*
X146465Y9245D01*
X146552Y9307D01*
X146601Y9344D01*
X146626Y9356D01*
X146799Y9443D01*
X146971Y9517D01*
X147144Y9566D01*
X147292Y9591D01*
X147441Y9616D01*
X147539Y9628D01*
X151983D01*
X152181Y9616D01*
D02*
G37*
G36*
X144194Y1419D02*
X142182D01*
Y9628D01*
X144194D01*
Y1419D01*
D02*
G37*
G36*
X131282D02*
X129257D01*
Y7529D01*
Y7566D01*
X129245Y7579D01*
X129233Y7591D01*
X129195Y7616D01*
X125035D01*
X124986Y7603D01*
X124974Y7591D01*
X124961Y7579D01*
X124949Y7554D01*
Y7542D01*
Y7529D01*
Y1419D01*
X122924D01*
X122937Y7628D01*
X122949Y7826D01*
X122974Y8011D01*
X123011Y8184D01*
X123073Y8332D01*
X123122Y8455D01*
X123159Y8554D01*
X123196Y8603D01*
X123209Y8628D01*
X123320Y8788D01*
X123431Y8937D01*
X123554Y9060D01*
X123678Y9159D01*
X123776Y9245D01*
X123863Y9307D01*
X123912Y9344D01*
X123937Y9356D01*
X124110Y9443D01*
X124282Y9517D01*
X124455Y9566D01*
X124603Y9591D01*
X124739Y9616D01*
X124850Y9628D01*
X131282D01*
Y1419D01*
D02*
G37*
G36*
X119653Y9616D02*
X119838Y9591D01*
X120011Y9542D01*
X120159Y9492D01*
X120283Y9443D01*
X120369Y9393D01*
X120431Y9369D01*
X120456Y9356D01*
X120616Y9245D01*
X120752Y9134D01*
X120875Y9011D01*
X120986Y8887D01*
X121073Y8788D01*
X121135Y8702D01*
X121172Y8653D01*
X121184Y8628D01*
X121270Y8455D01*
X121344Y8282D01*
X121394Y8109D01*
X121419Y7961D01*
X121443Y7826D01*
X121456Y7714D01*
Y7653D01*
Y7640D01*
Y7628D01*
Y3406D01*
X121443Y3209D01*
X121419Y3024D01*
X121369Y2863D01*
X121320Y2715D01*
X121270Y2592D01*
X121221Y2493D01*
X121196Y2444D01*
X121184Y2419D01*
X121073Y2258D01*
X120949Y2110D01*
X120826Y1987D01*
X120715Y1888D01*
X120616Y1802D01*
X120530Y1740D01*
X120480Y1703D01*
X120456Y1690D01*
X120283Y1604D01*
X120110Y1530D01*
X119937Y1481D01*
X119789Y1456D01*
X119653Y1431D01*
X119542Y1419D01*
X113123D01*
X113111Y3431D01*
X119357D01*
X119406Y3443D01*
X119419D01*
X119443Y3480D01*
Y3505D01*
Y4505D01*
X113111Y4517D01*
X113123Y7628D01*
X113135Y7826D01*
X113160Y8011D01*
X113209Y8184D01*
X113246Y8332D01*
X113296Y8455D01*
X113345Y8554D01*
X113370Y8603D01*
X113382Y8628D01*
X113481Y8788D01*
X113604Y8937D01*
X113728Y9060D01*
X113839Y9171D01*
X113938Y9245D01*
X114024Y9307D01*
X114074Y9344D01*
X114098Y9356D01*
X114271Y9443D01*
X114456Y9517D01*
X114617Y9566D01*
X114777Y9591D01*
X114913Y9616D01*
X115024Y9628D01*
X119456D01*
X119653Y9616D01*
D02*
G37*
G36*
X105704Y9628D02*
X110025D01*
X110234Y9616D01*
X110420Y9591D01*
X110592Y9542D01*
X110753Y9492D01*
X110876Y9443D01*
X110963Y9393D01*
X111025Y9369D01*
X111049Y9356D01*
X111210Y9245D01*
X111346Y9134D01*
X111469Y9011D01*
X111568Y8887D01*
X111654Y8788D01*
X111716Y8702D01*
X111753Y8653D01*
X111765Y8628D01*
X111852Y8455D01*
X111926Y8282D01*
X111975Y8109D01*
X112000Y7961D01*
X112024Y7826D01*
X112037Y7714D01*
Y7653D01*
Y7640D01*
Y7628D01*
Y3406D01*
X112024Y3209D01*
X112000Y3024D01*
X111950Y2863D01*
X111901Y2703D01*
X111852Y2579D01*
X111802Y2493D01*
X111778Y2431D01*
X111765Y2406D01*
X111654Y2246D01*
X111543Y2098D01*
X111420Y1974D01*
X111308Y1876D01*
X111210Y1789D01*
X111123Y1727D01*
X111074Y1690D01*
X111049Y1678D01*
X110876Y1592D01*
X110691Y1530D01*
X110518Y1481D01*
X110370Y1456D01*
X110222Y1431D01*
X110123Y1419D01*
X103692D01*
X103680Y12319D01*
X105704D01*
Y9628D01*
D02*
G37*
G36*
X97680Y1419D02*
X91335D01*
X91138Y1431D01*
X90953Y1456D01*
X90780Y1505D01*
X90632Y1555D01*
X90508Y1604D01*
X90409Y1653D01*
X90360Y1678D01*
X90335Y1690D01*
X90175Y1802D01*
X90027Y1925D01*
X89903Y2036D01*
X89804Y2159D01*
X89718Y2258D01*
X89656Y2345D01*
X89619Y2394D01*
X89607Y2419D01*
X89508Y2592D01*
X89446Y2764D01*
X89397Y2937D01*
X89360Y3085D01*
X89348Y3209D01*
X89335Y3320D01*
Y3382D01*
Y3406D01*
Y7628D01*
X89348Y7826D01*
X89373Y8011D01*
X89410Y8184D01*
X89471Y8332D01*
X89521Y8455D01*
X89558Y8554D01*
X89595Y8603D01*
X89607Y8628D01*
X89718Y8788D01*
X89829Y8937D01*
X89953Y9060D01*
X90076Y9159D01*
X90175Y9245D01*
X90261Y9307D01*
X90311Y9344D01*
X90335Y9356D01*
X90508Y9443D01*
X90681Y9517D01*
X90854Y9566D01*
X91002Y9591D01*
X91138Y9616D01*
X91249Y9628D01*
X95656D01*
Y12319D01*
X97680D01*
Y1419D01*
D02*
G37*
G36*
X66609Y3555D02*
Y3517D01*
Y3505D01*
X66622Y3480D01*
X66646Y3468D01*
X72670D01*
X72683Y3480D01*
X72708Y3530D01*
Y3542D01*
Y3555D01*
Y4690D01*
X74744D01*
Y3456D01*
X74732Y3246D01*
X74707Y3061D01*
X74658Y2876D01*
X74609Y2727D01*
X74559Y2592D01*
X74510Y2505D01*
X74485Y2444D01*
X74473Y2419D01*
X74362Y2258D01*
X74238Y2110D01*
X74115Y1987D01*
X73991Y1888D01*
X73893Y1802D01*
X73806Y1740D01*
X73757Y1703D01*
X73732Y1690D01*
X73559Y1604D01*
X73374Y1530D01*
X73201Y1481D01*
X73053Y1456D01*
X72905Y1431D01*
X72806Y1419D01*
X66585D01*
X66375Y1431D01*
X66190Y1456D01*
X66005Y1505D01*
X65856Y1555D01*
X65733Y1604D01*
X65634Y1653D01*
X65585Y1678D01*
X65560Y1690D01*
X65400Y1802D01*
X65251Y1925D01*
X65128Y2036D01*
X65017Y2159D01*
X64931Y2258D01*
X64869Y2345D01*
X64832Y2394D01*
X64819Y2419D01*
X64721Y2604D01*
X64659Y2777D01*
X64610Y2950D01*
X64573Y3110D01*
X64548Y3246D01*
X64535Y3357D01*
Y3431D01*
Y3456D01*
Y11615D01*
X66597D01*
X66609Y3555D01*
D02*
G37*
G36*
X61215Y9616D02*
X61400Y9591D01*
X61573Y9542D01*
X61721Y9492D01*
X61845Y9443D01*
X61931Y9393D01*
X61993Y9369D01*
X62017Y9356D01*
X62178Y9245D01*
X62313Y9134D01*
X62437Y9011D01*
X62548Y8887D01*
X62635Y8788D01*
X62696Y8702D01*
X62733Y8653D01*
X62746Y8628D01*
X62832Y8455D01*
X62906Y8282D01*
X62955Y8109D01*
X62980Y7961D01*
X63005Y7826D01*
X63017Y7714D01*
Y7653D01*
Y7640D01*
Y7628D01*
Y3406D01*
X63005Y3209D01*
X62980Y3024D01*
X62931Y2863D01*
X62881Y2715D01*
X62832Y2592D01*
X62783Y2493D01*
X62758Y2444D01*
X62746Y2419D01*
X62635Y2258D01*
X62511Y2110D01*
X62388Y1987D01*
X62277Y1888D01*
X62178Y1802D01*
X62091Y1740D01*
X62042Y1703D01*
X62017Y1690D01*
X61845Y1604D01*
X61672Y1530D01*
X61499Y1481D01*
X61351Y1456D01*
X61215Y1431D01*
X61104Y1419D01*
X56684D01*
X56475Y1431D01*
X56290Y1456D01*
X56117Y1505D01*
X55968Y1555D01*
X55845Y1604D01*
X55746Y1653D01*
X55697Y1678D01*
X55672Y1690D01*
X55512Y1802D01*
X55376Y1925D01*
X55252Y2036D01*
X55141Y2159D01*
X55067Y2258D01*
X55006Y2345D01*
X54969Y2394D01*
X54956Y2419D01*
X54858Y2592D01*
X54796Y2764D01*
X54746Y2937D01*
X54709Y3085D01*
X54697Y3209D01*
X54685Y3320D01*
Y3382D01*
Y3406D01*
Y7628D01*
X54697Y7826D01*
X54722Y8011D01*
X54771Y8184D01*
X54808Y8332D01*
X54858Y8455D01*
X54907Y8554D01*
X54932Y8603D01*
X54944Y8628D01*
X55043Y8788D01*
X55166Y8937D01*
X55290Y9060D01*
X55401Y9171D01*
X55499Y9245D01*
X55586Y9307D01*
X55635Y9344D01*
X55660Y9356D01*
X55833Y9443D01*
X56018Y9517D01*
X56178Y9566D01*
X56339Y9591D01*
X56475Y9616D01*
X56586Y9628D01*
X61017D01*
X61215Y9616D01*
D02*
G37*
G36*
X30354D02*
X30539Y9591D01*
X30712Y9542D01*
X30860Y9492D01*
X30984Y9443D01*
X31070Y9393D01*
X31132Y9369D01*
X31156Y9356D01*
X31317Y9245D01*
X31453Y9134D01*
X31576Y9011D01*
X31687Y8887D01*
X31774Y8788D01*
X31835Y8702D01*
X31872Y8653D01*
X31885Y8628D01*
X31971Y8455D01*
X32045Y8282D01*
X32094Y8109D01*
X32119Y7961D01*
X32144Y7826D01*
X32156Y7714D01*
Y7653D01*
Y7640D01*
Y7628D01*
Y3406D01*
X32144Y3209D01*
X32119Y3024D01*
X32070Y2863D01*
X32020Y2715D01*
X31971Y2592D01*
X31922Y2493D01*
X31897Y2444D01*
X31885Y2419D01*
X31774Y2258D01*
X31650Y2110D01*
X31527Y1987D01*
X31416Y1888D01*
X31317Y1802D01*
X31230Y1740D01*
X31181Y1703D01*
X31156Y1690D01*
X30984Y1604D01*
X30811Y1530D01*
X30638Y1481D01*
X30490Y1456D01*
X30354Y1431D01*
X30243Y1419D01*
X23824D01*
X23811Y3431D01*
X30058D01*
X30107Y3443D01*
X30119D01*
X30144Y3480D01*
Y3505D01*
Y4505D01*
X23811Y4517D01*
X23824Y7628D01*
X23836Y7826D01*
X23861Y8011D01*
X23910Y8184D01*
X23947Y8332D01*
X23997Y8455D01*
X24046Y8554D01*
X24071Y8603D01*
X24083Y8628D01*
X24182Y8788D01*
X24305Y8937D01*
X24429Y9060D01*
X24540Y9171D01*
X24638Y9245D01*
X24725Y9307D01*
X24774Y9344D01*
X24799Y9356D01*
X24972Y9443D01*
X25157Y9517D01*
X25317Y9566D01*
X25478Y9591D01*
X25614Y9616D01*
X25725Y9628D01*
X30156D01*
X30354Y9616D01*
D02*
G37*
G36*
X20540D02*
X20725Y9591D01*
X20898Y9542D01*
X21046Y9492D01*
X21170Y9443D01*
X21256Y9393D01*
X21318Y9369D01*
X21342Y9356D01*
X21503Y9245D01*
X21639Y9134D01*
X21762Y9011D01*
X21873Y8887D01*
X21960Y8788D01*
X22021Y8702D01*
X22058Y8653D01*
X22071Y8628D01*
X22157Y8455D01*
X22231Y8282D01*
X22281Y8109D01*
X22305Y7961D01*
X22330Y7826D01*
X22342Y7714D01*
Y7653D01*
Y7640D01*
Y7628D01*
Y3406D01*
X22330Y3209D01*
X22305Y3024D01*
X22256Y2863D01*
X22207Y2715D01*
X22157Y2592D01*
X22108Y2493D01*
X22083Y2444D01*
X22071Y2419D01*
X21960Y2258D01*
X21836Y2110D01*
X21713Y1987D01*
X21602Y1888D01*
X21503Y1802D01*
X21416Y1740D01*
X21367Y1703D01*
X21342Y1690D01*
X21170Y1604D01*
X20997Y1530D01*
X20824Y1481D01*
X20676Y1456D01*
X20540Y1431D01*
X20429Y1419D01*
X14010D01*
X13998Y3431D01*
X20244D01*
X20293Y3443D01*
X20306D01*
X20330Y3480D01*
Y3505D01*
Y4505D01*
X13998Y4517D01*
X14010Y7628D01*
X14022Y7826D01*
X14047Y8011D01*
X14096Y8184D01*
X14133Y8332D01*
X14183Y8455D01*
X14232Y8554D01*
X14257Y8603D01*
X14269Y8628D01*
X14368Y8788D01*
X14491Y8937D01*
X14615Y9060D01*
X14726Y9171D01*
X14825Y9245D01*
X14911Y9307D01*
X14960Y9344D01*
X14985Y9356D01*
X15158Y9443D01*
X15343Y9517D01*
X15504Y9566D01*
X15664Y9591D01*
X15800Y9616D01*
X15911Y9628D01*
X20343D01*
X20540Y9616D01*
D02*
G37*
G36*
X10702D02*
X10899Y9591D01*
X11072Y9542D01*
X11220Y9492D01*
X11343Y9443D01*
X11430Y9393D01*
X11492Y9369D01*
X11516Y9356D01*
X11677Y9245D01*
X11813Y9134D01*
X11936Y9011D01*
X12047Y8887D01*
X12134Y8788D01*
X12195Y8702D01*
X12232Y8653D01*
X12245Y8628D01*
X12331Y8455D01*
X12405Y8282D01*
X12455Y8109D01*
X12479Y7961D01*
X12504Y7826D01*
X12516Y7714D01*
Y7653D01*
Y7640D01*
Y7628D01*
Y1419D01*
X10504D01*
Y7529D01*
Y7566D01*
X10492Y7579D01*
X10479Y7591D01*
X10442Y7616D01*
X5949D01*
Y9628D01*
X10504D01*
X10702Y9616D01*
D02*
G37*
G36*
X139318D02*
X139515Y9591D01*
X139688Y9542D01*
X139836Y9492D01*
X139960Y9443D01*
X140046Y9393D01*
X140108Y9369D01*
X140133Y9356D01*
X140293Y9245D01*
X140441Y9134D01*
X140565Y9011D01*
X140663Y8887D01*
X140750Y8788D01*
X140812Y8702D01*
X140849Y8653D01*
X140861Y8628D01*
X140947Y8455D01*
X141021Y8282D01*
X141071Y8109D01*
X141096Y7961D01*
X141120Y7826D01*
X141132Y7714D01*
Y7653D01*
Y7640D01*
Y7628D01*
Y3406D01*
X141120Y3209D01*
X141096Y3024D01*
X141046Y2863D01*
X140997Y2703D01*
X140960Y2579D01*
X140910Y2493D01*
X140886Y2431D01*
X140873Y2406D01*
X140762Y2246D01*
X140639Y2098D01*
X140528Y1974D01*
X140404Y1876D01*
X140306Y1789D01*
X140219Y1727D01*
X140170Y1690D01*
X140145Y1678D01*
X139960Y1592D01*
X139787Y1530D01*
X139614Y1481D01*
X139454Y1456D01*
X139318Y1431D01*
X139219Y1419D01*
X134800D01*
Y295D01*
Y271D01*
X134812Y246D01*
X134824Y234D01*
X134862Y209D01*
X139812D01*
X139787Y-1815D01*
X134788D01*
X134590Y-1803D01*
X134392Y-1778D01*
X134220Y-1729D01*
X134072Y-1680D01*
X133948Y-1630D01*
X133849Y-1581D01*
X133800Y-1556D01*
X133775Y-1544D01*
X133615Y-1433D01*
X133467Y-1322D01*
X133343Y-1198D01*
X133244Y-1087D01*
X133158Y-988D01*
X133096Y-902D01*
X133059Y-852D01*
X133047Y-828D01*
X132961Y-655D01*
X132886Y-470D01*
X132849Y-297D01*
X132812Y-149D01*
X132800Y-1D01*
X132788Y98D01*
Y172D01*
Y197D01*
Y7628D01*
X132800Y7826D01*
X132825Y8011D01*
X132862Y8184D01*
X132923Y8332D01*
X132973Y8455D01*
X133010Y8554D01*
X133047Y8603D01*
X133059Y8628D01*
X133170Y8788D01*
X133281Y8937D01*
X133405Y9060D01*
X133516Y9159D01*
X133615Y9245D01*
X133701Y9307D01*
X133751Y9344D01*
X133775Y9356D01*
X133948Y9443D01*
X134121Y9517D01*
X134294Y9566D01*
X134442Y9591D01*
X134590Y9616D01*
X134689Y9628D01*
X139120D01*
X139318Y9616D01*
D02*
G37*
%LPC*%
G36*
X71773Y176345D02*
X94331Y176320D01*
X94368Y176283D01*
X94455Y176121D01*
X94505Y176096D01*
X94617Y175984D01*
X94592Y175286D01*
X94605Y164256D01*
X94480Y164131D01*
X94430Y164107D01*
X94393Y164069D01*
X94368Y164019D01*
X94281Y163932D01*
X94169Y163920D01*
X93034Y163932D01*
X92947Y163870D01*
X92922Y163695D01*
X92935Y152067D01*
X92860Y151968D01*
X92810Y151943D01*
X92748Y151880D01*
X92673Y151756D01*
X92611Y151693D01*
X78926Y151718D01*
X78864Y151781D01*
X78839Y151831D01*
X78777Y151918D01*
X78652Y151993D01*
X78615Y152030D01*
X78590Y152130D01*
X78615Y152528D01*
Y159234D01*
Y159258D01*
X78590Y163845D01*
X78552Y163907D01*
X78378Y163957D01*
X78204Y163932D01*
X71860Y163920D01*
X71760Y163944D01*
X71685Y164019D01*
X71660Y164069D01*
X71573Y164156D01*
X71523Y164181D01*
X71461Y164244D01*
X71436Y164343D01*
X71461Y164593D01*
X71449Y175946D01*
X71486Y176034D01*
X71523Y176071D01*
X71573Y176096D01*
X71635Y176158D01*
X71710Y176283D01*
X71773Y176345D01*
D02*
G37*
G36*
X122970D02*
X145528Y176320D01*
X145590Y176258D01*
X145665Y176133D01*
X145728Y176071D01*
X145778Y176046D01*
X145840Y175884D01*
X145815Y175809D01*
X145827Y164331D01*
X145802Y164231D01*
X145753Y164181D01*
X145703Y164156D01*
X145566Y164019D01*
X145541Y163969D01*
X145503Y163932D01*
X145366Y163920D01*
X138985Y163944D01*
X138773Y163957D01*
X138686Y163895D01*
X138661Y163795D01*
X138736Y163670D01*
X138823Y163608D01*
X138861Y163571D01*
X138873Y163508D01*
X138848Y163458D01*
X138798Y163433D01*
X138661Y163321D01*
X138686Y162773D01*
X138723Y162736D01*
X138773Y162711D01*
X138861Y162648D01*
X138836Y162499D01*
X138686Y162399D01*
X138661Y162299D01*
X138686Y161826D01*
X138748Y161763D01*
X138798Y161739D01*
X138861Y161676D01*
X138836Y161552D01*
X138798Y161514D01*
X138748Y161489D01*
X138686Y161452D01*
X138661Y161352D01*
X138686Y160854D01*
X138723Y160816D01*
X138848Y160742D01*
X138861Y160629D01*
X138773Y160542D01*
X138723Y160517D01*
X138661Y160455D01*
X138686Y159907D01*
X138748Y159844D01*
X138798Y159819D01*
X138861Y159757D01*
X138836Y159632D01*
X138798Y159595D01*
X138686Y159533D01*
X138661Y159433D01*
X138686Y158959D01*
X138773Y158872D01*
X138823Y158847D01*
X138861Y158810D01*
X138836Y158685D01*
X138798Y158648D01*
X138748Y158623D01*
X138661Y158536D01*
X138686Y157987D01*
X138723Y157950D01*
X138773Y157925D01*
X138861Y157863D01*
X138836Y157713D01*
X138686Y157613D01*
X138661Y157514D01*
X138686Y157040D01*
X138748Y156978D01*
X138798Y156953D01*
X138861Y156890D01*
X138836Y156766D01*
X138798Y156728D01*
X138748Y156704D01*
X138686Y156666D01*
X138661Y156566D01*
X138686Y156068D01*
X138723Y156031D01*
X138848Y155956D01*
X138861Y155844D01*
X138773Y155756D01*
X138723Y155731D01*
X138661Y155669D01*
X138686Y155121D01*
X138748Y155058D01*
X138798Y155034D01*
X138861Y154971D01*
X138836Y154847D01*
X138686Y154747D01*
X138661Y154647D01*
X138686Y154174D01*
X138773Y154086D01*
X138823Y154061D01*
X138861Y154024D01*
X138836Y153899D01*
X138798Y153862D01*
X138748Y153837D01*
X138661Y153750D01*
X138686Y153202D01*
X138723Y153164D01*
X138773Y153139D01*
X138861Y153077D01*
X138836Y152927D01*
X138699Y152840D01*
X138661Y152728D01*
X138686Y152254D01*
X138748Y152192D01*
X138798Y152167D01*
X138861Y152105D01*
X138836Y151980D01*
X138798Y151943D01*
X138674Y151868D01*
X138611Y151806D01*
X138586Y151756D01*
X138424Y151693D01*
X127831D01*
X124690Y151718D01*
X124578Y151806D01*
X124553Y151855D01*
X124491Y151918D01*
X124366Y151993D01*
X124354Y152105D01*
X124441Y152192D01*
X124491Y152217D01*
X124528Y152254D01*
X124578Y152379D01*
X124553Y152553D01*
X124466Y152641D01*
X124416Y152666D01*
X124354Y152728D01*
X124379Y152852D01*
X124416Y152890D01*
X124466Y152915D01*
X124553Y153002D01*
X124528Y153550D01*
X124491Y153588D01*
X124366Y153663D01*
X124329Y153725D01*
X124391Y153812D01*
X124516Y153887D01*
X124553Y153999D01*
X124491Y154086D01*
X124366Y154161D01*
X124354Y154248D01*
X124416Y154311D01*
X124528Y154373D01*
X124553Y154473D01*
X124491Y154560D01*
X124441Y154585D01*
X124354Y154647D01*
X124366Y154759D01*
X124528Y154847D01*
X124553Y154946D01*
X124528Y154996D01*
X124466Y155058D01*
X124416Y155083D01*
X124354Y155121D01*
X124379Y155245D01*
X124441Y155308D01*
X124491Y155333D01*
X124553Y155395D01*
X124528Y155943D01*
X124491Y155981D01*
X124366Y156055D01*
X124329Y156118D01*
X124391Y156205D01*
X124516Y156280D01*
X124553Y156392D01*
X124491Y156479D01*
X124366Y156554D01*
X124354Y156641D01*
X124416Y156704D01*
X124528Y156766D01*
X124553Y156866D01*
X124491Y156953D01*
X124441Y156978D01*
X124354Y157040D01*
X124366Y157152D01*
X124528Y157240D01*
X124553Y157339D01*
X124528Y157389D01*
X124466Y157451D01*
X124416Y157476D01*
X124354Y157514D01*
X124379Y157638D01*
X124441Y157701D01*
X124491Y157725D01*
X124553Y157788D01*
X124528Y158336D01*
X124491Y158374D01*
X124366Y158448D01*
X124329Y158511D01*
X124391Y158598D01*
X124516Y158673D01*
X124553Y158785D01*
X124491Y158872D01*
X124366Y158947D01*
X124354Y159034D01*
X124416Y159096D01*
X124528Y159159D01*
X124553Y159258D01*
X124491Y159346D01*
X124441Y159371D01*
X124354Y159433D01*
X124366Y159545D01*
X124528Y159632D01*
X124553Y159732D01*
X124528Y159782D01*
X124466Y159844D01*
X124416Y159869D01*
X124354Y159907D01*
X124379Y160031D01*
X124441Y160093D01*
X124491Y160118D01*
X124553Y160181D01*
X124528Y160729D01*
X124491Y160767D01*
X124366Y160841D01*
X124329Y160904D01*
X124391Y160991D01*
X124516Y161066D01*
X124553Y161178D01*
X124491Y161265D01*
X124366Y161340D01*
X124354Y161427D01*
X124416Y161489D01*
X124528Y161552D01*
X124553Y161651D01*
X124528Y161701D01*
X124466Y161763D01*
X124354Y161826D01*
X124379Y161950D01*
X124416Y161988D01*
X124466Y162013D01*
X124528Y162050D01*
X124553Y162150D01*
X124528Y162624D01*
X124441Y162711D01*
X124391Y162736D01*
X124354Y162773D01*
X124341Y162835D01*
X124391Y162910D01*
X124516Y162985D01*
X124553Y163022D01*
X124528Y163147D01*
X124491Y163184D01*
X124366Y163259D01*
X124329Y163321D01*
X124416Y163433D01*
X124528Y163496D01*
X124578Y163670D01*
X124553Y163745D01*
X124528Y163845D01*
X124491Y163907D01*
X124316Y163957D01*
X124217Y163932D01*
X123057Y163920D01*
X122933Y163969D01*
X122821Y164131D01*
X122771Y164156D01*
X122684Y164219D01*
X122659Y164318D01*
X122684Y176009D01*
X122858Y176183D01*
X122933Y176308D01*
X122970Y176345D01*
D02*
G37*
G36*
X102631Y146634D02*
X102768Y146596D01*
X102805Y146559D01*
X102917Y146546D01*
X103005Y146584D01*
X103129Y146634D01*
X103229Y146609D01*
X103379Y146534D01*
X103603Y146634D01*
X103703Y146609D01*
X103877Y146534D01*
X104101Y146634D01*
X104326Y146534D01*
X104550Y146634D01*
X104687Y146596D01*
X104725Y146559D01*
X104837Y146546D01*
X105049Y146634D01*
X105298Y146534D01*
X105522Y146634D01*
X105622Y146609D01*
X105772Y146534D01*
X105996Y146634D01*
X106096Y146609D01*
X106270Y146534D01*
X106494Y146634D01*
X106719Y146534D01*
X106943Y146634D01*
X107080Y146596D01*
X107118Y146559D01*
X107230Y146546D01*
X107442Y146634D01*
X107691Y146534D01*
X107915Y146634D01*
X108015Y146609D01*
X108164Y146534D01*
X108389Y146634D01*
X108488Y146609D01*
X108663Y146534D01*
X108763Y146584D01*
X108775Y146596D01*
X108887Y146634D01*
X109111Y146534D01*
X109336Y146634D01*
X109473Y146596D01*
X109510Y146559D01*
X109622Y146546D01*
X109834Y146634D01*
X110084Y146534D01*
X110308Y146634D01*
X110408Y146609D01*
X110557Y146534D01*
X110782Y146634D01*
X110881Y146609D01*
X111056Y146534D01*
X111280Y146634D01*
X111504Y146534D01*
X111729Y146634D01*
X111866Y146596D01*
X111903Y146559D01*
X112015Y146546D01*
X112227Y146634D01*
X112477Y146534D01*
X112701Y146634D01*
X112801Y146609D01*
X112950Y146534D01*
X113174Y146634D01*
X113274Y146609D01*
X113449Y146534D01*
X113673Y146634D01*
X113897Y146534D01*
X114072Y146609D01*
X114171Y146634D01*
X114396Y146534D01*
X114595Y146559D01*
X114869Y146434D01*
X115044Y146409D01*
X115218Y146309D01*
X115268Y146260D01*
X115493Y146135D01*
X115592Y146035D01*
X115642Y146010D01*
X115879Y145848D01*
X115991Y145711D01*
X116128Y145599D01*
X116153Y145549D01*
X116315Y145312D01*
X116402Y145225D01*
X116502Y145051D01*
X116627Y144926D01*
X116652Y144826D01*
X116751Y144652D01*
X116801Y144602D01*
X116876Y144427D01*
X116913Y144291D01*
X117013Y144141D01*
X117050Y144103D01*
X117100Y143979D01*
X117125Y143879D01*
X117163Y143717D01*
X117188Y143593D01*
X117212Y143493D01*
X117350Y143231D01*
X117399Y142733D01*
X117424Y142658D01*
X117462Y142521D01*
X117524Y142384D01*
X117574Y142184D01*
X117549Y142010D01*
X117574Y141935D01*
X117599Y141686D01*
X117574Y139642D01*
X117549Y139567D01*
X117487Y139405D01*
X117424Y139193D01*
X117399Y139093D01*
X117374Y138919D01*
X117350Y138595D01*
X117225Y138420D01*
X117188Y138283D01*
X117138Y138034D01*
X117088Y137835D01*
X116988Y137685D01*
X116951Y137648D01*
X116839Y137336D01*
X116776Y137274D01*
X116751Y137174D01*
X116776Y137099D01*
X116876Y136875D01*
X116901Y136700D01*
X116988Y136588D01*
X117038Y136564D01*
X117075Y136526D01*
X117125Y136352D01*
X117150Y136053D01*
X117275Y135878D01*
X117350Y135703D01*
X117374Y135180D01*
X117399Y135105D01*
X117437Y134943D01*
X117512Y134744D01*
X117574Y134532D01*
X117599Y134283D01*
X117574Y132239D01*
X117549Y132164D01*
X117574Y132089D01*
X117549Y131915D01*
X117449Y131815D01*
X117399Y131691D01*
X117374Y131217D01*
X117350Y131142D01*
X117287Y130855D01*
X117150Y130594D01*
X117125Y130494D01*
X117088Y130307D01*
X117001Y130170D01*
X116901Y129946D01*
X116863Y129759D01*
X116701Y129597D01*
X116652Y129472D01*
X116614Y129335D01*
X116427Y129148D01*
X116402Y129048D01*
X116303Y128874D01*
X115717Y128288D01*
X115542Y128188D01*
X115480Y128126D01*
X115455Y128076D01*
X115418Y128039D01*
X115144Y127939D01*
X114969Y127815D01*
X114869Y127790D01*
X114545Y127765D01*
X114371Y127740D01*
X114271Y127715D01*
X114171Y127740D01*
X102469Y127727D01*
X101970Y127802D01*
X101883Y127864D01*
X101846Y127902D01*
X101821Y127952D01*
X101734Y128039D01*
X101684Y128064D01*
X101621Y128126D01*
X101572Y128251D01*
X101534Y128388D01*
X101497Y128425D01*
X101472Y128475D01*
X101372Y128625D01*
X101322Y128974D01*
X101297Y129073D01*
X101272Y129472D01*
X101222Y129597D01*
X101247Y129896D01*
X101272Y129971D01*
X101322Y130145D01*
X101347Y130469D01*
X101372Y130619D01*
X101497Y130793D01*
X101646Y131067D01*
X101684Y131105D01*
X101734Y131130D01*
X101821Y131217D01*
X101846Y131267D01*
X101933Y131354D01*
X102095Y131416D01*
X102182Y131479D01*
X102357Y131553D01*
X102506Y131528D01*
X102631Y131479D01*
X102755Y131503D01*
X102880Y131553D01*
X103005Y131528D01*
X103055Y131479D01*
X103229Y131503D01*
X103354Y131553D01*
X103478Y131528D01*
X103603Y131479D01*
X103728Y131503D01*
X103852Y131553D01*
X103952Y131528D01*
X104077Y131479D01*
X104201Y131503D01*
X104326Y131553D01*
X104425Y131528D01*
X104550Y131479D01*
X104675Y131503D01*
X104799Y131553D01*
X104924Y131528D01*
X104974Y131479D01*
X105148Y131503D01*
X105273Y131553D01*
X105398Y131528D01*
X105448Y131479D01*
X105622Y131503D01*
X105747Y131553D01*
X105871Y131528D01*
X105996Y131479D01*
X106121Y131503D01*
X106245Y131553D01*
X106345Y131528D01*
X106469Y131479D01*
X106594Y131503D01*
X106719Y131553D01*
X106818Y131528D01*
X106943Y131479D01*
X107068Y131503D01*
X107192Y131553D01*
X107317Y131528D01*
X107367Y131479D01*
X107541Y131503D01*
X107666Y131553D01*
X107790Y131528D01*
X107840Y131479D01*
X108015Y131503D01*
X108139Y131553D01*
X108264Y131528D01*
X108389Y131479D01*
X108513Y131503D01*
X108638Y131553D01*
X108738Y131528D01*
X108862Y131479D01*
X108987Y131503D01*
X109111Y131553D01*
X109211Y131528D01*
X109336Y131479D01*
X109460Y131503D01*
X109585Y131553D01*
X109710Y131528D01*
X109760Y131479D01*
X109934Y131503D01*
X110059Y131553D01*
X110183Y131528D01*
X110233Y131479D01*
X110408Y131503D01*
X110532Y131553D01*
X110657Y131528D01*
X110782Y131479D01*
X110906Y131503D01*
X111031Y131553D01*
X111131Y131528D01*
X111255Y131479D01*
X111380Y131503D01*
X111504Y131553D01*
X111604Y131528D01*
X111729Y131479D01*
X111853Y131503D01*
X111978Y131553D01*
X112103Y131528D01*
X112153Y131479D01*
X112327Y131503D01*
X112452Y131553D01*
X112576Y131528D01*
X112626Y131479D01*
X112801Y131503D01*
X112925Y131553D01*
X113050Y131528D01*
X113174Y131479D01*
X113299Y131503D01*
X113424Y131553D01*
X113523Y131528D01*
X113648Y131479D01*
X113773Y131503D01*
X113897Y131553D01*
X113997Y131528D01*
X114122Y131479D01*
X114221Y131503D01*
X114346Y131578D01*
X114521Y131603D01*
X114645Y131653D01*
X114682Y131691D01*
X114707Y131740D01*
X114845Y131877D01*
X114894Y131902D01*
X114932Y131940D01*
X114982Y132064D01*
X115007Y132164D01*
X115181Y132438D01*
X115206Y132613D01*
X115256Y133286D01*
X115231Y134083D01*
X115206Y134158D01*
X115181Y134258D01*
X115069Y134395D01*
X115007Y134532D01*
X114982Y134632D01*
X114857Y134856D01*
X114707Y134981D01*
X114633Y135056D01*
X114620Y135093D01*
X114570Y135118D01*
X114396Y135193D01*
X114196Y135242D01*
X113910Y135205D01*
X113648Y135193D01*
X113573Y135218D01*
X113349Y135242D01*
X113274Y135218D01*
X113025Y135193D01*
X112788Y135230D01*
X112651Y135242D01*
X112576Y135218D01*
X112327Y135193D01*
X112065Y135230D01*
X111928Y135242D01*
X111853Y135218D01*
X111604Y135193D01*
X111342Y135230D01*
X111205Y135242D01*
X111131Y135218D01*
X110881Y135193D01*
X110620Y135230D01*
X110483Y135242D01*
X110408Y135218D01*
X110158Y135193D01*
X109897Y135230D01*
X109760Y135242D01*
X109685Y135218D01*
X109436Y135193D01*
X109199Y135230D01*
X109062Y135242D01*
X108987Y135218D01*
X108738Y135193D01*
X108476Y135230D01*
X108339Y135242D01*
X108264Y135218D01*
X108015Y135193D01*
X107753Y135230D01*
X107616Y135242D01*
X107541Y135218D01*
X107292Y135193D01*
X107030Y135230D01*
X106893Y135242D01*
X106818Y135218D01*
X106569Y135193D01*
X106307Y135230D01*
X106170Y135242D01*
X106096Y135218D01*
X105846Y135193D01*
X105610Y135230D01*
X105472Y135242D01*
X105398Y135218D01*
X105148Y135193D01*
X104887Y135230D01*
X104749Y135242D01*
X104675Y135218D01*
X104425Y135193D01*
X104164Y135230D01*
X104027Y135242D01*
X103952Y135218D01*
X103703Y135193D01*
X103441Y135230D01*
X103304Y135242D01*
X103229Y135218D01*
X102980Y135193D01*
X102743Y135230D01*
X102606Y135242D01*
X102531Y135218D01*
X102282Y135193D01*
X102107Y135292D01*
X102058Y135367D01*
X102008Y135392D01*
X101833Y135492D01*
X101721Y135604D01*
X101709Y135641D01*
X101671Y135654D01*
X101646Y135703D01*
X101596Y135753D01*
X101572Y135853D01*
X101472Y136028D01*
X101397Y136102D01*
X101347Y136277D01*
X101322Y136676D01*
X101297Y136750D01*
X101272Y136850D01*
X101222Y137025D01*
X101247Y137299D01*
X101297Y137423D01*
X101322Y137897D01*
X101347Y137972D01*
X101372Y138171D01*
X101546Y138346D01*
X101596Y138470D01*
X101696Y138645D01*
X101783Y138732D01*
X101833Y138757D01*
X102008Y138882D01*
X102107Y138981D01*
X102207Y139006D01*
X102357Y139031D01*
X102431Y139006D01*
X114109Y139019D01*
X114371Y139006D01*
X114496Y139081D01*
X114932Y139517D01*
X114982Y139642D01*
X115081Y139816D01*
X115131Y139866D01*
X115156Y139916D01*
X115206Y140041D01*
X115231Y140489D01*
X115256Y140564D01*
X115281Y140664D01*
X115256Y140838D01*
X115231Y141461D01*
X115206Y141536D01*
X115181Y141785D01*
X115069Y141923D01*
X115007Y142060D01*
X114932Y142259D01*
X114807Y142384D01*
X114782Y142434D01*
X114695Y142571D01*
X114271Y142770D01*
X114171Y142745D01*
X102257Y142770D01*
X102132Y142820D01*
X102033Y142845D01*
X101908Y142920D01*
X101821Y143007D01*
X101796Y143057D01*
X101758Y143094D01*
X101709Y143119D01*
X101621Y143206D01*
X101572Y143331D01*
X101509Y143493D01*
X101447Y143580D01*
X101347Y143804D01*
X101310Y144091D01*
X101272Y144552D01*
X101222Y144677D01*
X101247Y144976D01*
X101297Y145101D01*
X101347Y145449D01*
X101422Y145749D01*
X101621Y146123D01*
X101684Y146185D01*
X101734Y146210D01*
X101821Y146297D01*
X101846Y146347D01*
X101908Y146409D01*
X102232Y146559D01*
X102407Y146534D01*
X102631Y146634D01*
D02*
G37*
G36*
X74041Y137162D02*
X74240Y137137D01*
X74315Y137112D01*
X74751Y137124D01*
X75013Y137112D01*
X75088Y137137D01*
X75487Y137112D01*
X75561Y137137D01*
X75985Y137112D01*
X76060Y137137D01*
X76459Y137112D01*
X76533Y137137D01*
X76932Y137112D01*
X77007Y137137D01*
X77406Y137112D01*
X77481Y137137D01*
X77879Y137112D01*
X77954Y137137D01*
X78378Y137112D01*
X78453Y137137D01*
X78852Y137112D01*
X79051Y137162D01*
X79288Y137124D01*
X79637Y137099D01*
X79736Y137074D01*
X79898Y136912D01*
X79948Y136888D01*
X80123Y136763D01*
X80198Y136688D01*
X80247Y136663D01*
X80422Y136564D01*
X80484Y136501D01*
X80509Y136451D01*
X80858Y136277D01*
X80945Y136190D01*
X81120Y136090D01*
X81294Y135915D01*
X81469Y135816D01*
X81568Y135716D01*
X81743Y135616D01*
X81843Y135517D01*
X81892Y135492D01*
X82067Y135417D01*
X82192Y135342D01*
X82316Y135218D01*
X82491Y135118D01*
X82615Y134993D01*
X82840Y134868D01*
X82902Y134781D01*
X82939Y134744D01*
X83176Y134657D01*
X83214Y134619D01*
X83263Y134594D01*
X83363Y134495D01*
X83538Y134395D01*
X83662Y134270D01*
X83887Y134146D01*
X83924Y134108D01*
X83949Y134058D01*
X83986Y134021D01*
X84123Y133984D01*
X84248Y133934D01*
X84323Y133859D01*
X84348Y133809D01*
X84535Y133697D01*
X84585Y133672D01*
X84709Y133547D01*
X84884Y133448D01*
X85008Y133323D01*
X85245Y133236D01*
X85382Y133099D01*
X85432Y133074D01*
X85606Y132949D01*
X85681Y132874D01*
X85731Y132850D01*
X85781Y132800D01*
X86105Y132650D01*
X86429Y132825D01*
X86516Y132912D01*
X86541Y132962D01*
X86603Y133024D01*
X86703Y133049D01*
X86878Y133149D01*
X86977Y133248D01*
X87027Y133273D01*
X87202Y133398D01*
X87276Y133473D01*
X87401Y133523D01*
X87576Y133622D01*
X87675Y133722D01*
X87850Y133822D01*
X87999Y133971D01*
X88174Y134071D01*
X88299Y134195D01*
X88523Y134320D01*
X88623Y134420D01*
X88859Y134507D01*
X89046Y134694D01*
X89221Y134794D01*
X89320Y134893D01*
X89370Y134918D01*
X89582Y135056D01*
X89607Y135105D01*
X89719Y135168D01*
X89844Y135218D01*
X89969Y135292D01*
X90068Y135392D01*
X90118Y135417D01*
X90293Y135541D01*
X90367Y135616D01*
X90492Y135666D01*
X90716Y135791D01*
X90816Y135891D01*
X90990Y135990D01*
X91115Y136115D01*
X91290Y136215D01*
X91439Y136364D01*
X91614Y136464D01*
X91713Y136564D01*
X91950Y136651D01*
X91987Y136688D01*
X92025Y136700D01*
X92050Y136750D01*
X92137Y136838D01*
X92361Y136962D01*
X92461Y137062D01*
X92636Y137112D01*
X92810Y137137D01*
X93134Y137112D01*
X93383Y137137D01*
X93483Y137112D01*
X93894Y137124D01*
X94156Y137112D01*
X94231Y137137D01*
X94630Y137112D01*
X94704Y137137D01*
X95128Y137112D01*
X95203Y137137D01*
X95602Y137112D01*
X95676Y137137D01*
X96075Y137112D01*
X96150Y137137D01*
X96549Y137112D01*
X96624Y137137D01*
X97022Y137112D01*
X97097Y137137D01*
X97521Y137112D01*
X97596Y137137D01*
X97995Y137112D01*
X98194Y137162D01*
X98431Y137124D01*
X98531Y137099D01*
X98655Y137050D01*
X98680Y137000D01*
X98705Y136925D01*
X98730Y136825D01*
X98705Y136750D01*
X98680Y136700D01*
X98618Y136638D01*
X98593D01*
X98580Y136626D01*
X98443Y136538D01*
X98319Y136414D01*
X98144Y136314D01*
X98045Y136215D01*
X97795Y136115D01*
X97733Y136077D01*
X97708Y136028D01*
X97621Y135940D01*
X97396Y135816D01*
X97297Y135716D01*
X97197Y135691D01*
X97072Y135616D01*
X97010Y135554D01*
X96985Y135504D01*
X96923Y135442D01*
X96723Y135367D01*
X96624Y135267D01*
X96449Y135193D01*
X96325Y135118D01*
X96250Y134993D01*
X96200Y134968D01*
X96075Y134918D01*
X95951Y134844D01*
X95851Y134744D01*
X95676Y134644D01*
X95552Y134520D01*
X95427Y134470D01*
X95215Y134358D01*
X95203Y134320D01*
X95153Y134295D01*
X95103Y134245D01*
X94929Y134146D01*
X94804Y134021D01*
X94567Y133934D01*
X94430Y133797D01*
X94380Y133772D01*
X94206Y133647D01*
X94131Y133572D01*
X93907Y133448D01*
X93844Y133361D01*
X93807Y133323D01*
X93682Y133273D01*
X93583Y133248D01*
X93446Y133136D01*
X93383Y133074D01*
X93209Y132974D01*
X93059Y132825D01*
X92960Y132800D01*
X92835Y132750D01*
X92748Y132688D01*
X92735Y132650D01*
X92685Y132625D01*
X92636Y132575D01*
X92461Y132476D01*
X92424Y132438D01*
X92399Y132388D01*
X92262Y132326D01*
X92162Y132301D01*
X92025Y132189D01*
X92000Y132139D01*
X91788Y132027D01*
X91638Y131877D01*
X91589Y131852D01*
X91352Y131691D01*
X91314Y131653D01*
X91152Y131591D01*
X91065Y131553D01*
X90891Y131379D01*
X90716Y131279D01*
X90617Y131180D01*
X90380Y131092D01*
X90342Y131055D01*
X90305Y131042D01*
X90280Y130992D01*
X90218Y130930D01*
X90168Y130905D01*
X89931Y130743D01*
X89869Y130681D01*
X89769Y130656D01*
X89595Y130556D01*
X89532Y130494D01*
X89482Y130369D01*
X89507Y130245D01*
X89545Y130207D01*
X89644Y130182D01*
X89806Y130120D01*
X89969Y129958D01*
X90143Y129858D01*
X90243Y129759D01*
X90293Y129734D01*
X90417Y129684D01*
X90592Y129584D01*
X90641Y129509D01*
X90691Y129485D01*
X90928Y129323D01*
X90990Y129260D01*
X91115Y129210D01*
X91290Y129111D01*
X91389Y129011D01*
X91564Y128911D01*
X91664Y128812D01*
X91713Y128787D01*
X91888Y128712D01*
X92012Y128637D01*
X92137Y128512D01*
X92311Y128413D01*
X92436Y128288D01*
X92536Y128263D01*
X92710Y128163D01*
X92810Y128064D01*
X92985Y127964D01*
X93084Y127864D01*
X93134Y127839D01*
X93309Y127765D01*
X93433Y127690D01*
X93558Y127565D01*
X93732Y127465D01*
X93832Y127366D01*
X93882Y127341D01*
X94007Y127291D01*
X94181Y127191D01*
X94231Y127116D01*
X94281Y127092D01*
X94517Y126930D01*
X94580Y126867D01*
X94742Y126805D01*
X94829Y126743D01*
X94866Y126705D01*
X94891Y126655D01*
X94954Y126593D01*
X95078Y126543D01*
X95203Y126468D01*
X95278Y126394D01*
X95328Y126369D01*
X95502Y126269D01*
X95676Y126145D01*
X95901Y126020D01*
X96025Y125895D01*
X96075Y125870D01*
X96300Y125746D01*
X96349Y125696D01*
X96574Y125571D01*
X96649Y125496D01*
X96699Y125471D01*
X96773Y125397D01*
X96998Y125272D01*
X97147Y125172D01*
X97322Y125073D01*
X97446Y124948D01*
X97671Y124823D01*
X97708Y124786D01*
X97733Y124736D01*
X97770Y124699D01*
X98020Y124599D01*
X98157Y124487D01*
X98194Y124450D01*
X98369Y124350D01*
X98518Y124200D01*
X98655Y124163D01*
X98792Y124076D01*
X98867Y124001D01*
X98917Y123976D01*
X99091Y123876D01*
X99241Y123727D01*
X99366Y123652D01*
X99428Y123589D01*
X99465Y123427D01*
X99478Y123365D01*
X99390Y123228D01*
X99266Y123178D01*
X93209Y123203D01*
X93022Y123315D01*
X92997Y123365D01*
X92935Y123427D01*
X92685Y123527D01*
X92586Y123627D01*
X92536Y123652D01*
X92361Y123752D01*
X92187Y123926D01*
X92087Y123951D01*
X92037Y124001D01*
X91987Y124026D01*
X91888Y124150D01*
X91788Y124175D01*
X91626Y124238D01*
X91576Y124288D01*
X91551Y124337D01*
X91489Y124400D01*
X91265Y124524D01*
X91240Y124574D01*
X91190Y124599D01*
X91140Y124649D01*
X90966Y124749D01*
X90866Y124848D01*
X90617Y124948D01*
X90467Y125098D01*
X90293Y125197D01*
X90168Y125322D01*
X89944Y125447D01*
X89794Y125596D01*
X89595Y125671D01*
X89458Y125783D01*
X89420Y125820D01*
X89246Y125920D01*
X89096Y126070D01*
X88934Y126132D01*
X88809Y126257D01*
X88797Y126294D01*
X88623Y126344D01*
X88498Y126419D01*
X88348Y126568D01*
X88174Y126668D01*
X88074Y126768D01*
X88024Y126792D01*
X87850Y126917D01*
X87775Y126992D01*
X87526Y127092D01*
X87438Y127154D01*
X87414Y127204D01*
X87139Y127378D01*
X87027Y127490D01*
X86977Y127515D01*
X86803Y127640D01*
X86703Y127740D01*
X86454Y127839D01*
X86329Y127964D01*
X86279Y127989D01*
X86105Y128064D01*
X85931Y128039D01*
X85806Y127964D01*
X85631Y127790D01*
X85457Y127690D01*
X85382Y127615D01*
X85208Y127540D01*
X85083Y127465D01*
X85021Y127378D01*
X84934Y127291D01*
X84796Y127254D01*
X84759Y127216D01*
X84709Y127191D01*
X84609Y127092D01*
X84560Y127067D01*
X84385Y126942D01*
X84310Y126867D01*
X84136Y126768D01*
X83986Y126618D01*
X83750Y126531D01*
X83588Y126369D01*
X83363Y126244D01*
X83238Y126119D01*
X83064Y126020D01*
X82964Y125920D01*
X82715Y125820D01*
X82628Y125758D01*
X82603Y125708D01*
X82541Y125646D01*
X82316Y125521D01*
X82192Y125397D01*
X82017Y125297D01*
X81892Y125172D01*
X81718Y125073D01*
X81568Y124923D01*
X81406Y124886D01*
X81257Y124786D01*
X81244Y124749D01*
X81195Y124724D01*
X80958Y124562D01*
X80933Y124512D01*
X80896Y124474D01*
X80846Y124450D01*
X80671Y124350D01*
X80571Y124250D01*
X80447Y124200D01*
X80272Y124101D01*
X80148Y123976D01*
X79973Y123876D01*
X79836Y123764D01*
X79799Y123727D01*
X79749Y123702D01*
X79574Y123577D01*
X79500Y123502D01*
X79375Y123453D01*
X79201Y123353D01*
X79076Y123228D01*
X78951Y123178D01*
X72944Y123203D01*
X72882Y123265D01*
X72845Y123477D01*
X72869Y123602D01*
X72969Y123702D01*
X73094Y123777D01*
X73218Y123901D01*
X73268Y123926D01*
X73443Y124026D01*
X73542Y124125D01*
X73792Y124225D01*
X73966Y124400D01*
X74141Y124499D01*
X74215Y124574D01*
X74265Y124599D01*
X74390Y124649D01*
X74564Y124749D01*
X74639Y124848D01*
X74689Y124873D01*
X74863Y124973D01*
X74963Y125073D01*
X75088Y125122D01*
X75262Y125222D01*
X75387Y125347D01*
X75561Y125447D01*
X75611Y125496D01*
X75661Y125521D01*
X75711Y125571D01*
X75948Y125658D01*
X76047Y125758D01*
X76060Y125795D01*
X76110Y125820D01*
X76284Y125920D01*
X76384Y126020D01*
X76434Y126045D01*
X76558Y126095D01*
X76683Y126169D01*
X76808Y126294D01*
X76858Y126319D01*
X77032Y126419D01*
X77157Y126543D01*
X77207Y126568D01*
X77381Y126693D01*
X77456Y126768D01*
X77580Y126818D01*
X77755Y126917D01*
X77830Y126992D01*
X77879Y127017D01*
X78091Y127154D01*
X78116Y127204D01*
X78278Y127291D01*
X78403Y127341D01*
X78540Y127453D01*
X78602Y127515D01*
X78777Y127615D01*
X78901Y127740D01*
X79138Y127827D01*
X79176Y127864D01*
X79225Y127889D01*
X79250Y127939D01*
X79300Y127964D01*
X79450Y128064D01*
X79500Y128089D01*
X79624Y128213D01*
X79786Y128276D01*
X79873Y128313D01*
X79998Y128438D01*
X80048Y128463D01*
X80223Y128587D01*
X80322Y128687D01*
X80484Y128749D01*
X80571Y128787D01*
X80709Y128899D01*
X80746Y128936D01*
X80796Y128961D01*
X80970Y129086D01*
X81045Y129160D01*
X81220Y129260D01*
X81369Y129410D01*
X81606Y129497D01*
X81681Y129547D01*
X81706Y129597D01*
X81892Y129709D01*
X81942Y129734D01*
X82005Y129796D01*
X82030Y129846D01*
X82067Y129883D01*
X82241Y129933D01*
X82366Y130008D01*
X82403Y130045D01*
X82428Y130095D01*
X82541Y130157D01*
X82703Y130245D01*
X82753Y130394D01*
X82678Y130519D01*
X82640Y130556D01*
X82416Y130681D01*
X82291Y130806D01*
X82241Y130830D01*
X82117Y130880D01*
X81942Y130980D01*
X81818Y131105D01*
X81643Y131204D01*
X81544Y131304D01*
X81294Y131404D01*
X81145Y131553D01*
X80970Y131653D01*
X80920Y131703D01*
X80871Y131728D01*
X80796Y131803D01*
X80559Y131890D01*
X80397Y132052D01*
X80223Y132152D01*
X80098Y132276D01*
X79824Y132426D01*
X79774Y132476D01*
X79500Y132625D01*
X79375Y132750D01*
X79325Y132775D01*
X79151Y132899D01*
X79051Y132999D01*
X78926Y133049D01*
X78752Y133149D01*
X78702Y133198D01*
X78652Y133223D01*
X78415Y133385D01*
X78303Y133498D01*
X78066Y133585D01*
X77929Y133722D01*
X77755Y133822D01*
X77630Y133946D01*
X77506Y133996D01*
X77331Y134096D01*
X77157Y134220D01*
X77107Y134245D01*
X76970Y134358D01*
X76882Y134445D01*
X76670Y134557D01*
X76646Y134607D01*
X76583Y134669D01*
X76347Y134756D01*
X76272Y134806D01*
X76247Y134856D01*
X76209Y134893D01*
X76160Y134918D01*
X75985Y135018D01*
X75835Y135168D01*
X75673Y135205D01*
X75586Y135267D01*
X75437Y135417D01*
X75262Y135517D01*
X75163Y135616D01*
X75038Y135666D01*
X74938Y135691D01*
X74801Y135803D01*
X74776Y135853D01*
X74589Y135965D01*
X74539Y135990D01*
X74415Y136115D01*
X74315Y136140D01*
X74190Y136190D01*
X74128Y136227D01*
X74103Y136277D01*
X74016Y136364D01*
X73842Y136464D01*
X73717Y136588D01*
X73667Y136613D01*
X73555Y136700D01*
X73505Y136900D01*
X73592Y137062D01*
X73767Y137112D01*
X73941Y137137D01*
X74041Y137162D01*
D02*
G37*
G36*
X124042D02*
X124291Y137137D01*
X124429Y137099D01*
X124516Y137037D01*
X124615Y136888D01*
X124753Y136775D01*
X124915Y136564D01*
X124952Y136551D01*
X124977Y136501D01*
X125077Y136327D01*
X125226Y136177D01*
X125326Y136003D01*
X125413Y135915D01*
X125463Y135891D01*
X125525Y135828D01*
X125550Y135778D01*
X125675Y135654D01*
X125700Y135604D01*
X125799Y135429D01*
X125837Y135392D01*
X125887Y135367D01*
X125949Y135305D01*
X126074Y135080D01*
X126423Y134731D01*
X126447Y134682D01*
X126572Y134507D01*
X126647Y134432D01*
X126672Y134382D01*
X126784Y134245D01*
X126921Y134133D01*
X126946Y134083D01*
X127058Y133946D01*
X127145Y133859D01*
X127170Y133809D01*
X127295Y133635D01*
X127370Y133560D01*
X127469Y133385D01*
X127619Y133236D01*
X127719Y133061D01*
X127806Y132999D01*
X127893Y132912D01*
X127918Y132862D01*
X128005Y132750D01*
X128055Y132725D01*
X128093Y132688D01*
X128217Y132463D01*
X128591Y132089D01*
X128691Y131915D01*
X128791Y131815D01*
X128815Y131765D01*
X128928Y131628D01*
X128977Y131578D01*
X129027Y131553D01*
X129065Y131516D01*
X129090Y131466D01*
X129202Y131329D01*
X129314Y131217D01*
X129439Y130992D01*
X129488Y130968D01*
X129513Y130918D01*
X129688Y130693D01*
X129763Y130619D01*
X129788Y130569D01*
X129900Y130407D01*
X129950Y130382D01*
X130037Y130295D01*
X130062Y130245D01*
X130174Y130108D01*
X130286Y129995D01*
X130386Y129821D01*
X130710Y129497D01*
X130735Y129447D01*
X130859Y129273D01*
X130934Y129198D01*
X130959Y129148D01*
X131096Y128936D01*
X131146Y128911D01*
X131208Y128849D01*
X131233Y128799D01*
X131345Y128687D01*
X131395Y128662D01*
X131458Y128600D01*
X131582Y128375D01*
X131707Y128251D01*
X131806Y128076D01*
X131894Y128014D01*
X132031Y127802D01*
X132068Y127765D01*
X132118Y127740D01*
X132180Y127677D01*
X132205Y127627D01*
X132317Y127490D01*
X132430Y127378D01*
X132529Y127204D01*
X132629Y127104D01*
X132654Y127054D01*
X132779Y126880D01*
X132866Y126792D01*
X132916Y126768D01*
X132991Y126693D01*
X133115Y126718D01*
X133177Y126780D01*
X133202Y126830D01*
X133302Y126930D01*
X133327Y126980D01*
X133377Y127029D01*
X133477Y127204D01*
X133626Y127353D01*
X133651Y127403D01*
X133738Y127515D01*
X133788Y127540D01*
X133875Y127627D01*
X133950Y127752D01*
X134075Y127877D01*
X134100Y127927D01*
X134224Y128101D01*
X134299Y128176D01*
X134324Y128226D01*
X134424Y128400D01*
X134461Y128438D01*
X134511Y128463D01*
X134548Y128500D01*
X134573Y128550D01*
X134685Y128687D01*
X134735Y128737D01*
X134785Y128762D01*
X134922Y128974D01*
X135047Y129098D01*
X135072Y129148D01*
X135246Y129372D01*
X135346Y129522D01*
X135371Y129572D01*
X135520Y129721D01*
X135545Y129771D01*
X135658Y129908D01*
X135707Y129933D01*
X135770Y129995D01*
X135870Y130170D01*
X135907Y130207D01*
X135957Y130232D01*
X135994Y130270D01*
X136094Y130444D01*
X136194Y130544D01*
X136218Y130594D01*
X136380Y130830D01*
X136443Y130868D01*
X136468Y130918D01*
X136580Y131080D01*
X136630Y131105D01*
X136742Y131217D01*
X136817Y131341D01*
X136966Y131491D01*
X137066Y131665D01*
X137191Y131790D01*
X137303Y132002D01*
X137353Y132027D01*
X137664Y132338D01*
X137789Y132563D01*
X137938Y132712D01*
X138013Y132837D01*
X138113Y132937D01*
X138138Y132987D01*
X138237Y133161D01*
X138325Y133248D01*
X138375Y133273D01*
X138437Y133336D01*
X138462Y133385D01*
X138661Y133585D01*
X138761Y133759D01*
X138861Y133859D01*
X138885Y133909D01*
X139010Y134083D01*
X139085Y134158D01*
X139110Y134208D01*
X139210Y134382D01*
X139247Y134420D01*
X139297Y134445D01*
X139434Y134582D01*
X139459Y134632D01*
X139496Y134669D01*
X139546Y134694D01*
X139658Y134881D01*
X139683Y134931D01*
X139858Y135105D01*
X139957Y135280D01*
X140306Y135629D01*
X140406Y135803D01*
X140555Y135953D01*
X140581Y136003D01*
X140705Y136177D01*
X140780Y136252D01*
X140880Y136426D01*
X141229Y136775D01*
X141253Y136825D01*
X141353Y137000D01*
X141416Y137062D01*
X141590Y137137D01*
X142014Y137112D01*
X142088Y137137D01*
X142487Y137112D01*
X142562Y137137D01*
X142986Y137112D01*
X143061Y137137D01*
X143459Y137112D01*
X143534Y137137D01*
X143933Y137112D01*
X144008Y137137D01*
X144407Y137112D01*
X144481Y137137D01*
X144880Y137112D01*
X144955Y137137D01*
X145379Y137112D01*
X145453Y137137D01*
X145852Y137112D01*
X146052Y137162D01*
X146313Y137124D01*
X146463Y137099D01*
X146625Y137037D01*
X146662Y137000D01*
X146712Y136875D01*
X146687Y136775D01*
X146563Y136601D01*
X146488Y136476D01*
X146338Y136327D01*
X146239Y136152D01*
X146114Y136028D01*
X146089Y135978D01*
X145977Y135865D01*
X145927Y135841D01*
X145890Y135803D01*
X145865Y135753D01*
X145740Y135579D01*
X145665Y135504D01*
X145640Y135454D01*
X145541Y135280D01*
X145503Y135242D01*
X145453Y135218D01*
X145416Y135180D01*
X145391Y135130D01*
X145279Y134993D01*
X145229Y134943D01*
X145179Y134918D01*
X145042Y134706D01*
X144893Y134557D01*
X144793Y134382D01*
X144444Y134033D01*
X144344Y133859D01*
X144195Y133709D01*
X144170Y133660D01*
X144058Y133523D01*
X144008Y133498D01*
X143946Y133435D01*
X143846Y133261D01*
X143808Y133223D01*
X143758Y133198D01*
X143621Y132987D01*
X143272Y132638D01*
X143148Y132413D01*
X143085Y132351D01*
X143036Y132326D01*
X142861Y132052D01*
X142749Y131940D01*
X142724Y131890D01*
X142662Y131827D01*
X142612Y131803D01*
X142525Y131715D01*
X142425Y131541D01*
X142300Y131416D01*
X142201Y131242D01*
X142051Y131092D01*
X142026Y131042D01*
X141914Y130905D01*
X141802Y130818D01*
X141702Y130644D01*
X141390Y130332D01*
X141353Y130320D01*
X141328Y130270D01*
X141204Y130095D01*
X141154Y130045D01*
X141129Y129995D01*
X141079Y129946D01*
X140979Y129771D01*
X140830Y129622D01*
X140755Y129497D01*
X140668Y129435D01*
X140581Y129347D01*
X140493Y129185D01*
X140443Y129160D01*
X140381Y129098D01*
X140356Y129048D01*
X140232Y128874D01*
X140157Y128799D01*
X140132Y128749D01*
X140032Y128575D01*
X139995Y128537D01*
X139945Y128512D01*
X139808Y128375D01*
X139783Y128325D01*
X139745Y128288D01*
X139696Y128263D01*
X139658Y128226D01*
X139633Y128176D01*
X139509Y128001D01*
X139396Y127864D01*
X139334Y127777D01*
X139247Y127715D01*
X139160Y127627D01*
X139060Y127453D01*
X138935Y127328D01*
X138836Y127154D01*
X138686Y127004D01*
X138661Y126954D01*
X138549Y126818D01*
X138499Y126792D01*
X138437Y126730D01*
X138337Y126556D01*
X138300Y126518D01*
X138250Y126493D01*
X138113Y126281D01*
X137764Y125933D01*
X137639Y125708D01*
X137465Y125534D01*
X137440Y125484D01*
X137402Y125422D01*
X137353Y125397D01*
X137240Y125285D01*
X137166Y125160D01*
X137016Y125010D01*
X136991Y124960D01*
X136867Y124786D01*
X136567Y124487D01*
X136542Y124437D01*
X136418Y124263D01*
X136293Y124138D01*
X136194Y123963D01*
X136094Y123864D01*
X136069Y123814D01*
X135882Y123627D01*
X135844Y123615D01*
X135820Y123565D01*
X135695Y123390D01*
X135533Y123228D01*
X135408Y123178D01*
X130548Y123203D01*
X130373Y123303D01*
X130336Y123340D01*
X130211Y123565D01*
X130087Y123689D01*
X130062Y123739D01*
X129950Y123901D01*
X129900Y123926D01*
X129862Y123963D01*
X129837Y124013D01*
X129713Y124188D01*
X129626Y124250D01*
X129588Y124288D01*
X129563Y124337D01*
X129451Y124474D01*
X129314Y124612D01*
X129302Y124649D01*
X129252Y124674D01*
X129115Y124811D01*
X129015Y124985D01*
X128915Y125085D01*
X128890Y125135D01*
X128766Y125309D01*
X128703Y125372D01*
X128653Y125397D01*
X128616Y125434D01*
X128591Y125484D01*
X128541Y125534D01*
X128516Y125584D01*
X128417Y125683D01*
X128317Y125858D01*
X128279Y125895D01*
X128230Y125920D01*
X128192Y125957D01*
X128167Y126007D01*
X128030Y126145D01*
X127980Y126169D01*
X127943Y126207D01*
X127818Y126431D01*
X127694Y126556D01*
X127669Y126606D01*
X127544Y126780D01*
X127395Y126905D01*
X127370Y126954D01*
X127220Y127104D01*
X127121Y127279D01*
X126946Y127453D01*
X126921Y127503D01*
X126884Y127540D01*
X126834Y127565D01*
X126722Y127677D01*
X126597Y127902D01*
X126472Y128026D01*
X126385Y128188D01*
X126335Y128213D01*
X126285Y128263D01*
X126248Y128276D01*
X126223Y128325D01*
X126173Y128375D01*
X126148Y128425D01*
X126024Y128550D01*
X125924Y128724D01*
X125525Y129123D01*
X125426Y129298D01*
X125301Y129422D01*
X125201Y129597D01*
X125151Y129647D01*
X125139Y129659D01*
X125089Y129684D01*
X125002Y129771D01*
X124977Y129821D01*
X124852Y129946D01*
X124827Y129995D01*
X124703Y130170D01*
X124578Y130295D01*
X124553Y130344D01*
X124466Y130432D01*
X124416Y130457D01*
X124354Y130519D01*
X124329Y130569D01*
X124167Y130806D01*
X124104Y130868D01*
X124080Y130918D01*
X123967Y131080D01*
X123918Y131105D01*
X123780Y131242D01*
X123756Y131292D01*
X123631Y131416D01*
X123531Y131591D01*
X123132Y131990D01*
X123033Y132164D01*
X122933Y132264D01*
X122908Y132314D01*
X122783Y132488D01*
X122721Y132550D01*
X122671Y132575D01*
X122634Y132613D01*
X122609Y132663D01*
X122559Y132712D01*
X122547Y132750D01*
X122497Y132775D01*
X122322Y133049D01*
X122210Y133136D01*
X122185Y133186D01*
X122048Y133323D01*
X121998Y133348D01*
X121961Y133385D01*
X121836Y133610D01*
X121712Y133734D01*
X121687Y133784D01*
X121574Y133946D01*
X121525Y133971D01*
X121412Y134083D01*
X121388Y134133D01*
X121238Y134283D01*
X121138Y134457D01*
X120964Y134632D01*
X120939Y134682D01*
X120901Y134719D01*
X120852Y134744D01*
X120739Y134856D01*
X120615Y135080D01*
X120565Y135105D01*
X120540Y135155D01*
X120490Y135205D01*
X120403Y135367D01*
X120353Y135392D01*
X120042Y135703D01*
X119917Y135928D01*
X119543Y136302D01*
X119443Y136476D01*
X119319Y136601D01*
X119294Y136651D01*
X119219Y136825D01*
X119244Y137000D01*
X119306Y137062D01*
X119431Y137112D01*
X119605Y137137D01*
X120004Y137112D01*
X120079Y137137D01*
X120478Y137112D01*
X120553Y137137D01*
X120951Y137112D01*
X121026Y137137D01*
X121450Y137112D01*
X121525Y137137D01*
X121924Y137112D01*
X121998Y137137D01*
X122397Y137112D01*
X122472Y137137D01*
X122871Y137112D01*
X122945Y137137D01*
X123344Y137112D01*
X123419Y137137D01*
X123868Y137112D01*
X123942Y137137D01*
X124042Y137162D01*
D02*
G37*
G36*
X79076Y114155D02*
X79151Y114130D01*
X92523Y114143D01*
X92623Y114118D01*
X92698Y114068D01*
X92798Y113893D01*
X92885Y113831D01*
X92922Y113794D01*
X92947Y113694D01*
X92922Y113370D01*
X92947Y102727D01*
X93034Y102639D01*
X93084Y102614D01*
X93196Y102502D01*
X93221Y102452D01*
X93259Y102415D01*
X93309Y102390D01*
X93446Y102253D01*
X93471Y102203D01*
X93508Y102166D01*
X93558Y102141D01*
X93670Y102029D01*
X93695Y101979D01*
X93757Y101917D01*
X93807Y101892D01*
X93919Y101779D01*
X93944Y101730D01*
X93982Y101692D01*
X94031Y101667D01*
X94144Y101555D01*
X94169Y101505D01*
X94231Y101443D01*
X94281Y101418D01*
X94393Y101306D01*
X94418Y101256D01*
X94455Y101219D01*
X94505Y101194D01*
X94642Y101057D01*
X94667Y101007D01*
X94704Y100969D01*
X94754Y100944D01*
X94866Y100832D01*
X94891Y100782D01*
X94954Y100720D01*
X95003Y100695D01*
X95116Y100583D01*
X95141Y100533D01*
X95178Y100496D01*
X95228Y100471D01*
X95340Y100359D01*
X95365Y100309D01*
X95427Y100246D01*
X95477Y100222D01*
X95589Y100109D01*
X95614Y100059D01*
X95652Y100022D01*
X95702Y99997D01*
X95838Y99860D01*
X95864Y99810D01*
X95901Y99773D01*
X95951Y99748D01*
X96063Y99636D01*
X96088Y99586D01*
X96150Y99524D01*
X96200Y99499D01*
X96312Y99387D01*
X96337Y99337D01*
X96374Y99299D01*
X96424Y99274D01*
X96537Y99162D01*
X96561Y99112D01*
X96624Y99050D01*
X96673Y99025D01*
X96786Y98913D01*
X96811Y98863D01*
X96848Y98826D01*
X96898Y98801D01*
X97035Y98664D01*
X97060Y98614D01*
X97097Y98576D01*
X97147Y98552D01*
X97259Y98439D01*
X97284Y98390D01*
X97346Y98327D01*
X97396Y98302D01*
X97509Y98190D01*
X97534Y98140D01*
X97571Y98103D01*
X97621Y98078D01*
X97733Y97966D01*
X97758Y97692D01*
X97820Y97629D01*
X98169Y97579D01*
X119381Y97604D01*
X119518Y97717D01*
X119543Y97766D01*
X119655Y97879D01*
X119705Y97903D01*
X119742Y97941D01*
X119767Y97991D01*
X119880Y98103D01*
X119929Y98128D01*
X119979Y98178D01*
X119992Y98190D01*
X120017Y98240D01*
X120129Y98352D01*
X120179Y98377D01*
X120216Y98414D01*
X120241Y98464D01*
X120378Y98601D01*
X120428Y98626D01*
X120465Y98664D01*
X120490Y98714D01*
X120602Y98826D01*
X120652Y98851D01*
X120715Y98913D01*
X120739Y98963D01*
X120852Y99075D01*
X120901Y99100D01*
X120939Y99137D01*
X120964Y99187D01*
X121076Y99299D01*
X121126Y99324D01*
X121188Y99387D01*
X121213Y99436D01*
X121325Y99549D01*
X121375Y99573D01*
X121412Y99611D01*
X121437Y99661D01*
X121574Y99798D01*
X121624Y99823D01*
X121662Y99860D01*
X121687Y99910D01*
X121799Y100022D01*
X121849Y100047D01*
X121911Y100109D01*
X121936Y100159D01*
X122048Y100271D01*
X122098Y100296D01*
X122135Y100334D01*
X122160Y100384D01*
X122272Y100496D01*
X122322Y100521D01*
X122385Y100583D01*
X122409Y100633D01*
X122522Y100745D01*
X122571Y100770D01*
X122609Y100807D01*
X122634Y100857D01*
X122771Y100994D01*
X122821Y101019D01*
X122858Y101057D01*
X122883Y101106D01*
X122995Y101219D01*
X123045Y101243D01*
X123107Y101306D01*
X123132Y101356D01*
X123244Y101468D01*
X123294Y101493D01*
X123332Y101530D01*
X123357Y101580D01*
X123469Y101692D01*
X123519Y101717D01*
X123581Y101779D01*
X123606Y101829D01*
X123718Y101941D01*
X123768Y101966D01*
X123805Y102004D01*
X123830Y102054D01*
X123967Y102191D01*
X124017Y102216D01*
X124055Y102253D01*
X124080Y102303D01*
X124192Y102415D01*
X124242Y102440D01*
X124304Y102502D01*
X124329Y102602D01*
X124354Y102801D01*
X124391Y102839D01*
X124441Y102864D01*
X124528Y102951D01*
X124578Y103150D01*
X124516Y103312D01*
X124466Y103337D01*
X124354Y103425D01*
X124379Y103574D01*
X124516Y103661D01*
X124553Y103773D01*
X124528Y104247D01*
X124466Y104309D01*
X124354Y104372D01*
X124379Y104496D01*
X124416Y104534D01*
X124466Y104559D01*
X124528Y104596D01*
X124553Y104696D01*
X124528Y104746D01*
X124466Y104808D01*
X124354Y104870D01*
X124379Y104995D01*
X124516Y105082D01*
X124553Y105119D01*
X124528Y105219D01*
X124466Y105281D01*
X124416Y105306D01*
X124354Y105344D01*
X124379Y105468D01*
X124516Y105556D01*
X124553Y105593D01*
X124528Y105718D01*
X124491Y105755D01*
X124366Y105830D01*
X124329Y105892D01*
X124391Y105979D01*
X124441Y106004D01*
X124528Y106067D01*
X124553Y106166D01*
X124528Y106640D01*
X124466Y106702D01*
X124354Y106765D01*
X124379Y106889D01*
X124416Y106927D01*
X124466Y106952D01*
X124528Y106989D01*
X124553Y107089D01*
X124528Y107139D01*
X124466Y107201D01*
X124354Y107263D01*
X124379Y107388D01*
X124516Y107475D01*
X124553Y107512D01*
X124528Y107612D01*
X124466Y107674D01*
X124416Y107699D01*
X124354Y107737D01*
X124379Y107861D01*
X124516Y107949D01*
X124553Y107986D01*
X124528Y108111D01*
X124491Y108148D01*
X124366Y108223D01*
X124354Y108335D01*
X124391Y108372D01*
X124441Y108397D01*
X124528Y108460D01*
X124553Y108559D01*
X124528Y109033D01*
X124466Y109095D01*
X124354Y109157D01*
X124341Y109220D01*
X124416Y109319D01*
X124466Y109344D01*
X124528Y109382D01*
X124553Y109481D01*
X124528Y109531D01*
X124466Y109594D01*
X124354Y109656D01*
X124379Y109781D01*
X124516Y109868D01*
X124553Y109905D01*
X124528Y110005D01*
X124466Y110067D01*
X124416Y110092D01*
X124354Y110130D01*
X124379Y110254D01*
X124516Y110342D01*
X124553Y110379D01*
X124528Y110504D01*
X124491Y110541D01*
X124366Y110616D01*
X124354Y110703D01*
X124416Y110765D01*
X124528Y110828D01*
X124553Y110927D01*
X124491Y111014D01*
X124366Y111089D01*
X124354Y111177D01*
X124416Y111239D01*
X124528Y111301D01*
X124553Y111401D01*
X124528Y111451D01*
X124466Y111513D01*
X124354Y111575D01*
X124366Y111687D01*
X124416Y111712D01*
X124553Y111825D01*
X124528Y111924D01*
X124466Y111987D01*
X124354Y112049D01*
X124379Y112174D01*
X124516Y112261D01*
X124553Y112298D01*
X124528Y112398D01*
X124466Y112460D01*
X124416Y112485D01*
X124354Y112522D01*
X124379Y112647D01*
X124516Y112734D01*
X124553Y112772D01*
X124528Y112896D01*
X124491Y112934D01*
X124366Y113008D01*
X124354Y113096D01*
X124416Y113158D01*
X124528Y113220D01*
X124553Y113320D01*
X124466Y113432D01*
X124354Y113495D01*
X124341Y113557D01*
X124404Y113644D01*
X124491Y113707D01*
X124553Y113769D01*
X124628Y113893D01*
X124840Y114105D01*
X124939Y114130D01*
X138375Y114105D01*
X138487Y113993D01*
X138512Y113943D01*
X138661Y113819D01*
X138686Y113495D01*
X138773Y113407D01*
X138823Y113382D01*
X138861Y113345D01*
X138836Y113220D01*
X138798Y113183D01*
X138748Y113158D01*
X138661Y113071D01*
X138686Y112522D01*
X138723Y112485D01*
X138773Y112460D01*
X138861Y112398D01*
X138836Y112248D01*
X138699Y112161D01*
X138661Y112124D01*
X138686Y111575D01*
X138748Y111513D01*
X138798Y111488D01*
X138861Y111426D01*
X138836Y111301D01*
X138798Y111264D01*
X138748Y111239D01*
X138686Y111201D01*
X138661Y111102D01*
X138686Y110603D01*
X138836Y110504D01*
X138861Y110429D01*
X138836Y110354D01*
X138773Y110292D01*
X138723Y110267D01*
X138661Y110204D01*
X138686Y109656D01*
X138748Y109594D01*
X138861Y109531D01*
X138836Y109382D01*
X138686Y109282D01*
X138661Y109182D01*
X138686Y108709D01*
X138773Y108622D01*
X138823Y108597D01*
X138861Y108559D01*
X138836Y108435D01*
X138798Y108397D01*
X138748Y108372D01*
X138661Y108285D01*
X138686Y107737D01*
X138723Y107699D01*
X138773Y107674D01*
X138861Y107612D01*
X138836Y107463D01*
X138699Y107375D01*
X138661Y107338D01*
X138686Y106790D01*
X138748Y106727D01*
X138798Y106702D01*
X138861Y106640D01*
X138836Y106515D01*
X138798Y106478D01*
X138748Y106453D01*
X138686Y106416D01*
X138661Y106316D01*
X138686Y105817D01*
X138836Y105718D01*
X138861Y105643D01*
X138836Y105568D01*
X138773Y105506D01*
X138723Y105481D01*
X138661Y105419D01*
X138686Y104870D01*
X138748Y104808D01*
X138861Y104746D01*
X138836Y104596D01*
X138686Y104496D01*
X138661Y104397D01*
X138686Y103923D01*
X138773Y103836D01*
X138823Y103811D01*
X138861Y103773D01*
X138836Y103649D01*
X138798Y103611D01*
X138748Y103587D01*
X138661Y103499D01*
X138686Y102951D01*
X138723Y102914D01*
X138773Y102889D01*
X138861Y102826D01*
X138836Y102702D01*
X138773Y102639D01*
X138723Y102614D01*
X138661Y102552D01*
X138686Y102004D01*
X138748Y101941D01*
X138798Y101917D01*
X138861Y101854D01*
X138836Y101730D01*
X138798Y101692D01*
X138748Y101667D01*
X138686Y101630D01*
X138661Y101530D01*
X138686Y101032D01*
X138836Y100932D01*
X138861Y100857D01*
X138836Y100782D01*
X138773Y100720D01*
X138723Y100695D01*
X138661Y100633D01*
X138686Y100084D01*
X138748Y100022D01*
X138861Y99960D01*
X138836Y99810D01*
X138686Y99711D01*
X138661Y99611D01*
X138686Y99137D01*
X138773Y99050D01*
X138823Y99025D01*
X138861Y98988D01*
X138836Y98863D01*
X138798Y98826D01*
X138748Y98801D01*
X138661Y98714D01*
X138686Y98165D01*
X138723Y98128D01*
X138773Y98103D01*
X138861Y98041D01*
X138836Y97916D01*
X138773Y97854D01*
X138723Y97829D01*
X138661Y97766D01*
X138686Y97218D01*
X138748Y97156D01*
X138798Y97131D01*
X138861Y97069D01*
X138836Y96944D01*
X138798Y96906D01*
X138674Y96832D01*
X138362Y96520D01*
X138350Y96483D01*
X138300Y96458D01*
X138138Y96296D01*
X138113Y96246D01*
X137963Y96121D01*
X137166Y95324D01*
X137153Y95286D01*
X137103Y95261D01*
X136941Y95099D01*
X136916Y95049D01*
X136767Y94925D01*
X135969Y94127D01*
X135957Y94090D01*
X135907Y94065D01*
X135720Y93878D01*
X135707Y93841D01*
X135658Y93816D01*
X134773Y92931D01*
X134760Y92893D01*
X134710Y92868D01*
X134523Y92682D01*
X134511Y92644D01*
X134461Y92619D01*
X133576Y91734D01*
X133564Y91697D01*
X133514Y91672D01*
X133327Y91485D01*
X133315Y91448D01*
X133265Y91423D01*
X132380Y90538D01*
X132367Y90500D01*
X132317Y90476D01*
X132131Y90289D01*
X132118Y90251D01*
X132068Y90226D01*
X131183Y89341D01*
X131171Y89304D01*
X131121Y89279D01*
X130934Y89092D01*
X130922Y89055D01*
X130872Y89030D01*
X129987Y88145D01*
X129974Y88108D01*
X129925Y88083D01*
X129738Y87896D01*
X129725Y87858D01*
X129675Y87833D01*
X128791Y86949D01*
X128778Y86911D01*
X128728Y86886D01*
X128541Y86699D01*
X128529Y86662D01*
X128479Y86637D01*
X127594Y85752D01*
X127582Y85715D01*
X127532Y85690D01*
X127345Y85503D01*
X127332Y85465D01*
X127282Y85441D01*
X126398Y84556D01*
X126385Y84518D01*
X126335Y84493D01*
X126148Y84306D01*
X126136Y84269D01*
X126086Y84244D01*
X125226Y83384D01*
X125201Y83334D01*
X125164Y83297D01*
X124989Y83272D01*
X124591Y83297D01*
X124516Y83272D01*
X124055Y83284D01*
X123868Y83272D01*
X123793Y83297D01*
X123344Y83272D01*
X123269Y83297D01*
X122896Y83272D01*
X122821Y83297D01*
X122397Y83272D01*
X122322Y83297D01*
X121948Y83272D01*
X121874Y83297D01*
X121425Y83272D01*
X121350Y83297D01*
X121001Y83272D01*
X120926Y83297D01*
X120478Y83272D01*
X120403Y83297D01*
X120029Y83272D01*
X119954Y83297D01*
X119506Y83272D01*
X119431Y83297D01*
X119082Y83272D01*
X119007Y83297D01*
X118558Y83272D01*
X118484Y83297D01*
X118110Y83272D01*
X118035Y83297D01*
X117611Y83272D01*
X117536Y83297D01*
X117163Y83272D01*
X117088Y83297D01*
X116639Y83272D01*
X116564Y83297D01*
X116215Y83272D01*
X116141Y83297D01*
X115692Y83272D01*
X115617Y83297D01*
X115243Y83272D01*
X115169Y83297D01*
X114720Y83272D01*
X114645Y83297D01*
X114296Y83272D01*
X114221Y83297D01*
X113773Y83272D01*
X113698Y83297D01*
X113324Y83272D01*
X113249Y83297D01*
X112825Y83272D01*
X112751Y83297D01*
X112377Y83272D01*
X112302Y83297D01*
X111853Y83272D01*
X111779Y83297D01*
X111430Y83272D01*
X111355Y83297D01*
X110906Y83272D01*
X110831Y83297D01*
X110458Y83272D01*
X110383Y83297D01*
X109934Y83272D01*
X109859Y83297D01*
X109510Y83272D01*
X109436Y83297D01*
X108987Y83272D01*
X108912Y83297D01*
X108538Y83272D01*
X108463Y83297D01*
X108040Y83272D01*
X107965Y83297D01*
X107591Y83272D01*
X107516Y83297D01*
X107068Y83272D01*
X106993Y83297D01*
X106644Y83272D01*
X106569Y83297D01*
X106121Y83272D01*
X106046Y83297D01*
X105672Y83272D01*
X105597Y83297D01*
X105148Y83272D01*
X105074Y83297D01*
X104725Y83272D01*
X104650Y83297D01*
X104201Y83272D01*
X104126Y83297D01*
X103752Y83272D01*
X103678Y83297D01*
X103254Y83272D01*
X103179Y83297D01*
X102805Y83272D01*
X102731Y83297D01*
X102282Y83272D01*
X102207Y83297D01*
X101858Y83272D01*
X101783Y83297D01*
X101335Y83272D01*
X101260Y83297D01*
X100886Y83272D01*
X100811Y83297D01*
X100363Y83272D01*
X100288Y83297D01*
X99939Y83272D01*
X99864Y83297D01*
X99415Y83272D01*
X99341Y83297D01*
X98967Y83272D01*
X98892Y83297D01*
X98468Y83272D01*
X98393Y83297D01*
X98020Y83272D01*
X97945Y83297D01*
X97496Y83272D01*
X97421Y83297D01*
X97072Y83272D01*
X96998Y83297D01*
X96549Y83272D01*
X96474Y83297D01*
X96100Y83272D01*
X96025Y83297D01*
X95577Y83272D01*
X95502Y83297D01*
X95153Y83272D01*
X95078Y83297D01*
X94630Y83272D01*
X94555Y83297D01*
X94181Y83272D01*
X94106Y83297D01*
X93682Y83272D01*
X93608Y83297D01*
X93234Y83272D01*
X93159Y83297D01*
X92735Y83272D01*
X92661Y83297D01*
X92162Y83272D01*
X92050Y83359D01*
X92025Y83409D01*
X91888Y83546D01*
X91838Y83571D01*
X91801Y83609D01*
X91776Y83658D01*
X91664Y83771D01*
X91614Y83795D01*
X91551Y83858D01*
X91526Y83908D01*
X91414Y84020D01*
X91364Y84045D01*
X91327Y84082D01*
X91302Y84132D01*
X91165Y84269D01*
X91115Y84294D01*
X91078Y84331D01*
X91053Y84381D01*
X90941Y84493D01*
X90891Y84518D01*
X90853Y84556D01*
X90828Y84606D01*
X90691Y84743D01*
X90641Y84768D01*
X90604Y84805D01*
X90579Y84855D01*
X90467Y84967D01*
X90417Y84992D01*
X90355Y85054D01*
X90330Y85104D01*
X90218Y85216D01*
X90168Y85241D01*
X90131Y85279D01*
X90106Y85328D01*
X89969Y85465D01*
X89919Y85490D01*
X89881Y85528D01*
X89856Y85578D01*
X89744Y85690D01*
X89694Y85715D01*
X89657Y85752D01*
X89632Y85802D01*
X89495Y85939D01*
X89445Y85964D01*
X89408Y86001D01*
X89383Y86051D01*
X89271Y86163D01*
X89221Y86188D01*
X89158Y86251D01*
X89134Y86300D01*
X89021Y86413D01*
X88972Y86438D01*
X88934Y86475D01*
X88909Y86525D01*
X88797Y86637D01*
X88747Y86662D01*
X88685Y86724D01*
X88660Y86774D01*
X88548Y86886D01*
X88498Y86911D01*
X88461Y86949D01*
X88436Y86998D01*
X88299Y87135D01*
X88249Y87160D01*
X88211Y87198D01*
X88186Y87248D01*
X88074Y87360D01*
X88024Y87385D01*
X87962Y87447D01*
X87937Y87497D01*
X87825Y87609D01*
X87775Y87634D01*
X87738Y87671D01*
X87713Y87721D01*
X87576Y87858D01*
X87526Y87883D01*
X87488Y87921D01*
X87464Y87971D01*
X87351Y88083D01*
X87301Y88108D01*
X87264Y88145D01*
X87239Y88195D01*
X87102Y88332D01*
X87052Y88357D01*
X87015Y88394D01*
X86990Y88444D01*
X86878Y88556D01*
X86828Y88581D01*
X86765Y88644D01*
X86741Y88693D01*
X86628Y88806D01*
X86579Y88830D01*
X86541Y88868D01*
X86516Y88918D01*
X86404Y89030D01*
X86354Y89055D01*
X86292Y89117D01*
X86267Y89167D01*
X86155Y89279D01*
X86105Y89304D01*
X86068Y89341D01*
X86043Y89391D01*
X85906Y89528D01*
X85856Y89553D01*
X85818Y89591D01*
X85793Y89765D01*
X85768Y89890D01*
X85706Y89952D01*
X85582Y90027D01*
X85482Y90176D01*
X85432Y90201D01*
X85345Y90264D01*
X85320Y90314D01*
X85270Y90363D01*
X85258Y90401D01*
X85208Y90426D01*
X85158Y90476D01*
X85108Y90500D01*
X85021Y90613D01*
X85008Y90650D01*
X84958Y90675D01*
X84909Y90725D01*
X84859Y90750D01*
X84734Y90899D01*
X84684Y90949D01*
X84634Y90974D01*
X84510Y91124D01*
X84435Y91198D01*
X84385Y91223D01*
X84261Y91373D01*
X84211Y91423D01*
X84161Y91448D01*
X84098Y91535D01*
X84061Y91597D01*
X84011Y91622D01*
X83961Y91672D01*
X83912Y91697D01*
X83849Y91784D01*
X83812Y91847D01*
X83762Y91871D01*
X83712Y91921D01*
X83662Y91946D01*
X83600Y92033D01*
X83488Y92146D01*
X83438Y92170D01*
X83376Y92258D01*
X83338Y92320D01*
X83288Y92345D01*
X83238Y92395D01*
X83189Y92420D01*
X83126Y92507D01*
X83089Y92569D01*
X83039Y92594D01*
X82952Y92657D01*
X82927Y92706D01*
X82877Y92756D01*
X82865Y92794D01*
X82815Y92819D01*
X82765Y92868D01*
X82715Y92893D01*
X82653Y92981D01*
X82615Y93043D01*
X82565Y93068D01*
X82516Y93118D01*
X82466Y93143D01*
X82403Y93230D01*
X82291Y93342D01*
X82241Y93367D01*
X82154Y93479D01*
X82142Y93517D01*
X82092Y93541D01*
X82042Y93591D01*
X81992Y93616D01*
X81905Y93728D01*
X81892Y93766D01*
X81843Y93791D01*
X81755Y93853D01*
X81730Y93903D01*
X81681Y93953D01*
X81668Y93990D01*
X81618Y94015D01*
X81568Y94065D01*
X81519Y94090D01*
X81394Y94239D01*
X81319Y94314D01*
X81269Y94339D01*
X81145Y94489D01*
X81095Y94538D01*
X81045Y94563D01*
X80983Y94651D01*
X80945Y94713D01*
X80896Y94738D01*
X80846Y94788D01*
X80796Y94813D01*
X80733Y94900D01*
X80696Y94962D01*
X80646Y94987D01*
X80534Y95074D01*
X80509Y95124D01*
X80372Y95261D01*
X80322Y95286D01*
X80260Y95373D01*
X80123Y95511D01*
X80073Y95535D01*
X80011Y95623D01*
X79898Y95735D01*
X79849Y95760D01*
X79786Y95847D01*
X79749Y95909D01*
X79699Y95934D01*
X79649Y95984D01*
X79599Y96009D01*
X79537Y96096D01*
X79500Y96159D01*
X79450Y96184D01*
X79338Y96271D01*
X79313Y96321D01*
X79176Y96458D01*
X79126Y96483D01*
X79001Y96632D01*
X78926Y96707D01*
X78877Y96732D01*
X78777Y96882D01*
X78727Y96906D01*
X78615Y96994D01*
X78590Y97093D01*
X78615Y97492D01*
X78602Y113756D01*
X78665Y113843D01*
X78702Y113881D01*
X78752Y113906D01*
X78839Y113993D01*
X78864Y114043D01*
X78901Y114105D01*
X79076Y114155D01*
D02*
G37*
G36*
X98917Y114005D02*
X118558Y113981D01*
X118733Y113856D01*
X118745Y113669D01*
X118646Y113445D01*
X118671Y113345D01*
X118658Y105680D01*
X118695Y105593D01*
X118745Y105468D01*
X118758Y105406D01*
X118708Y105281D01*
X118621Y105194D01*
X118596Y105144D01*
X118185Y104733D01*
X118147Y104721D01*
X118122Y104671D01*
X117935Y104484D01*
X117898Y104471D01*
X117873Y104422D01*
X117711Y104260D01*
X117674Y104247D01*
X117649Y104197D01*
X117462Y104010D01*
X117424Y103998D01*
X117399Y103948D01*
X117013Y103562D01*
X116963Y103537D01*
X116814Y103387D01*
X116639Y103362D01*
X116390Y103387D01*
X113823Y103362D01*
X108364Y103387D01*
X108289Y103362D01*
X107392D01*
X101185Y103387D01*
X101110Y103362D01*
X100487Y103387D01*
X100425Y103425D01*
X100400Y103474D01*
X100338Y103562D01*
X100288Y103587D01*
X100151Y103699D01*
X100126Y103749D01*
X100076Y103798D01*
X100063Y103836D01*
X100014Y103861D01*
X99876Y103998D01*
X99864Y104035D01*
X99814Y104060D01*
X99677Y104172D01*
X99652Y104222D01*
X99602Y104272D01*
X99590Y104309D01*
X99540Y104334D01*
X99403Y104471D01*
X99378Y104521D01*
X99341Y104559D01*
X99291Y104584D01*
X99179Y104696D01*
X99154Y104746D01*
X99091Y104808D01*
X99042Y104833D01*
X98929Y104945D01*
X98904Y104995D01*
X98867Y105032D01*
X98817Y105057D01*
X98705Y105169D01*
X98680Y105344D01*
X98655Y105443D01*
X98668Y108970D01*
X98643Y109070D01*
X98605Y109207D01*
X98630Y109357D01*
X98655Y109432D01*
X98680Y109531D01*
X98655Y109756D01*
X98680Y109831D01*
X98655Y110030D01*
X98605Y110154D01*
X98630Y110329D01*
X98655Y110404D01*
X98680Y110504D01*
X98668Y110715D01*
X98680Y110877D01*
X98655Y110952D01*
X98605Y111127D01*
X98630Y111276D01*
X98655Y111351D01*
X98680Y111451D01*
X98655Y111849D01*
X98680Y113893D01*
X98742Y113981D01*
X98917Y114005D01*
D02*
G37*
G36*
X123497Y64766D02*
X113215D01*
X113172Y64745D01*
X113151Y64724D01*
X113130Y64682D01*
Y64660D01*
Y64639D01*
Y64618D01*
Y60048D01*
X123582D01*
Y64618D01*
X123561Y64703D01*
X123540Y64724D01*
X123497Y64766D01*
D02*
G37*
G36*
X173401Y9566D02*
X167389D01*
X167364Y9554D01*
X167352Y9542D01*
X167340Y9517D01*
Y9505D01*
Y9492D01*
Y9480D01*
Y3555D01*
Y3517D01*
Y3505D01*
X167352Y3480D01*
X167377Y3468D01*
X173413D01*
X173426Y3480D01*
X173450Y3530D01*
Y3542D01*
Y3555D01*
Y9480D01*
X173438Y9529D01*
X173426Y9542D01*
X173401Y9566D01*
D02*
G37*
G36*
X161674Y7616D02*
X157477D01*
X157464Y7603D01*
X157452Y7591D01*
X157439Y7579D01*
X157427Y7554D01*
Y7542D01*
Y7529D01*
Y6307D01*
X161735Y6283D01*
Y7529D01*
Y7566D01*
X161723Y7579D01*
X161711Y7591D01*
X161674Y7616D01*
D02*
G37*
G36*
X119382D02*
X115185D01*
X115172Y7603D01*
X115160Y7591D01*
X115148Y7579D01*
X115135Y7554D01*
Y7542D01*
Y7529D01*
Y6307D01*
X119443Y6283D01*
Y7529D01*
Y7566D01*
X119431Y7579D01*
X119419Y7591D01*
X119382Y7616D01*
D02*
G37*
G36*
X109951D02*
X105753D01*
X105741Y7603D01*
X105729Y7591D01*
X105716Y7579D01*
X105704Y7554D01*
Y7542D01*
Y7529D01*
Y3505D01*
X105716Y3456D01*
X105729Y3443D01*
X105741Y3431D01*
X109926D01*
X109975Y3443D01*
X109988D01*
X110012Y3480D01*
Y3505D01*
Y7529D01*
Y7566D01*
X110000Y7579D01*
X109988Y7591D01*
X109951Y7616D01*
D02*
G37*
G36*
X95594D02*
X91434D01*
X91385Y7603D01*
X91372Y7591D01*
X91360Y7579D01*
X91348Y7554D01*
Y7542D01*
Y7529D01*
Y3505D01*
X91360Y3456D01*
X91372Y3443D01*
X91409Y3431D01*
X95582D01*
X95619Y3443D01*
X95631D01*
X95656Y3480D01*
Y3505D01*
Y7529D01*
Y7566D01*
X95643Y7579D01*
X95631Y7591D01*
X95594Y7616D01*
D02*
G37*
G36*
X60943D02*
X56746D01*
X56734Y7603D01*
X56722Y7591D01*
X56709Y7579D01*
X56697Y7554D01*
Y7542D01*
Y7529D01*
Y3505D01*
X56709Y3456D01*
X56722Y3443D01*
X56734Y3431D01*
X60919D01*
X60968Y3443D01*
X60980D01*
X61005Y3480D01*
Y3505D01*
Y7529D01*
Y7566D01*
X60993Y7579D01*
X60980Y7591D01*
X60943Y7616D01*
D02*
G37*
G36*
X30082D02*
X25885D01*
X25873Y7603D01*
X25861Y7591D01*
X25848Y7579D01*
X25836Y7554D01*
Y7542D01*
Y7529D01*
Y6307D01*
X30144Y6283D01*
Y7529D01*
Y7566D01*
X30132Y7579D01*
X30119Y7591D01*
X30082Y7616D01*
D02*
G37*
G36*
X20268D02*
X16071D01*
X16059Y7603D01*
X16047Y7591D01*
X16034Y7579D01*
X16022Y7554D01*
Y7542D01*
Y7529D01*
Y6307D01*
X20330Y6283D01*
Y7529D01*
Y7566D01*
X20318Y7579D01*
X20306Y7591D01*
X20268Y7616D01*
D02*
G37*
G36*
X139071D02*
X134886D01*
X134837Y7603D01*
X134824Y7591D01*
X134812Y7579D01*
X134800Y7554D01*
Y7542D01*
Y7529D01*
Y3505D01*
X134812Y3456D01*
X134824Y3443D01*
X134862Y3431D01*
X139046D01*
X139096Y3443D01*
X139108D01*
X139120Y3480D01*
Y3505D01*
Y7529D01*
Y7566D01*
X139108Y7579D01*
Y7591D01*
X139071Y7616D01*
D02*
G37*
%LPD*%
D13*
X30482Y187962D02*
D03*
X182882D02*
D03*
D14*
X30482Y25402D02*
D03*
X55882D02*
D03*
X81282D02*
D03*
X106682D02*
D03*
X132082D02*
D03*
X157482D02*
D03*
X182882D02*
D03*
D15*
X274362Y208672D02*
D03*
Y98672D02*
D03*
D16*
X253362Y193672D02*
D03*
Y173672D02*
D03*
Y153672D02*
D03*
Y133672D02*
D03*
D17*
Y113672D02*
D03*
M02*
