G04*
G04 #@! TF.GenerationSoftware,Altium Limited,Altium Designer,23.1.1 (15)*
G04*
G04 Layer_Color=65535*
%FSLAX44Y44*%
%MOMM*%
G71*
G04*
G04 #@! TF.SameCoordinates,7DEE206C-283F-43E0-9F98-1BFD9C08138E*
G04*
G04*
G04 #@! TF.FilePolarity,Positive*
G04*
G01*
G75*
%ADD10C,0.2500*%
%ADD11C,0.2540*%
%ADD12C,0.2000*%
G36*
X203756Y118382D02*
X195028D01*
Y120114D01*
X203756D01*
Y118382D01*
D02*
G37*
G36*
X202192Y117261D02*
X202308Y117240D01*
X202445Y117219D01*
X202583Y117177D01*
X202741Y117114D01*
X202889Y117040D01*
X202910Y117029D01*
X202953Y116997D01*
X203027Y116945D01*
X203111Y116870D01*
X203217Y116775D01*
X203322Y116670D01*
X203417Y116543D01*
X203513Y116406D01*
X203523Y116384D01*
X203555Y116332D01*
X203587Y116258D01*
X203639Y116152D01*
X203682Y116015D01*
X203713Y115867D01*
X203745Y115708D01*
X203756Y115529D01*
Y108565D01*
X202002D01*
Y115180D01*
X201991Y115222D01*
X201959Y115328D01*
X201896Y115423D01*
X201875Y115444D01*
X201822Y115476D01*
X201727Y115507D01*
X201590Y115529D01*
X197194D01*
X197183D01*
X197162D01*
X197131Y115518D01*
X197088D01*
X196982Y115486D01*
X196887Y115423D01*
Y115412D01*
X196866Y115402D01*
X196835Y115338D01*
X196803Y115243D01*
X196782Y115117D01*
Y108565D01*
X195028D01*
Y115613D01*
X195038Y115698D01*
X195060Y115824D01*
X195081Y115951D01*
X195123Y116099D01*
X195186Y116258D01*
X195260Y116406D01*
X195271Y116427D01*
X195303Y116469D01*
X195355Y116543D01*
X195429Y116628D01*
X195514Y116733D01*
X195620Y116839D01*
X195746Y116945D01*
X195884Y117040D01*
X195905Y117050D01*
X195958Y117071D01*
X196032Y117114D01*
X196148Y117156D01*
X196275Y117198D01*
X196433Y117240D01*
X196592Y117261D01*
X196771Y117272D01*
X202012D01*
X202023D01*
X202033D01*
X202097D01*
X202192Y117261D01*
D02*
G37*
G36*
X203756Y105247D02*
Y103409D01*
X195028D01*
Y105142D01*
X201188D01*
X200522Y105670D01*
Y107963D01*
X203756Y105247D01*
D02*
G37*
G36*
X330675Y81201D02*
Y81180D01*
Y81117D01*
X330665Y81022D01*
X330643Y80905D01*
X330612Y80768D01*
X330569Y80620D01*
X330517Y80472D01*
X330432Y80314D01*
X330421Y80293D01*
X330390Y80250D01*
X330337Y80176D01*
X330263Y80092D01*
X330168Y79986D01*
X330062Y79891D01*
X329935Y79785D01*
X329798Y79690D01*
X329777Y79680D01*
X329735Y79658D01*
X329650Y79616D01*
X329544Y79574D01*
X329418Y79532D01*
X329259Y79489D01*
X329101Y79468D01*
X328921Y79458D01*
X323596D01*
X323511Y79468D01*
X323384Y79489D01*
X323257Y79511D01*
X323110Y79553D01*
X322951Y79616D01*
X322803Y79690D01*
X322782Y79701D01*
X322740Y79732D01*
X322666Y79785D01*
X322581Y79859D01*
X322476Y79944D01*
X322370Y80049D01*
X322264Y80176D01*
X322169Y80314D01*
X322159Y80335D01*
X322137Y80388D01*
X322095Y80462D01*
X322053Y80578D01*
X322011Y80705D01*
X321968Y80863D01*
X321947Y81022D01*
X321937Y81201D01*
Y82258D01*
X323680D01*
Y81286D01*
Y81275D01*
Y81265D01*
X323701Y81222D01*
X323712Y81212D01*
X328868D01*
X328889Y81222D01*
X328900Y81243D01*
Y81254D01*
Y81286D01*
X328910Y88186D01*
X330675D01*
Y81201D01*
D02*
G37*
G36*
X335927Y79458D02*
X334194D01*
Y85618D01*
X333665Y84952D01*
X331372D01*
X334088Y88186D01*
X335927D01*
Y79458D01*
D02*
G37*
D10*
X254612Y87672D02*
G03*
X254612Y87672I-1250J0D01*
G01*
D11*
X5082Y10162D02*
Y213362D01*
X208282Y10162D02*
Y213362D01*
X5082D02*
X208282D01*
X5082Y10162D02*
X208282D01*
D12*
X283612Y213672D02*
X335362D01*
X218362D02*
X265112D01*
X218362Y93672D02*
Y213672D01*
X283612Y93672D02*
X335362D01*
X218362D02*
X265112D01*
X335362D02*
Y213672D01*
M02*
